<?xml version="1.0" encoding="UTF-8"?>
<svg xmlns="http://www.w3.org/2000/svg" xmlns:xlink="http://www.w3.org/1999/xlink" version="1.2" >
<font id="Maxwell Sans Bold Italic">
<font-face  font-family="Maxwell Sans" units-per-em="1000" ascent="750" descent="-250" font-style="normal" font-weight="700" font-stretch="normal" cap-height="676" x-height="486" underline-position="-75" underline-thickness="50" />
<missing-glyph  horiz-adv-x="173" d="" />
<glyph glyph-name="space" unicode="&#x20;" horiz-adv-x="173" d="" />
<glyph glyph-name="exclam" unicode="&#x21;" horiz-adv-x="192" d="M72 161 L198 161 L314 820 L188 820 L72 161 L72 161 Z M44 2 L169 2 L186 101 L61 101 L44 2 L44 2 Z " />
<glyph glyph-name="quotedbl" unicode="&#x22;" horiz-adv-x="251" d="M263 700 L318 700 L346 814 L276 814 L263 700 L263 700 Z M174 700 L228 700 L257 814 L187 814 L174 700 L174 700 Z " />
<glyph glyph-name="numbersign" unicode="&#x23;" horiz-adv-x="628" d="M631 814 L505 814 L473 628 L365 628 L397 814 L271 814 L239 628 L155 628 L132 502 L216 502 L190 350 L106 350 L83 224 L167 224 L130 7 L256 7 L293 224 L401 224 L364 7 L490 7 L527 224 L605 224 L628 350 L550 350 L576 502 L654 502 L677 628 L599 628 L631 814 L631 814 Z M424 350 L316 350 L342 502 L450 502 L424 350 L424 350 Z " />
<glyph glyph-name="dollar" unicode="&#x24;" horiz-adv-x="468" d="M404 443 L446 683 C462 670 470 650 467 629 L593 629 C608 720 556 796 470 821 L482 888 L356 888 L344 821 C251 798 173 726 156 640 C132 517 200 444 268 382 L223 136 C208 149 200 167 204 188 L78 188 C62 98 114 23 199 -2 L188 -67 L314 -67 L325 -5 C422 16 494 83 514 180 C539 304 470 382 404 443 L404 443 Z M282 638 C286 656 300 673 320 685 L298 554 C282 581 277 607 282 638 L282 638 Z M388 182 C385 172 380 144 348 127 L373 269 C389 242 394 216 388 182 L388 182 Z " />
<glyph glyph-name="percent" unicode="&#x25;" horiz-adv-x="775" d="M493 524 L509 619 C529 728 464 817 366 817 C268 817 173 728 152 619 L137 524 C118 415 180 326 278 326 C377 326 474 415 493 524 L493 524 Z M367 524 C360 486 330 452 301 452 C274 452 256 486 263 524 L278 619 C286 658 316 691 343 691 C372 691 390 658 383 619 L367 524 L367 524 Z M796 494 C697 494 601 406 582 296 L565 200 C546 91 611 2 709 2 C808 2 902 91 922 200 L938 296 C958 406 894 494 796 494 L796 494 Z M796 200 C788 162 758 128 731 128 C703 128 684 162 691 200 L708 296 C715 335 746 368 774 368 C802 368 820 335 812 296 L796 200 L796 200 Z M697 814 L271 7 L382 7 L808 814 L697 814 L697 814 Z " />
<glyph glyph-name="ampersand" unicode="&#x26;" horiz-adv-x="581" d="M517 170 C545 242 578 355 594 444 L470 444 C463 408 455 367 444 328 C420 386 403 433 389 472 C406 488 422 504 431 514 C442 523 451 532 455 538 C535 622 532 690 523 722 C510 768 474 800 426 806 C389 811 348 799 312 773 C268 740 235 690 226 640 C222 614 223 574 250 486 C168 398 97 300 80 208 C58 76 142 7 233 -4 C293 -10 365 7 422 52 C450 -10 470 -50 472 -50 L584 12 C584 13 553 78 515 167 C515 168 515 169 517 170 L517 170 Z M377 685 C382 688 385 690 389 690 C389 690 389 690 389 689 C395 689 401 685 403 677 C407 660 395 634 368 606 C366 604 360 599 354 592 C347 623 348 636 348 640 C352 659 366 676 377 685 L377 685 Z M266 113 C247 115 188 128 203 208 C211 256 247 312 290 365 C304 326 320 284 341 236 C353 208 365 182 377 157 C344 122 302 109 266 113 L266 113 Z " />
<glyph glyph-name="quotesingle" unicode="&#x27;" horiz-adv-x="174" d="M174 700 L228 700 L257 814 L187 814 L174 700 L174 700 Z " />
<glyph glyph-name="parenleft" unicode="&#x28;" horiz-adv-x="322" d="M293 870 C114 582 54 240 131 -49 C163 -49 210 -49 241 -49 C164 240 224 582 403 870 C372 870 325 870 293 870 L293 870 Z " />
<glyph glyph-name="parenright" unicode="&#x29;" horiz-adv-x="295" d="M275 870 C242 870 196 870 164 870 C242 582 182 240 2 -49 C34 -49 80 -49 113 -49 C293 240 353 582 275 870 L275 870 Z " />
<glyph glyph-name="asterisk" unicode="&#x2a;" horiz-adv-x="360" d="M409 796 L377 779 L383 812 L274 812 L268 779 L240 797 L167 701 L196 683 L161 666 L199 570 L234 587 L228 552 L337 552 L343 588 L368 571 L440 666 L416 683 L448 700 L409 796 L409 796 Z " />
<glyph glyph-name="plus" unicode="&#x2b;" horiz-adv-x="426" d="M355 497 L229 497 L212 398 L114 398 L92 272 L191 272 L173 173 L299 173 L317 272 L416 272 L438 398 L338 398 L355 497 L355 497 Z " />
<glyph glyph-name="comma" unicode="&#x2c;" horiz-adv-x="186" d="M142 80 L58 80 L44 1 L82 1 L82 1 C74 -36 50 -32 50 -32 L44 -62 C118 -62 128 1 128 1 L142 80 L142 80 Z " />
<glyph glyph-name="hyphen" unicode="&#x2d;" horiz-adv-x="410" d="M106 348 L409 348 L431 474 L127 474 L106 348 L106 348 Z " />
<glyph glyph-name="period" unicode="&#x2e;" horiz-adv-x="172" d="M44 1 L133 1 L146 82 L58 82 L44 1 L44 1 Z " />
<glyph glyph-name="slash" unicode="&#x2f;" horiz-adv-x="476" d="M594 814 L472 814 L46 7 L169 7 L594 814 L594 814 Z " />
<glyph glyph-name="zero" unicode="0" horiz-adv-x="538" d="M443 809 L386 809 C277 809 173 720 154 611 L82 198 C62 89 136 0 245 0 L301 0 C410 0 515 89 534 198 L606 611 C625 720 552 809 443 809 L443 809 Z M408 198 C401 158 362 126 323 126 L266 126 C227 126 200 158 208 198 L280 611 C287 650 325 682 365 682 L421 682 C461 682 487 650 480 611 L408 198 L408 198 Z " />
<glyph glyph-name="one" unicode="1" horiz-adv-x="368" d="M329 809 L280 809 L173 718 L246 629 L306 679 L187 0 L313 0 L455 806 L457 809 L455 809 L329 809 L329 809 Z " />
<glyph glyph-name="two" unicode="2" horiz-adv-x="508" d="M343 284 C432 356 533 438 557 590 C577 713 505 809 391 809 C280 809 170 706 148 578 L274 578 C284 635 328 683 370 683 C413 683 440 642 431 589 C415 491 353 440 274 376 C187 306 83 220 56 61 L48 0 L422 0 L444 126 L202 126 C228 190 282 233 343 284 L343 284 Z " />
<glyph glyph-name="three" unicode="3" horiz-adv-x="541" d="M406 582 L641 809 L226 809 L204 683 L343 683 L131 478 L269 478 C338 478 414 457 385 295 C365 184 316 125 277 125 C235 125 209 173 218 229 L92 229 C70 102 142 -1 254 -1 C314 -1 376 30 422 88 C466 140 497 211 511 295 C529 396 516 474 475 528 C457 551 433 569 406 582 L406 582 Z " />
<glyph glyph-name="four" unicode="4" horiz-adv-x="580" d="M515 379 L590 809 L456 809 L91 253 L367 253 L323 0 L449 0 L493 253 L565 253 L587 379 L515 379 L515 379 Z M389 379 L314 379 L416 534 L389 379 L389 379 Z " />
<glyph glyph-name="five" unicode="5" horiz-adv-x="520" d="M458 580 C420 611 368 623 302 616 L314 683 L517 683 L539 809 L210 809 L148 451 L234 476 C280 491 337 502 366 478 C392 455 400 397 384 311 C368 218 342 173 324 151 C308 133 293 126 271 126 C248 126 227 142 217 167 C211 186 209 206 212 229 L86 229 C79 185 82 143 97 106 C122 40 180 0 250 0 C313 0 372 29 415 80 C461 134 492 209 510 311 C534 443 516 530 458 580 L458 580 Z " />
<glyph glyph-name="six" unicode="6" horiz-adv-x="484" d="M353 679 C385 679 407 646 401 607 L527 607 C546 716 478 805 376 805 C272 805 173 716 154 607 L110 365 L83 206 L82 198 C62 89 131 0 234 0 C336 0 436 89 455 198 L455 198 C455 202 455 204 456 206 L484 365 C503 474 434 563 332 563 C311 563 290 559 270 553 L280 607 C286 646 319 679 353 679 L353 679 Z M311 437 C343 437 365 404 358 365 L330 206 C323 168 289 134 257 134 C223 134 202 168 209 206 L236 365 C244 404 277 437 311 437 L311 437 Z " />
<glyph glyph-name="seven" unicode="7" horiz-adv-x="514" d="M583 809 L188 809 L167 683 L400 683 C305 554 157 316 101 -1 L228 -1 C268 221 356 401 426 514 C490 618 548 685 565 702 L583 809 L583 809 Z " />
<glyph glyph-name="eight" unicode="8" horiz-adv-x="511" d="M479 509 C512 541 536 582 545 626 C562 726 493 808 391 808 C289 808 192 726 175 626 C167 582 176 541 198 509 C154 473 121 422 110 365 L82 198 C62 89 136 0 245 0 L254 0 C364 0 468 89 487 198 L516 365 C527 422 511 473 479 509 L479 509 Z M370 682 C402 682 424 656 419 626 C413 596 383 572 350 572 C318 572 295 596 301 626 C306 656 337 682 370 682 L370 682 Z M361 198 C354 158 316 126 276 126 L266 126 C227 126 200 158 208 198 L236 365 C244 404 282 437 322 437 L331 437 C371 437 397 404 390 365 L361 198 L361 198 Z " />
<glyph glyph-name="nine" unicode="9" horiz-adv-x="481" d="M378 808 C377 808 376 809 376 809 C376 809 376 809 376 809 C376 809 376 809 376 809 C272 809 173 720 154 611 L154 610 L126 455 C107 346 175 257 278 257 C299 257 320 262 341 268 L329 198 C322 158 288 126 256 126 C222 126 200 158 208 198 L82 198 C62 89 131 0 234 0 C336 0 436 89 455 198 L499 455 L527 610 L527 611 C546 719 480 806 378 808 L378 808 Z M301 383 C268 383 246 416 252 455 L280 610 C287 649 320 682 354 682 C354 682 354 682 354 682 C355 682 356 682 356 682 C356 682 356 682 356 682 C386 680 408 648 401 610 L373 455 C367 416 334 383 301 383 L301 383 Z " />
<glyph glyph-name="colon" unicode="&#x3a;" horiz-adv-x="192" d="M44 1 L133 1 L146 82 L58 82 L44 1 L44 1 Z M86 241 L175 241 L190 322 L101 322 L86 241 L86 241 Z " />
<glyph glyph-name="semicolon" unicode="&#x3b;" horiz-adv-x="193" d="M145 83 L61 83 L47 4 L84 4 L84 4 C78 -34 53 -30 53 -30 L48 -60 C121 -60 131 4 131 4 L145 83 L145 83 Z M86 245 L175 245 L190 325 L101 325 L86 245 L86 245 Z " />
<glyph glyph-name="less" unicode="&#x3c;" horiz-adv-x="403" d="M454 634 L358 700 L114 396 L244 97 L361 163 L262 396 L454 634 Z " />
<glyph glyph-name="equal" unicode="&#x3d;" horiz-adv-x="410" d="M116 414 L420 414 L443 540 L139 540 L116 414 L116 414 Z M90 263 L394 263 L416 389 L113 389 L90 263 L90 263 Z " />
<glyph glyph-name="greater" unicode="&#x3e;" horiz-adv-x="403" d="M264 396 L80 163 L176 97 L412 396 L274 700 L156 634 L264 396 Z " />
<glyph glyph-name="question" unicode="&#x3f;" horiz-adv-x="452" d="M394 835 C282 835 173 732 150 605 L276 605 C287 661 330 709 372 709 C415 709 443 668 433 616 C416 515 378 480 326 431 C268 377 196 310 170 154 L298 157 C313 262 354 299 404 347 C462 400 534 467 559 617 C580 739 506 835 394 835 L394 835 Z M145 1 L270 1 L287 100 L162 100 L145 1 L145 1 Z " />
<glyph glyph-name="at" unicode="&#x40;" horiz-adv-x="703" d="M785 397 C803 498 781 583 724 643 C673 696 596 725 509 725 C424 725 334 692 262 636 C182 575 130 490 114 397 L70 148 C41 -19 172 -167 352 -167 L374 -41 C264 -41 179 49 196 148 L240 397 C262 523 382 599 486 599 C582 599 685 546 659 397 L619 170 L620 170 L613 134 C607 125 580 107 558 102 C557 102 557 102 557 102 C557 103 553 108 556 119 L570 203 L595 346 L625 515 L548 515 C527 534 499 544 469 544 C424 544 376 520 338 478 C305 442 283 395 274 346 L248 203 C240 154 246 107 266 71 C289 29 329 5 374 5 C398 5 422 11 445 23 C450 16 455 10 460 5 C479 -14 506 -24 535 -24 C544 -24 552 -23 560 -22 C594 -16 632 2 665 25 C706 56 732 94 739 132 L752 208 L751 208 L785 397 L785 397 Z M397 131 C385 131 367 158 374 203 L400 346 C408 390 436 418 448 418 C460 418 478 390 469 346 L444 203 C437 158 409 131 397 131 L397 131 Z " />
<glyph glyph-name="A" unicode="A" horiz-adv-x="516" d="M350 812 L47 0 L175 0 L252 204 L359 204 L365 0 L493 0 L479 811 L350 812 Z M300 330 L355 476 L358 330 L300 330 L300 330 Z " />
<glyph glyph-name="B" unicode="B" horiz-adv-x="450" d="M440 484 C470 517 494 562 503 610 L506 631 C517 731 455 810 364 810 L190 810 L46 -1 L233 -1 C336 -1 436 85 455 191 L480 337 C491 396 474 449 440 484 L440 484 Z M341 684 C364 684 383 653 376 612 L373 596 L373 595 C362 563 337 540 317 540 L268 540 L293 684 L341 684 L341 684 Z M329 191 C322 155 289 125 256 125 L194 125 L244 403 L305 403 C338 403 361 374 354 337 L329 191 L329 191 Z " />
<glyph glyph-name="C" unicode="C" horiz-adv-x="475" d="M365 683 L374 683 C394 683 410 676 421 662 C428 654 433 643 433 631 L560 666 C558 698 546 728 526 752 C494 790 449 810 397 810 L388 810 C278 810 173 721 154 612 L82 198 C62 89 136 0 245 0 L254 0 C337 0 420 53 463 131 L352 174 C337 145 306 127 276 127 L266 127 C227 127 200 158 208 198 L280 612 C287 652 325 683 365 683 L365 683 Z " />
<glyph glyph-name="D" unicode="D" horiz-adv-x="478" d="M386 811 L190 811 L47 0 L58 0 L56 -1 L245 -1 C349 -1 449 85 468 192 L544 620 C562 726 492 811 386 811 L386 811 Z M342 192 C335 155 302 126 268 126 L194 126 L293 684 L364 684 C400 684 424 656 418 620 L342 192 L342 192 Z " />
<glyph glyph-name="E" unicode="E" horiz-adv-x="409" d="M47 0 L366 0 L388 126 L194 126 L227 307 L348 307 L369 433 L248 433 L293 685 L486 685 L509 811 L190 811 L47 0 L47 0 Z " />
<glyph glyph-name="F" unicode="F" horiz-adv-x="398" d="M47 0 L173 0 L227 307 L328 307 L349 433 L248 433 L293 685 L486 685 L509 811 L190 811 L47 0 L47 0 Z " />
<glyph glyph-name="G" unicode="G" horiz-adv-x="478" d="M286 307 L380 307 L361 198 C354 158 316 126 276 126 L266 126 C227 126 200 158 208 198 L281 613 C287 653 325 684 365 684 L374 684 C394 684 410 677 421 664 C428 655 433 644 433 632 L562 667 C558 700 546 730 526 754 C494 791 449 810 397 810 L388 810 C278 810 173 721 155 613 L82 198 C62 89 136 0 245 0 L254 0 C364 0 468 89 487 198 L528 433 L307 433 L286 307 L286 307 Z " />
<glyph glyph-name="H" unicode="H" horiz-adv-x="482" d="M389 433 L248 433 L316 811 L190 811 L47 0 L173 0 L227 307 L367 307 L313 0 L439 0 L582 811 L456 811 L389 433 L389 433 Z " />
<glyph glyph-name="I" unicode="I" horiz-adv-x="229" d="M47 0 L173 0 L316 811 L190 811 L47 0 L47 0 Z " />
<glyph glyph-name="J" unicode="J" horiz-adv-x="480" d="M353 203 C346 161 307 125 266 125 C227 125 200 161 208 203 L238 373 L112 373 L82 203 C62 91 134 -1 244 -1 C354 -1 460 91 479 203 L587 810 L461 810 L353 203 L353 203 Z " />
<glyph glyph-name="K" unicode="K" horiz-adv-x="510" d="M472 811 L272 569 L316 811 L190 811 L112 373 L102 317 L47 0 L173 0 L232 336 L268 380 L338 0 L472 0 L378 514 L622 811 L472 811 L472 811 Z " />
<glyph glyph-name="L" unicode="L" horiz-adv-x="409" d="M316 811 L190 811 L47 0 L366 0 L388 126 L194 126 L316 811 L316 811 Z " />
<glyph glyph-name="M" unicode="M" horiz-adv-x="570" d="M534 811 L372 519 L313 811 L190 811 L47 0 L173 0 L256 472 L283 215 L353 215 L475 481 L391 0 L517 0 L660 811 L534 811 Z " />
<glyph glyph-name="N" unicode="N" horiz-adv-x="518" d="M324 812 L191 812 L190 812 L48 0 L174 0 L256 468 L350 0 L352 0 L478 0 L620 810 L494 810 L414 356 L324 812 Z " />
<glyph glyph-name="O" unicode="O" horiz-adv-x="482" d="M397 810 L388 810 C278 810 173 721 154 612 L82 198 C62 89 136 0 245 0 L254 0 C364 0 468 89 487 198 L559 612 C578 721 506 810 397 810 L397 810 Z M361 198 C354 158 316 126 276 126 L266 126 C227 126 200 158 208 198 L280 612 C287 652 325 684 365 684 L374 684 C414 684 440 652 433 612 L361 198 L361 198 Z " />
<glyph glyph-name="P" unicode="P" horiz-adv-x="475" d="M389 811 L190 811 L190 810 L46 -1 L172 -1 L220 270 L293 270 C396 270 496 356 514 462 L541 619 C560 725 492 811 389 811 L389 811 Z M388 462 C382 425 349 396 316 396 L242 396 L293 685 L366 685 C400 685 422 655 415 619 L388 462 L388 462 Z " />
<glyph glyph-name="Q" unicode="Q" horiz-adv-x="499" d="M476 39 L437 92 C462 123 480 159 486 198 L559 612 C579 721 506 810 396 810 L387 810 C278 810 174 721 154 612 L81 198 C62 89 136 0 245 0 L254 0 C287 0 318 8 347 22 L387 -31 L476 39 L476 39 Z M267 126 C227 126 200 158 207 198 L280 612 C287 652 325 684 365 684 L374 684 C414 684 440 652 433 612 L360 198 C360 197 360 197 360 196 L329 238 L240 167 L270 126 L267 126 L267 126 Z " />
<glyph glyph-name="R" unicode="R" horiz-adv-x="478" d="M514 462 L541 618 C560 724 492 810 389 810 L190 810 L116 397 L94 270 L47 0 L173 0 L220 270 L284 270 C324 270 350 238 344 198 L310 0 L436 0 L470 198 C479 250 468 296 442 332 C479 366 505 412 514 462 L514 462 Z M293 684 L366 684 C400 684 422 654 415 618 L388 462 C382 426 349 397 316 397 L242 397 L293 684 L293 684 Z " />
<glyph glyph-name="S" unicode="S" horiz-adv-x="482" d="M367 456 C306 516 271 560 282 625 C289 658 326 684 368 684 C408 684 437 654 430 617 L556 617 C575 724 500 810 391 810 C280 810 176 730 157 626 C133 499 208 420 268 359 C330 298 367 257 354 188 C350 170 341 126 270 126 C229 126 200 156 208 193 L82 193 C62 86 138 0 248 0 C301 0 352 16 391 46 C424 68 464 112 480 185 C505 317 428 394 367 456 L367 456 Z " />
<glyph glyph-name="T" unicode="T" horiz-adv-x="456" d="M557 810 L190 810 L167 684 L288 684 L168 0 L294 0 L414 684 L534 684 L557 810 L557 810 Z " />
<glyph glyph-name="U" unicode="U" horiz-adv-x="486" d="M361 198 C354 158 316 126 276 126 L266 126 C227 126 200 158 208 198 L316 810 L190 810 L82 198 C62 89 136 0 245 0 L254 0 C364 0 468 89 487 198 L595 810 L469 810 L361 198 L361 198 Z " />
<glyph glyph-name="V" unicode="V" horiz-adv-x="486" d="M318 810 L190 810 L204 0 L313 0 L613 810 L484 810 L324 379 L318 810 Z " />
<glyph glyph-name="W" unicode="W" horiz-adv-x="728" d="M557 718 L446 718 L325 384 L318 810 L190 810 L204 0 L313 0 L433 330 L438 0 L547 0 L847 810 L719 810 L560 384 L557 718 Z " />
<glyph glyph-name="X" unicode="X" horiz-adv-x="510" d="M493 810 L365 571 L324 810 L190 810 L266 383 L62 0 L196 0 L299 196 L336 0 L469 0 L400 383 L628 810 L493 810 L493 810 Z " />
<glyph glyph-name="Y" unicode="Y" horiz-adv-x="494" d="M322 810 L190 810 L258 310 L204 0 L330 0 L384 312 L624 810 L493 810 L360 533 L322 810 Z " />
<glyph glyph-name="Z" unicode="Z" horiz-adv-x="499" d="M229 810 L206 684 L422 684 L47 0 L454 0 L475 126 L251 126 L628 811 L229 810 Z " />
<glyph glyph-name="bracketleft" unicode="&#x5b;" horiz-adv-x="347" d="M443 750 L464 877 L198 877 L34 -55 L300 -55 L323 71 L182 71 L302 750 L443 750 L443 750 Z " />
<glyph glyph-name="backslash" unicode="&#x5c;" horiz-adv-x="492" d="M187 814 L329 7 L452 7 L310 814 L187 814 L187 814 Z " />
<glyph glyph-name="bracketright" unicode="&#x5d;" horiz-adv-x="350" d="M176 750 L317 750 L197 71 L56 71 L34 -55 L300 -55 L464 877 L198 877 L176 750 L176 750 Z " />
<glyph glyph-name="asciicircum" unicode="&#x5e;" horiz-adv-x="563" d="M158 715 L221 619 L400 750 L535 619 L632 716 L427 913 L158 715 L158 715 Z " />
<glyph glyph-name="underscore" unicode="&#x5f;" horiz-adv-x="581" d="M25 -107 L499 -107 L521 19 L47 19 L25 -107 L25 -107 Z " />
<glyph glyph-name="grave" unicode="&#x60;" horiz-adv-x="199" d="M187 814 L202 700 L256 700 L257 814 L187 814 L187 814 Z " />
<glyph glyph-name="a" unicode="a" horiz-adv-x="451" d="M352 583 L346 583 C262 580 182 515 168 433 L294 433 C296 446 309 464 328 464 C347 464 353 446 350 426 L343 388 C328 400 316 407 288 407 C197 407 100 322 82 218 L77 191 C59 86 118 1 207 1 C228 1 260 7 280 31 L275 0 L401 0 L476 426 C491 511 436 580 352 583 L352 583 L352 583 Z M242 122 C212 122 193 154 199 191 L204 218 C210 255 241 287 271 287 C297 287 319 275 317 241 L304 167 C294 134 268 122 242 122 L242 122 Z " />
<glyph glyph-name="b" unicode="b" horiz-adv-x="455" d="M350 582 C332 582 290 572 270 542 L318 811 L192 811 L116 384 L83 198 L49 0 L175 0 L182 40 C187 13 230 0 248 0 C327 0 421 89 440 198 L473 384 C492 493 434 582 350 582 L350 582 Z M314 198 C308 161 278 127 250 127 C222 127 201 151 208 188 L242 384 C249 422 280 456 308 456 C336 456 354 422 347 384 L314 198 L314 198 Z " />
<glyph glyph-name="c" unicode="c" horiz-adv-x="426" d="M307 171 C294 145 272 126 251 126 C224 126 204 160 210 197 L243 384 C250 422 282 456 309 456 C330 456 346 436 349 409 L475 455 C463 529 407 582 331 582 C233 582 136 493 117 384 L84 197 C65 89 130 -1 228 -1 C304 -1 378 52 417 125 L307 171 L307 171 Z " />
<glyph glyph-name="d" unicode="d" horiz-adv-x="464" d="M378 542 C366 574 336 582 309 582 C231 582 135 493 116 384 L83 198 C64 89 132 0 207 0 C226 0 270 16 290 41 L282 -1 L408 -1 L552 811 L426 811 L380 552 L378 542 Z M311 178 C304 141 278 127 250 127 C222 127 203 161 209 198 L242 384 C249 422 280 456 308 456 C336 456 357 442 351 404 L311 178 L311 178 Z " />
<glyph glyph-name="e" unicode="e" horiz-adv-x="463" d="M334 582 C235 582 139 493 120 384 L87 198 C68 89 133 0 232 0 C330 0 424 89 443 198 L317 198 C311 160 281 126 254 126 C226 126 207 160 213 198 L221 241 L451 241 L476 384 C495 493 432 582 334 582 L334 582 Z M347 367 L243 367 L246 384 C253 422 284 456 312 456 C339 456 357 422 350 384 L347 367 L347 367 Z " />
<glyph glyph-name="f" unicode="f" horiz-adv-x="355" d="M384 811 C286 811 191 722 171 612 L166 583 L120 583 L98 457 L144 457 L64 0 L190 0 L270 457 L319 457 L341 583 L292 583 L297 612 C304 652 334 685 361 685 C373 685 382 679 387 673 L489 768 C462 796 425 811 384 811 L384 811 Z " />
<glyph glyph-name="g" unicode="g" horiz-adv-x="452" d="M375 554 C367 576 337 582 319 582 C230 582 135 494 115 385 L82 198 C63 89 123 0 215 0 C233 0 264 6 282 28 C273 -28 243 -62 216 -62 C204 -62 195 -55 190 -50 L89 -144 C115 -173 152 -188 193 -188 C291 -188 386 -100 405 10 L506 583 L380 583 L375 554 Z M249 126 C221 126 202 160 208 198 L241 385 C248 424 279 456 307 456 C334 456 354 434 347 395 L311 188 C304 150 276 126 249 126 L249 126 Z " />
<glyph glyph-name="h" unicode="h" horiz-adv-x="452" d="M329 582 C311 582 293 580 275 574 L316 809 L190 809 L48 0 L174 0 L241 384 C248 422 279 456 307 456 C334 456 352 422 345 384 L278 0 L404 0 L471 384 C490 493 427 582 329 582 L329 582 Z " />
<glyph glyph-name="i" unicode="i" horiz-adv-x="226" d="M49 0 L175 0 L277 583 L151 583 L49 0 L49 0 Z M156 610 L282 610 L305 740 L179 740 L156 610 L156 610 Z " />
<glyph glyph-name="j" unicode="j" horiz-adv-x="257" d="M171 610 L297 610 L320 740 L194 740 L171 610 L171 610 Z M69 29 C62 -10 30 -43 3 -43 C-8 -43 -17 -37 -22 -31 L-123 -126 C-97 -154 -59 -169 -18 -169 C79 -169 175 -80 195 29 L292 583 L166 583 L69 29 L69 29 Z " />
<glyph glyph-name="k" unicode="k" horiz-adv-x="496" d="M395 583 L244 420 L313 811 L187 811 L44 0 L170 0 L207 210 L253 259 L304 0 L438 0 L364 379 L553 583 L395 583 L395 583 Z " />
<glyph glyph-name="l" unicode="l" horiz-adv-x="234" d="M54 0 L180 0 L323 811 L197 811 L54 0 L54 0 Z " />
<glyph glyph-name="m" unicode="m" horiz-adv-x="682" d="M558 583 C515 583 471 565 435 535 C409 565 387 583 344 583 C323 583 284 570 268 544 L275 583 L149 583 L114 385 L47 1 L173 1 L240 385 C247 424 278 457 306 457 C333 457 351 424 344 385 L277 1 L403 1 L471 385 C478 424 508 457 536 457 C565 457 583 424 576 385 L509 1 L635 1 L702 385 C722 494 656 583 558 583 L558 583 Z " />
<glyph glyph-name="n" unicode="n" horiz-adv-x="461" d="M342 582 C324 582 293 572 275 554 L280 583 L154 583 L52 0 L178 0 L245 384 C252 422 283 456 310 456 C338 456 356 422 349 384 L282 0 L408 0 L475 384 C494 493 429 582 342 582 L342 582 Z " />
<glyph glyph-name="o" unicode="o" horiz-adv-x="458" d="M331 582 C233 582 136 493 117 384 L84 197 C65 89 130 -1 228 -1 C327 -1 422 89 441 197 L474 384 C493 493 430 582 331 582 L331 582 Z M315 197 C309 160 279 126 251 126 C224 126 204 160 210 197 L243 384 C250 422 282 456 309 456 C337 456 355 422 348 384 L315 197 L315 197 Z " />
<glyph glyph-name="p" unicode="p" horiz-adv-x="461" d="M351 582 C331 582 289 573 271 542 L278 583 L152 583 L20 -170 L146 -170 L182 38 C186 11 229 -1 249 -1 C335 -1 425 88 444 197 L477 384 C496 493 439 582 351 582 L351 582 Z M318 197 C311 158 281 125 254 125 C226 125 204 138 211 177 L251 404 C257 442 284 456 312 456 C339 456 358 422 351 384 L318 197 L318 197 Z " />
<glyph glyph-name="q" unicode="q" horiz-adv-x="463" d="M392 -23 C394 -12 499 583 499 583 L373 583 L366 542 C354 574 317 582 298 582 C220 582 123 493 104 384 L71 198 C52 89 117 0 206 0 C225 0 255 10 278 40 L264 -36 C252 -107 319 -169 395 -169 L417 -43 C409 -46 390 -37 392 -23 L392 -23 Z M299 178 C292 140 266 126 238 126 C210 126 191 160 197 198 L230 384 C237 422 268 456 296 456 C324 456 345 442 339 404 L299 178 L299 178 Z " />
<glyph glyph-name="r" unicode="r" horiz-adv-x="364" d="M336 582 C318 582 284 569 267 544 L274 583 L148 583 L113 384 L75 167 L46 0 L172 0 L201 167 L239 384 C246 422 277 456 304 456 C318 456 330 449 338 434 L453 508 C428 556 381 582 336 582 L336 582 Z " />
<glyph glyph-name="s" unicode="s" horiz-adv-x="413" d="M306 346 C258 385 238 407 244 434 C245 439 247 444 254 449 C264 455 274 457 279 456 C301 454 324 437 334 422 L442 508 C420 538 376 574 318 582 C277 587 227 572 191 545 C153 520 128 482 119 442 C96 342 163 284 211 242 C258 203 279 181 272 151 C266 127 239 126 231 126 L230 126 C209 126 186 148 182 158 L59 103 C76 47 142 1 206 0 C208 0 210 0 211 0 C298 0 374 59 395 140 C423 244 355 302 306 346 L306 346 Z " />
<glyph glyph-name="t" unicode="t" horiz-adv-x="346" d="M237 125 C227 127 220 154 227 198 L273 457 L362 457 L384 583 L295 583 L319 720 L193 720 L169 583 L120 583 L98 457 L147 457 L101 198 C82 86 136 0 222 0 C269 0 317 25 354 71 L260 139 C251 128 247 122 237 125 L237 125 Z " />
<glyph glyph-name="u" unicode="u" horiz-adv-x="451" d="M311 198 C305 160 275 126 248 126 C220 126 201 160 207 198 L275 583 L149 583 L81 198 C62 89 125 0 216 0 C234 0 269 19 283 38 L277 0 L403 0 L437 198 L505 583 L379 583 L311 198 Z " />
<glyph glyph-name="v" unicode="v" horiz-adv-x="420" d="M276 379 L272 583 L144 583 L155 0 L265 0 L480 583 L352 583 L276 379 L276 379 Z " />
<glyph glyph-name="w" unicode="w" horiz-adv-x="630" d="M508 422 L468 281 L477 422 L481 583 L353 583 L301 421 L260 282 L270 421 L274 583 L145 583 L163 0 L259 0 L333 212 L373 336 L369 212 L371 0 L467 0 L689 583 L560 583 L508 422 L508 422 Z " />
<glyph glyph-name="x" unicode="x" horiz-adv-x="504" d="M557 583 L416 583 L331 455 L289 583 L149 583 L235 311 L29 0 L169 0 L281 168 L335 0 L475 0 L376 311 L557 583 L557 583 Z " />
<glyph glyph-name="y" unicode="y" horiz-adv-x="452" d="M373 542 L312 197 C305 158 276 125 249 125 C221 125 201 158 208 197 L276 582 L150 582 L82 197 C63 88 127 -1 226 -1 C243 -1 260 2 277 7 C265 -22 240 -43 219 -43 C207 -43 198 -37 193 -31 L92 -126 C118 -154 156 -169 197 -169 C295 -169 389 -80 409 29 L438 197 L499 542 L506 583 L380 583 L373 542 L373 542 Z " />
<glyph glyph-name="z" unicode="z" horiz-adv-x="439" d="M516 583 L167 583 L145 457 L302 457 L25 0 L380 0 L402 126 L239 126 L516 583 L516 583 Z " />
<glyph glyph-name="braceleft" unicode="&#x7b;" horiz-adv-x="350" d="M158 336 C170 328 184 289 178 254 L161 160 C155 124 156 88 168 60 C185 23 216 2 253 2 L311 2 L332 128 L287 128 C286 134 284 145 287 160 L304 254 C316 320 295 392 259 431 C313 473 350 547 360 605 L374 683 C377 698 383 709 388 715 L437 715 L458 841 L398 841 C330 841 264 772 248 683 L234 605 C228 568 199 529 187 522 C150 499 125 466 120 430 C113 392 127 359 158 336 L158 336 Z " />
<glyph glyph-name="bar" unicode="&#x7c;" horiz-adv-x="193" d="M32 -67 L158 -67 L326 888 L200 888 L32 -67 L32 -67 Z " />
<glyph glyph-name="braceright" unicode="&#x7d;" horiz-adv-x="350" d="M350 521 C341 528 326 566 332 604 L347 682 C362 770 320 840 252 840 L192 840 L169 714 L218 714 C222 708 223 697 221 682 L206 604 C197 546 208 472 247 430 C196 391 151 319 140 253 L124 158 C121 144 115 133 112 127 L66 127 L44 1 L102 1 C139 1 178 22 205 59 C227 86 242 122 250 158 L266 253 C272 288 299 326 314 335 C353 358 379 391 385 428 C392 464 380 498 350 521 L350 521 Z " />
<glyph glyph-name="asciitilde" unicode="&#x7e;" horiz-adv-x="540" d="M277 436 C277 436 276 436 276 436 C224 436 170 409 107 355 L180 266 C226 305 247 310 254 310 C265 310 280 300 294 289 C318 271 349 250 396 250 C396 250 397 250 397 250 C448 251 502 275 564 329 L491 418 C445 380 426 376 419 376 C419 376 419 376 419 376 C408 376 395 385 380 396 C354 414 324 436 277 436 L277 436 Z " />
<glyph glyph-name="exclamdown" unicode="&#xa1;" horiz-adv-x="192" d="M245 424 L119 424 L2 -235 L128 -235 L245 424 L245 424 Z M272 582 L148 582 L131 484 L256 484 L272 582 L272 582 Z " />
<glyph glyph-name="cent" unicode="&#xa2;" horiz-adv-x="418" d="M427 599 C433 594 436 589 437 584 L563 630 C557 658 542 682 520 700 C494 721 462 734 426 739 L434 785 L331 785 L323 737 C289 731 258 718 229 700 C185 670 155 626 146 581 L90 263 C82 217 97 174 132 144 C154 126 180 113 211 107 L203 59 L306 59 L314 104 C383 113 446 149 482 203 L378 258 C373 250 359 239 337 233 L403 611 C413 608 421 604 427 599 L427 599 Z M216 263 L272 581 C274 587 283 598 299 605 L235 239 C222 246 215 256 216 263 L216 263 Z " />
<glyph glyph-name="sterling" unicode="&#xa3;" horiz-adv-x="524" d="M382 170 C380 166 377 151 368 140 C362 131 356 126 342 126 C307 126 262 126 218 125 C228 146 236 170 240 196 L257 287 L361 287 L383 413 L278 413 L320 647 C326 685 358 720 385 720 C397 720 406 714 412 708 L511 802 C486 830 449 846 408 846 C310 846 214 757 194 647 L152 413 L107 413 L85 287 L131 287 L114 196 C106 149 78 125 70 122 C68 122 68 122 68 122 L48 -4 C49 -4 50 -4 52 -4 C74 -2 234 0 320 0 C436 0 494 102 508 170 L382 170 L382 170 L382 170 Z " />
<glyph glyph-name="currency" unicode="&#xa4;" horiz-adv-x="476" d="M439 584 L401 528 C383 538 362 544 341 544 C320 544 298 538 277 528 L258 584 L137 526 L173 422 C160 398 150 372 145 346 L120 203 C115 175 116 150 120 126 L48 22 L149 -36 L187 19 C205 10 226 5 246 5 C268 5 290 10 311 19 L330 -36 L452 22 L416 126 C430 150 437 175 442 203 L467 346 C472 372 473 398 469 422 L541 526 L439 584 L439 584 Z M269 131 C258 131 240 158 247 203 L272 346 C281 389 308 418 319 418 C331 418 349 389 341 346 L316 203 C308 158 281 131 269 131 L269 131 Z " />
<glyph glyph-name="yen" unicode="&#xa5;" horiz-adv-x="511" d="M630 809 L498 809 L368 539 L330 809 L198 809 L250 445 L212 445 L190 319 L265 319 L256 265 L180 265 L158 139 L234 139 L208 -11 L334 -11 L360 139 L434 139 L456 265 L382 265 L390 310 L394 319 L466 319 L488 445 L455 445 L630 809 L630 809 Z " />
<glyph glyph-name="brokenbar" unicode="&#xa6;" horiz-adv-x="215" d="M126 464 L252 464 L307 779 L181 779 L126 464 L126 464 Z M59 83 L185 83 L240 397 L114 397 L59 83 L59 83 Z " />
<glyph glyph-name="section" unicode="&#xa7;" horiz-adv-x="622" d="M228 149 C290 92 326 54 314 -7 C311 -22 305 -61 233 -61 C193 -61 164 -35 170 -2 L44 -2 C26 -104 101 -187 210 -187 C264 -187 312 -173 352 -146 C398 -114 430 -67 440 -11 C445 14 446 37 444 58 C481 62 516 76 545 96 C592 128 622 175 635 232 C659 359 581 431 517 490 C457 546 421 583 432 642 C437 671 474 694 515 694 C556 694 584 667 578 635 L706 635 C724 737 648 820 538 820 C427 820 324 742 306 643 C301 618 301 595 304 574 C210 557 131 487 115 402 C90 278 168 206 228 149 L228 149 Z M323 451 C348 451 370 442 379 432 L380 432 C394 418 408 404 422 391 C484 334 521 296 508 235 C505 221 497 181 425 181 C404 181 386 187 374 200 L374 199 C358 217 342 233 325 247 C265 304 229 341 240 400 C245 428 283 451 323 451 L323 451 Z " />
<glyph glyph-name="dieresis" unicode="&#xa8;" horiz-adv-x="300" d="M295 732 L372 732 L386 810 L310 810 L295 732 L295 732 Z M173 732 L250 732 L264 810 L187 810 L173 732 L173 732 Z " />
<glyph glyph-name="copyright" unicode="&#xa9;" horiz-adv-x="665" d="M727 305 L773 564 C805 744 690 892 516 892 C343 892 175 744 143 564 L97 305 C66 124 181 -24 354 -24 C528 -24 696 124 727 305 L727 305 Z M223 305 L269 564 C289 674 390 766 493 766 C598 766 667 674 647 564 L601 305 C582 193 480 102 376 102 C272 102 204 193 223 305 L223 305 Z M536 202 L448 277 C436 264 422 256 409 256 C382 256 365 289 371 326 L409 541 C415 578 444 612 472 612 C490 612 500 596 504 590 L619 664 C594 710 548 738 494 738 C397 738 301 649 282 541 L244 326 C226 218 290 130 388 130 C440 130 494 156 536 202 L536 202 Z " />
<glyph glyph-name="ordfeminine" unicode="&#xaa;" horiz-adv-x="280" d="M271 790 L268 790 C221 788 176 752 168 706 L239 706 C240 713 247 723 258 723 C268 723 272 713 270 702 L266 681 C258 687 251 691 235 691 C184 691 130 644 120 586 L117 571 C107 512 140 465 190 465 C202 465 220 468 231 481 L228 464 L299 464 L341 702 C349 749 318 788 271 790 L271 790 L271 790 Z M210 532 C193 532 182 550 185 571 L188 586 C192 606 209 624 226 624 C240 624 253 618 252 599 L244 557 C239 539 224 532 210 532 L210 532 Z " />
<glyph glyph-name="guillemotleft" unicode="&#xab;" horiz-adv-x="473" d="M296 624 L114 396 L216 164 L334 229 L263 396 L391 557 L296 624 Z M512 624 L330 396 L432 164 L550 229 L479 396 L607 557 L512 624 Z " />
<glyph glyph-name="logicalnot" unicode="&#xac;" horiz-adv-x="658" d="M526 193 L652 193 L692 427 L119 427 L97 301 L545 301 L526 193 L526 193 Z " />
<glyph glyph-name="uni00AD" unicode="&#xad;" horiz-adv-x="403" d="M106 348 L409 348 L431 474 L127 474 L106 348 Z " />
<glyph glyph-name="registered" unicode="&#xae;" horiz-adv-x="598" d="M570 558 C583 629 538 688 468 688 L334 688 L332 686 L311 562 L294 466 L271 338 L251 222 L377 222 L397 338 L397 338 C401 337 406 329 403 316 L388 228 L515 228 L530 316 C535 346 532 373 522 397 C539 418 551 443 554 469 L570 558 L570 558 Z M437 562 L444 562 C445 560 445 559 444 558 L428 469 C428 467 428 466 427 466 L420 466 L437 562 L437 562 Z M540 848 L433 848 C300 848 176 750 155 628 L94 282 C72 160 161 61 294 61 L401 61 C534 61 660 160 682 282 L733 577 C755 701 673 848 540 848 L540 848 Z M554 282 C545 230 486 187 424 187 L317 187 C254 187 210 230 220 282 L281 628 C289 679 349 722 412 722 L518 722 C574 722 617 637 606 577 L554 282 L554 282 Z " />
<glyph glyph-name="macron" unicode="&#xaf;" horiz-adv-x="407" d="M164 684 L468 684 L491 810 L187 810 L164 684 Z " />
<glyph glyph-name="degree" unicode="&#xb0;" horiz-adv-x="271" d="M376 727 C386 784 348 829 292 829 C235 829 182 784 172 727 C162 670 199 624 256 624 C312 624 366 670 376 727 L376 727 Z M272 715 C266 715 262 720 263 727 C264 733 270 738 276 738 C282 738 286 733 284 727 C283 720 278 715 272 715 L272 715 Z " />
<glyph glyph-name="plusminus" unicode="&#xb1;" horiz-adv-x="422" d="M60 89 L384 89 L406 215 L82 215 L60 89 L60 89 Z M367 560 L241 560 L223 461 L125 461 L103 335 L202 335 L184 236 L310 236 L328 335 L427 335 L449 461 L349 461 L367 560 L367 560 Z " />
<glyph glyph-name="twosuperior" unicode="&#xb2;" horiz-adv-x="290" d="M253 542 C298 579 349 621 362 698 C372 761 335 810 277 810 C221 810 165 757 153 692 L217 692 C223 721 245 746 266 746 C288 746 302 725 297 698 C289 648 258 622 217 589 C173 553 120 509 107 428 L102 397 L293 397 L304 461 L181 461 C194 494 222 516 253 542 L253 542 Z " />
<glyph glyph-name="threesuperior" unicode="&#xb3;" horiz-adv-x="288" d="M287 694 L407 809 L195 809 L183 745 L254 745 L146 641 L217 641 C252 641 291 630 276 547 C266 491 241 461 221 461 C199 461 186 485 190 514 L126 514 C115 449 152 396 209 396 C240 396 271 412 295 442 C317 468 333 505 340 547 C349 599 343 639 322 666 C313 678 300 687 287 694 L287 694 Z " />
<glyph glyph-name="acute" unicode="&#xb4;" horiz-adv-x="200" d="M167 700 L221 700 L276 814 L206 814 L167 700 L167 700 Z " />
<glyph glyph-name="&amp;#xb5;" unicode="&#xb5;" horiz-adv-x="422" d="M169 -6 C185 -11 200 -14 218 -14 C244 -14 268 -8 292 1 L401 1 L432 184 L497 545 L503 584 L377 584 L371 545 L306 184 C300 145 270 112 241 112 C214 112 196 145 202 184 L272 584 L272 584 L146 584 L146 584 L76 184 L22 -125 L148 -125 L169 -6 L169 -6 Z " />
<glyph glyph-name="&amp;#x3bc;" unicode="&#x3bc;" horiz-adv-x="422" d="M169 -6 C185 -11 200 -14 218 -14 C244 -14 268 -8 292 1 L401 1 L432 184 L497 545 L503 584 L377 584 L371 545 L306 184 C300 145 270 112 241 112 C214 112 196 145 202 184 L272 584 L272 584 L146 584 L146 584 L76 184 L22 -125 L148 -125 L169 -6 L169 -6 Z " />
<glyph glyph-name="paragraph" unicode="&#xb6;" horiz-adv-x="586" d="M282 288 L355 288 L305 2 L431 2 L481 288 L503 414 L557 715 L588 715 L462 2 L588 2 L736 841 L578 841 L578 844 L379 844 C276 844 178 757 158 652 L128 480 C110 374 179 288 282 288 L282 288 Z " />
<glyph glyph-name="periodcentered" unicode="&#xb7;" horiz-adv-x="200" d="M182 480 C152 480 125 456 119 426 C114 396 133 372 163 372 C193 372 222 396 227 426 C233 456 212 480 182 480 L182 480 Z " />
<glyph glyph-name="cedilla" unicode="&#xb8;" horiz-adv-x="236" d="M179 52 L53 52 C46 8 56 -20 66 -41 C64 -41 61 -41 58 -41 L35 -167 C122 -167 193 -120 205 -52 C211 -14 196 10 186 24 C179 37 176 41 179 52 L179 52 Z " />
<glyph glyph-name="onesuperior" unicode="&#xb9;" horiz-adv-x="215" d="M247 810 L222 810 L168 763 L205 718 L236 744 L175 397 L239 397 L312 808 L313 810 L312 810 L247 810 L247 810 Z " />
<glyph glyph-name="ordmasculine" unicode="&#xba;" horiz-adv-x="421" d="M334 635 C235 635 140 546 121 437 L106 350 C86 241 150 152 248 152 C347 152 443 241 462 350 L478 437 C497 546 432 635 334 635 L334 635 Z M336 350 C329 312 299 278 270 278 C242 278 224 312 232 350 L247 437 C253 475 283 509 311 509 C340 509 358 475 352 437 L336 350 L336 350 Z " />
<glyph glyph-name="guillemotright" unicode="&#xbb;" horiz-adv-x="479" d="M358 557 L431 396 L300 229 L396 164 L580 396 L476 624 L358 557 Z M142 557 L215 396 L84 229 L180 164 L364 396 L260 624 L142 557 Z " />
<glyph glyph-name="onequarter" unicode="&#xbc;" horiz-adv-x="586" d="M252 810 L227 810 L173 763 L210 718 L241 744 L180 397 L244 397 L317 808 L318 810 L317 810 L252 810 L252 810 Z M625 814 L503 814 L77 7 L200 7 L625 814 Z M527 185 L564 396 L498 396 L319 124 L454 124 L433 0 L495 0 L516 124 L551 124 L562 185 L527 185 L527 185 Z M465 185 L429 185 L478 261 L465 185 L465 185 Z " />
<glyph glyph-name="onehalf" unicode="&#xbd;" horiz-adv-x="552" d="M247 810 L222 810 L168 763 L205 718 L236 743 L175 395 L239 395 L312 808 L313 810 L312 810 L247 810 L247 810 Z M612 814 L490 814 L64 7 L187 7 L612 814 Z M469 138 C513 174 563 214 574 289 C584 349 549 396 493 396 C438 396 384 346 374 283 L436 283 C440 311 462 334 483 334 C504 334 517 314 513 288 C505 240 474 215 436 184 C393 149 342 107 328 29 L325 -1 L508 -1 L519 61 L400 61 C413 92 439 113 469 138 L469 138 Z " />
<glyph glyph-name="threequarters" unicode="&#xbe;" horiz-adv-x="583" d="M287 694 L407 809 L195 809 L183 745 L254 745 L146 641 L217 641 C252 641 291 630 276 547 C266 491 241 461 221 461 C199 461 186 485 190 514 L126 514 C115 449 152 396 209 396 C240 396 271 412 295 442 C317 468 333 505 340 547 C349 599 343 639 322 666 C313 678 300 687 287 694 L287 694 Z M653 814 L531 814 L105 7 L228 7 L653 814 Z M527 186 L564 398 L498 398 L319 124 L454 124 L433 0 L495 0 L516 124 L552 124 L562 186 L527 186 L527 186 Z M465 186 L428 186 L478 262 L465 186 L465 186 Z " />
<glyph glyph-name="questiondown" unicode="&#xbf;" horiz-adv-x="452" d="M204 -252 C316 -252 426 -149 448 -22 L322 -22 C312 -78 269 -126 227 -126 C184 -126 156 -85 166 -32 C182 68 221 103 272 152 C331 206 403 274 428 430 L301 426 C286 322 244 284 193 236 C136 184 65 116 40 -34 C19 -156 91 -252 204 -252 L204 -252 Z M454 582 L329 582 L312 484 L437 484 L454 582 L454 582 Z " />
<glyph glyph-name="Agrave" unicode="&#xc0;" horiz-adv-x="488" d="M331 812 L28 0 L156 0 L233 204 L340 204 L346 0 L474 0 L460 811 L331 812 Z M281 330 L336 476 L339 330 L281 330 L281 330 Z M372 1038 L387 924 L441 924 L442 1038 L372 1038 L372 1038 Z " />
<glyph glyph-name="Aacute" unicode="&#xc1;" horiz-adv-x="488" d="M331 812 L28 0 L156 0 L233 204 L340 204 L346 0 L474 0 L460 811 L331 812 Z M281 330 L336 476 L339 330 L281 330 L281 330 Z M352 924 L406 924 L461 1038 L391 1038 L352 924 L352 924 Z " />
<glyph glyph-name="Acircumflex" unicode="&#xc2;" horiz-adv-x="488" d="M331 812 L28 0 L156 0 L233 204 L340 204 L346 0 L474 0 L460 811 L331 812 Z M281 330 L336 476 L339 330 L281 330 L281 330 Z M460 772 L530 887 L385 955 L219 889 L248 774 L361 817 L460 772 Z " />
<glyph glyph-name="Atilde" unicode="&#xc3;" horiz-adv-x="488" d="M331 812 L28 0 L156 0 L233 204 L340 204 L346 0 L474 0 L460 811 L331 812 Z M281 330 L336 476 L339 330 L281 330 L281 330 Z M340 944 C340 944 340 944 340 944 C351 944 364 934 378 924 C405 907 435 884 484 885 C536 885 588 910 652 966 L580 1054 C533 1015 512 1011 504 1011 C504 1011 504 1011 504 1011 C494 1011 480 1020 465 1030 C441 1048 410 1070 363 1070 C363 1070 363 1070 362 1070 C311 1070 258 1045 195 991 L268 902 C314 939 333 944 340 944 L340 944 Z " />
<glyph glyph-name="Adieresis" unicode="&#xc4;" horiz-adv-x="488" d="M331 812 L28 0 L156 0 L233 204 L340 204 L346 0 L474 0 L460 811 L331 812 Z M281 330 L336 476 L339 330 L281 330 L281 330 Z M434 872 L511 872 L525 950 L449 950 L434 872 L434 872 Z M312 872 L389 872 L403 950 L326 950 L312 872 L312 872 Z " />
<glyph glyph-name="Aring" unicode="&#xc5;" horiz-adv-x="488" d="M331 812 L28 0 L156 0 L233 204 L340 204 L346 0 L474 0 L460 811 L331 812 Z M281 330 L336 476 L339 330 L281 330 L281 330 Z M519 929 C529 986 491 1031 435 1031 C378 1031 325 986 315 929 C305 872 342 826 399 826 C455 826 509 872 519 929 L519 929 Z M415 917 C409 917 405 922 406 929 C407 935 413 940 419 940 C425 940 429 935 427 929 C426 922 421 917 415 917 L415 917 Z " />
<glyph glyph-name="AE" unicode="&#xc6;" horiz-adv-x="707" d="M796 683 L817 809 L617 809 L498 809 L485 809 L484 802 L41 0 L169 0 L282 204 L389 204 L373 101 L356 0 L359 0 L487 0 L676 0 L697 126 L506 126 L524 239 L536 307 L637 307 L659 433 L558 433 L602 683 L796 683 L796 683 Z M352 330 L433 476 L409 330 L352 330 L352 330 Z " />
<glyph glyph-name="Ccedilla" unicode="&#xc7;" horiz-adv-x="467" d="M346 683 L355 683 C375 683 391 676 402 662 C409 654 414 643 414 631 L541 666 C539 698 527 728 507 752 C475 790 430 810 378 810 L369 810 C259 810 154 721 135 612 L63 198 C43 89 117 0 226 0 L235 0 C318 0 401 53 444 131 L333 174 C318 145 287 127 257 127 L247 127 C208 127 181 158 189 198 L261 612 C268 652 306 683 346 683 L346 683 Z M300 22 L174 22 C167 -22 177 -50 187 -71 C185 -71 182 -71 179 -71 L156 -197 C243 -197 314 -150 326 -82 C332 -44 317 -20 307 -6 C300 7 297 11 300 22 L300 22 Z " />
<glyph glyph-name="Egrave" unicode="&#xc8;" horiz-adv-x="389" d="M28 0 L347 0 L369 126 L175 126 L208 307 L329 307 L350 433 L229 433 L274 685 L467 685 L490 811 L171 811 L28 0 L28 0 Z M321 1038 L336 924 L390 924 L391 1038 L321 1038 L321 1038 Z " />
<glyph glyph-name="Eacute" unicode="&#xc9;" horiz-adv-x="389" d="M28 0 L347 0 L369 126 L175 126 L208 307 L329 307 L350 433 L229 433 L274 685 L467 685 L490 811 L171 811 L28 0 L28 0 Z M301 924 L355 924 L410 1038 L340 1038 L301 924 L301 924 Z " />
<glyph glyph-name="Ecircumflex" unicode="&#xca;" horiz-adv-x="389" d="M28 0 L347 0 L369 126 L175 126 L208 307 L329 307 L350 433 L229 433 L274 685 L467 685 L490 811 L171 811 L28 0 L28 0 Z M427 853 L497 968 L352 1036 L186 970 L215 855 L328 898 L427 853 Z " />
<glyph glyph-name="Edieresis" unicode="&#xcb;" horiz-adv-x="389" d="M28 0 L347 0 L369 126 L175 126 L208 307 L329 307 L350 433 L229 433 L274 685 L467 685 L490 811 L171 811 L28 0 L28 0 Z M368 877 L445 877 L459 955 L383 955 L368 877 L368 877 Z M246 877 L323 877 L337 955 L260 955 L246 877 L246 877 Z " />
<glyph glyph-name="Igrave" unicode="&#xcc;" horiz-adv-x="199" d="M28 0 L154 0 L297 811 L171 811 L28 0 L28 0 Z M227 1038 L242 924 L296 924 L297 1038 L227 1038 L227 1038 Z " />
<glyph glyph-name="Iacute" unicode="&#xcd;" horiz-adv-x="199" d="M28 0 L154 0 L297 811 L171 811 L28 0 L28 0 Z M207 924 L261 924 L316 1038 L246 1038 L207 924 L207 924 Z " />
<glyph glyph-name="Icircumflex" unicode="&#xce;" horiz-adv-x="199" d="M28 0 L154 0 L297 811 L171 811 L28 0 L28 0 Z M361 853 L431 968 L286 1036 L120 970 L149 855 L262 898 L361 853 Z " />
<glyph glyph-name="Idieresis" unicode="&#xcf;" horiz-adv-x="199" d="M28 0 L154 0 L297 811 L171 811 L28 0 L28 0 Z M299 956 L376 956 L390 1034 L314 1034 L299 956 L299 956 Z M177 956 L254 956 L268 1034 L191 1034 L177 956 L177 956 Z " />
<glyph glyph-name="Eth" unicode="&#xd0;" horiz-adv-x="478" d="M386 811 L190 811 L47 0 L58 0 L56 -1 L245 -1 C349 -1 449 85 468 192 L544 620 C562 726 492 811 386 811 L386 811 Z M342 192 C335 155 302 126 268 126 L194 126 L293 684 L364 684 C400 684 424 656 418 620 L342 192 L342 192 Z M55 348 L283 348 L299 474 L71 474 L55 348 L55 348 Z " />
<glyph glyph-name="Ntilde" unicode="&#xd1;" horiz-adv-x="484" d="M305 812 L172 812 L171 812 L29 0 L155 0 L237 468 L331 0 L333 0 L459 0 L601 810 L475 810 L395 356 L305 812 Z M337 944 C337 944 337 944 337 944 C348 944 361 934 375 924 C402 907 432 884 481 885 C533 885 585 910 649 966 L577 1054 C530 1015 509 1011 501 1011 C501 1011 501 1011 501 1011 C491 1011 477 1020 462 1030 C438 1048 407 1070 360 1070 C360 1070 360 1070 359 1070 C308 1070 255 1045 192 991 L265 902 C311 939 330 944 337 944 L337 944 Z " />
<glyph glyph-name="Ograve" unicode="&#xd2;" horiz-adv-x="468" d="M378 810 L369 810 C259 810 154 721 135 612 L63 198 C43 89 117 0 226 0 L235 0 C345 0 449 89 468 198 L540 612 C559 721 487 810 378 810 L378 810 Z M342 198 C335 158 297 126 257 126 L247 126 C208 126 181 158 189 198 L261 612 C268 652 306 684 346 684 L355 684 C395 684 421 652 414 612 L342 198 L342 198 Z M361 1038 L376 924 L430 924 L431 1038 L361 1038 L361 1038 Z " />
<glyph glyph-name="Oacute" unicode="&#xd3;" horiz-adv-x="468" d="M378 810 L369 810 C259 810 154 721 135 612 L63 198 C43 89 117 0 226 0 L235 0 C345 0 449 89 468 198 L540 612 C559 721 487 810 378 810 L378 810 Z M342 198 C335 158 297 126 257 126 L247 126 C208 126 181 158 189 198 L261 612 C268 652 306 684 346 684 L355 684 C395 684 421 652 414 612 L342 198 L342 198 Z M337 904 L391 904 L446 1018 L376 1018 L337 904 L337 904 Z " />
<glyph glyph-name="Ocircumflex" unicode="&#xd4;" horiz-adv-x="468" d="M378 810 L369 810 C259 810 154 721 135 612 L63 198 C43 89 117 0 226 0 L235 0 C345 0 449 89 468 198 L540 612 C559 721 487 810 378 810 L378 810 Z M342 198 C335 158 297 126 257 126 L247 126 C208 126 181 158 189 198 L261 612 C268 652 306 684 346 684 L355 684 C395 684 421 652 414 612 L342 198 L342 198 Z M465 853 L535 968 L390 1036 L224 970 L253 855 L366 898 L465 853 Z " />
<glyph glyph-name="Otilde" unicode="&#xd5;" horiz-adv-x="468" d="M378 810 L369 810 C259 810 154 721 135 612 L63 198 C43 89 117 0 226 0 L235 0 C345 0 449 89 468 198 L540 612 C559 721 487 810 378 810 L378 810 Z M342 198 C335 158 297 126 257 126 L247 126 C208 126 181 158 189 198 L261 612 C268 652 306 684 346 684 L355 684 C395 684 421 652 414 612 L342 198 L342 198 Z M330 944 C330 944 330 944 330 944 C341 944 354 934 368 924 C395 907 425 884 474 885 C526 885 578 910 642 966 L570 1054 C523 1015 502 1011 494 1011 C494 1011 494 1011 494 1011 C484 1011 470 1020 455 1030 C431 1048 400 1070 353 1070 C353 1070 353 1070 352 1070 C301 1070 248 1045 185 991 L258 902 C304 939 323 944 330 944 L330 944 Z " />
<glyph glyph-name="Odieresis" unicode="&#xd6;" horiz-adv-x="468" d="M378 810 L369 810 C259 810 154 721 135 612 L63 198 C43 89 117 0 226 0 L235 0 C345 0 449 89 468 198 L540 612 C559 721 487 810 378 810 L378 810 Z M342 198 C335 158 297 126 257 126 L247 126 C208 126 181 158 189 198 L261 612 C268 652 306 684 346 684 L355 684 C395 684 421 652 414 612 L342 198 L342 198 Z M427 877 L504 877 L518 955 L442 955 L427 877 L427 877 Z M305 877 L382 877 L396 955 L319 955 L305 877 L305 877 Z " />
<glyph glyph-name="multiply" unicode="&#xd7;" horiz-adv-x="395" d="M360 494 L277 424 L220 494 L115 404 L173 335 L90 265 L163 176 L246 246 L304 176 L408 265 L352 335 L433 404 L360 494 L360 494 Z " />
<glyph glyph-name="Oslash" unicode="&#xd8;" horiz-adv-x="482" d="M49 -31 L162 -68 L199 6 C214 2 227 1 242 1 L252 1 C360 1 466 90 485 199 L563 642 C568 673 565 703 557 730 L616 848 L502 887 L472 826 C450 835 426 840 400 840 L390 840 C281 840 176 751 157 642 L79 199 C71 152 79 108 101 74 L49 -31 L49 -31 Z M358 199 C350 160 313 127 274 127 L264 127 C263 127 260 127 259 127 L392 397 L358 199 L358 199 Z M283 642 C290 682 328 714 367 714 L377 714 C390 714 402 710 412 704 L228 332 L283 642 L283 642 Z " />
<glyph glyph-name="Ugrave" unicode="&#xd9;" horiz-adv-x="476" d="M342 198 C335 158 297 126 257 126 L247 126 C208 126 181 158 189 198 L297 810 L171 810 L63 198 C43 89 117 0 226 0 L235 0 C345 0 449 89 468 198 L576 810 L450 810 L342 198 L342 198 Z M365 1038 L380 924 L434 924 L435 1038 L365 1038 L365 1038 Z " />
<glyph glyph-name="Uacute" unicode="&#xda;" horiz-adv-x="476" d="M342 198 C335 158 297 126 257 126 L247 126 C208 126 181 158 189 198 L297 810 L171 810 L63 198 C43 89 117 0 226 0 L235 0 C345 0 449 89 468 198 L576 810 L450 810 L342 198 L342 198 Z M345 924 L399 924 L454 1038 L384 1038 L345 924 L345 924 Z " />
<glyph glyph-name="Ucircumflex" unicode="&#xdb;" horiz-adv-x="476" d="M342 198 C335 158 297 126 257 126 L247 126 C208 126 181 158 189 198 L297 810 L171 810 L63 198 C43 89 117 0 226 0 L235 0 C345 0 449 89 468 198 L576 810 L450 810 L342 198 L342 198 Z M469 853 L539 968 L394 1036 L228 970 L257 855 L370 898 L469 853 Z " />
<glyph glyph-name="Udieresis" unicode="&#xdc;" horiz-adv-x="476" d="M342 198 C335 158 297 126 257 126 L247 126 C208 126 181 158 189 198 L297 810 L171 810 L63 198 C43 89 117 0 226 0 L235 0 C345 0 449 89 468 198 L576 810 L450 810 L342 198 L342 198 Z M409 956 L486 956 L500 1034 L424 1034 L409 956 L409 956 Z M287 956 L364 956 L378 1034 L301 1034 L287 956 L287 956 Z " />
<glyph glyph-name="Yacute" unicode="&#xdd;" horiz-adv-x="496" d="M303 810 L171 810 L239 310 L185 0 L311 0 L365 312 L605 810 L474 810 L341 533 L303 810 Z M354 924 L408 924 L463 1038 L393 1038 L354 924 L354 924 Z " />
<glyph glyph-name="Thorn" unicode="&#xde;" horiz-adv-x="420" d="M360 750 C341 750 322 746 302 740 L316 811 L190 811 L46 -2 L172 -2 L203 176 C220 169 238 167 257 167 C355 167 451 256 470 365 L504 552 C523 661 458 750 360 750 L360 750 Z M344 365 C337 326 307 293 280 293 C252 293 233 326 240 365 L274 552 C280 590 310 624 337 624 C365 624 384 590 378 552 L344 365 Z " />
<glyph glyph-name="germandbls" unicode="&#xdf;" horiz-adv-x="498" d="M248 128 C239 128 232 130 223 130 L200 4 C205 4 212 2 221 2 C266 0 342 -4 412 52 C467 97 502 167 520 266 C539 379 522 462 470 511 C498 539 522 575 536 620 C563 708 548 784 494 826 C443 868 362 871 288 836 C222 804 175 744 163 676 L44 1 L170 1 L289 676 C293 697 305 714 328 725 C355 738 386 737 404 722 C428 703 422 665 414 636 C395 578 338 560 313 556 C305 554 299 553 296 553 L294 428 C300 430 305 430 311 431 C325 432 354 431 373 413 C400 390 406 338 394 266 C383 206 364 162 341 144 C319 126 288 126 248 128 L248 128 Z " />
<glyph glyph-name="agrave" unicode="&#xe0;" horiz-adv-x="430" d="M336 583 L330 583 C246 580 166 515 152 433 L278 433 C280 446 293 464 312 464 C331 464 337 446 334 426 L327 388 C312 400 300 407 272 407 C181 407 84 322 66 218 L61 191 C43 86 102 1 191 1 C212 1 244 7 264 31 L259 0 L385 0 L460 426 C475 511 420 580 336 583 L336 583 L336 583 Z M226 122 C196 122 177 154 183 191 L188 218 C194 255 225 287 255 287 C281 287 303 275 301 241 L288 167 C278 134 252 122 226 122 L226 122 Z M303 814 L318 700 L372 700 L373 814 L303 814 L303 814 Z " />
<glyph glyph-name="aacute" unicode="&#xe1;" horiz-adv-x="430" d="M336 583 L330 583 C246 580 166 515 152 433 L278 433 C280 446 293 464 312 464 C331 464 337 446 334 426 L327 388 C312 400 300 407 272 407 C181 407 84 322 66 218 L61 191 C43 86 102 1 191 1 C212 1 244 7 264 31 L259 0 L385 0 L460 426 C475 511 420 580 336 583 L336 583 L336 583 Z M226 122 C196 122 177 154 183 191 L188 218 C194 255 225 287 255 287 C281 287 303 275 301 241 L288 167 C278 134 252 122 226 122 L226 122 Z M333 700 L387 700 L442 814 L372 814 L333 700 L333 700 Z " />
<glyph glyph-name="acircumflex" unicode="&#xe2;" horiz-adv-x="430" d="M336 583 L330 583 C246 580 166 515 152 433 L278 433 C280 446 293 464 312 464 C331 464 337 446 334 426 L327 388 C312 400 300 407 272 407 C181 407 84 322 66 218 L61 191 C43 86 102 1 191 1 C212 1 244 7 264 31 L259 0 L385 0 L460 426 C475 511 420 580 336 583 L336 583 L336 583 Z M226 122 C196 122 177 154 183 191 L188 218 C194 255 225 287 255 287 C281 287 303 275 301 241 L288 167 C278 134 252 122 226 122 L226 122 Z M408 629 L478 744 L333 812 L167 746 L196 631 L309 674 L408 629 Z " />
<glyph glyph-name="atilde" unicode="&#xe3;" horiz-adv-x="430" d="M336 583 L330 583 C246 580 166 515 152 433 L278 433 C280 446 293 464 312 464 C331 464 337 446 334 426 L327 388 C312 400 300 407 272 407 C181 407 84 322 66 218 L61 191 C43 86 102 1 191 1 C212 1 244 7 264 31 L259 0 L385 0 L460 426 C475 511 420 580 336 583 L336 583 L336 583 Z M226 122 C196 122 177 154 183 191 L188 218 C194 255 225 287 255 287 C281 287 303 275 301 241 L288 167 C278 134 252 122 226 122 L226 122 Z M295 701 C295 701 295 701 295 701 C303 701 314 694 324 686 C345 673 369 655 407 656 C447 656 488 675 538 719 L482 787 C445 757 429 753 422 753 C422 753 422 753 422 753 C415 753 404 760 392 768 C373 782 349 799 313 799 C313 799 313 799 312 799 C272 799 231 780 182 738 L239 669 C275 698 289 701 295 701 L295 701 Z " />
<glyph glyph-name="adieresis" unicode="&#xe4;" horiz-adv-x="430" d="M336 583 L330 583 C246 580 166 515 152 433 L278 433 C280 446 293 464 312 464 C331 464 337 446 334 426 L327 388 C312 400 300 407 272 407 C181 407 84 322 66 218 L61 191 C43 86 102 1 191 1 C212 1 244 7 264 31 L259 0 L385 0 L460 426 C475 511 420 580 336 583 L336 583 L336 583 Z M226 122 C196 122 177 154 183 191 L188 218 C194 255 225 287 255 287 C281 287 303 275 301 241 L288 167 C278 134 252 122 226 122 L226 122 Z M348 732 L425 732 L439 810 L363 810 L348 732 L348 732 Z M226 732 L303 732 L317 810 L240 810 L226 732 L226 732 Z " />
<glyph glyph-name="aring" unicode="&#xe5;" horiz-adv-x="430" d="M336 583 L330 583 C246 580 166 515 152 433 L278 433 C280 446 293 464 312 464 C331 464 337 446 334 426 L327 388 C312 400 300 407 272 407 C181 407 84 322 66 218 L61 191 C43 86 102 1 191 1 C212 1 244 7 264 31 L259 0 L385 0 L460 426 C475 511 420 580 336 583 L336 583 L336 583 Z M226 122 C196 122 177 154 183 191 L188 218 C194 255 225 287 255 287 C281 287 303 275 301 241 L288 167 C278 134 252 122 226 122 L226 122 Z M456 727 C466 784 428 829 372 829 C315 829 262 784 252 727 C242 670 279 624 336 624 C392 624 446 670 456 727 L456 727 Z M352 715 C346 715 342 720 343 727 C344 733 350 738 356 738 C362 738 366 733 364 727 C363 720 358 715 352 715 L352 715 Z " />
<glyph glyph-name="ae" unicode="&#xe6;" horiz-adv-x="649" d="M673 241 L698 384 C718 493 654 582 556 582 C517 582 478 568 445 545 C422 568 391 582 354 583 L348 583 C264 580 185 514 170 432 L296 432 C299 445 314 456 330 457 C346 456 354 442 352 426 L350 416 C350 415 349 413 348 412 C334 418 314 421 296 421 C199 421 106 336 88 232 L80 191 C61 86 126 1 223 1 C241 1 259 5 278 11 L277 0 L403 0 L404 8 C419 2 436 0 454 0 C552 0 647 89 666 198 L540 198 C533 160 503 126 475 126 C452 126 436 149 434 178 L445 241 L673 241 L673 241 Z M534 456 C562 456 580 422 572 384 L569 367 L467 367 L474 404 C486 433 511 456 534 456 L534 456 Z M244 122 C214 122 194 154 202 191 L209 232 C215 269 246 301 276 301 C299 301 317 281 319 253 L310 198 C307 190 306 182 306 174 C295 144 268 122 244 122 L244 122 Z " />
<glyph glyph-name="ccedilla" unicode="&#xe7;" horiz-adv-x="382" d="M289 171 C276 145 254 126 233 126 C206 126 186 160 192 197 L225 384 C232 422 264 456 291 456 C312 456 328 436 331 409 L457 455 C445 529 389 582 313 582 C215 582 118 493 99 384 L66 197 C47 89 112 -1 210 -1 C286 -1 360 52 399 125 L289 171 L289 171 Z M281 22 L155 22 C148 -22 158 -50 168 -71 C166 -71 163 -71 160 -71 L137 -197 C224 -197 295 -150 307 -82 C313 -44 298 -20 288 -6 C281 7 278 11 281 22 L281 22 Z " />
<glyph glyph-name="egrave" unicode="&#xe8;" horiz-adv-x="421" d="M309 582 C210 582 114 493 95 384 L62 198 C43 89 108 0 207 0 C305 0 399 89 418 198 L292 198 C286 160 256 126 229 126 C201 126 182 160 188 198 L196 241 L426 241 L451 384 C470 493 407 582 309 582 L309 582 Z M322 367 L218 367 L221 384 C228 422 259 456 287 456 C314 456 332 422 325 384 L322 367 L322 367 Z M299 814 L314 700 L368 700 L369 814 L299 814 L299 814 Z " />
<glyph glyph-name="eacute" unicode="&#xe9;" horiz-adv-x="421" d="M309 582 C210 582 114 493 95 384 L62 198 C43 89 108 0 207 0 C305 0 399 89 418 198 L292 198 C286 160 256 126 229 126 C201 126 182 160 188 198 L196 241 L426 241 L451 384 C470 493 407 582 309 582 L309 582 Z M322 367 L218 367 L221 384 C228 422 259 456 287 456 C314 456 332 422 325 384 L322 367 L322 367 Z M279 700 L333 700 L388 814 L318 814 L279 700 L279 700 Z " />
<glyph glyph-name="ecircumflex" unicode="&#xea;" horiz-adv-x="421" d="M309 582 C210 582 114 493 95 384 L62 198 C43 89 108 0 207 0 C305 0 399 89 418 198 L292 198 C286 160 256 126 229 126 C201 126 182 160 188 198 L196 241 L426 241 L451 384 C470 493 407 582 309 582 L309 582 Z M322 367 L218 367 L221 384 C228 422 259 456 287 456 C314 456 332 422 325 384 L322 367 L322 367 Z M404 629 L474 744 L329 812 L163 746 L192 631 L305 674 L404 629 Z " />
<glyph glyph-name="edieresis" unicode="&#xeb;" horiz-adv-x="421" d="M309 582 C210 582 114 493 95 384 L62 198 C43 89 108 0 207 0 C305 0 399 89 418 198 L292 198 C286 160 256 126 229 126 C201 126 182 160 188 198 L196 241 L426 241 L451 384 C470 493 407 582 309 582 L309 582 Z M322 367 L218 367 L221 384 C228 422 259 456 287 456 C314 456 332 422 325 384 L322 367 L322 367 Z M350 683 L427 683 L441 761 L365 761 L350 683 L350 683 Z M228 683 L305 683 L319 761 L242 761 L228 683 L228 683 Z " />
<glyph glyph-name="igrave" unicode="&#xec;" horiz-adv-x="250" d="M49 0 L175 0 L277 583 L151 583 L49 0 L49 0 Z M215 814 L230 700 L284 700 L285 814 L215 814 L215 814 Z " />
<glyph glyph-name="iacute" unicode="&#xed;" horiz-adv-x="250" d="M49 0 L175 0 L277 583 L151 583 L49 0 L49 0 Z M195 700 L249 700 L304 814 L234 814 L195 700 L195 700 Z " />
<glyph glyph-name="icircumflex" unicode="&#xee;" horiz-adv-x="250" d="M49 0 L175 0 L277 583 L151 583 L49 0 L49 0 Z M286 666 L356 781 L211 849 L45 783 L74 668 L187 711 L286 666 Z " />
<glyph glyph-name="idieresis" unicode="&#xef;" horiz-adv-x="242" d="M49 0 L175 0 L277 583 L151 583 L49 0 L49 0 Z M216 732 L293 732 L307 810 L231 810 L216 732 L216 732 Z M94 732 L171 732 L185 810 L108 810 L94 732 L94 732 Z " />
<glyph glyph-name="eth" unicode="&#xf0;" horiz-adv-x="432" d="M426 833 L436 888 L337 888 L328 832 C244 809 173 732 157 641 L283 641 C286 655 292 670 301 682 L293 638 L391 638 L401 688 C407 674 409 659 407 641 L394 568 C376 575 355 578 332 578 C229 578 130 490 110 380 L80 206 C79 203 79 200 79 198 L79 198 C59 88 127 -1 230 -1 C335 -1 434 88 455 198 L456 206 L486 380 L533 641 C548 733 503 811 426 833 L426 833 Z M236 380 C244 419 277 452 311 452 C344 452 367 419 360 380 L330 206 C323 167 288 134 254 134 C221 134 199 167 206 206 L236 380 L236 380 Z " />
<glyph glyph-name="ntilde" unicode="&#xf1;" horiz-adv-x="426" d="M318 582 C300 582 269 572 251 554 L256 583 L130 583 L28 0 L154 0 L221 384 C228 422 259 456 286 456 C314 456 332 422 325 384 L258 0 L384 0 L451 384 C470 493 405 582 318 582 L318 582 Z M271 720 C271 720 271 720 271 720 C282 720 295 710 309 700 C336 683 366 660 415 661 C467 661 519 686 583 742 L511 830 C464 791 443 787 435 787 C435 787 435 787 435 787 C425 787 411 796 396 806 C372 824 341 846 294 846 C294 846 294 846 293 846 C242 846 189 821 126 767 L199 678 C245 715 264 720 271 720 L271 720 Z " />
<glyph glyph-name="ograve" unicode="&#xf2;" horiz-adv-x="421" d="M312 582 C214 582 117 493 98 384 L65 197 C46 89 111 -1 209 -1 C308 -1 403 89 422 197 L455 384 C474 493 411 582 312 582 L312 582 Z M296 197 C290 160 260 126 232 126 C205 126 185 160 191 197 L224 384 C231 422 263 456 290 456 C318 456 336 422 329 384 L296 197 L296 197 Z M299 814 L314 700 L368 700 L369 814 L299 814 L299 814 Z " />
<glyph glyph-name="oacute" unicode="&#xf3;" horiz-adv-x="421" d="M312 582 C214 582 117 493 98 384 L65 197 C46 89 111 -1 209 -1 C308 -1 403 89 422 197 L455 384 C474 493 411 582 312 582 L312 582 Z M296 197 C290 160 260 126 232 126 C205 126 185 160 191 197 L224 384 C231 422 263 456 290 456 C318 456 336 422 329 384 L296 197 L296 197 Z M279 700 L333 700 L388 814 L318 814 L279 700 L279 700 Z " />
<glyph glyph-name="ocircumflex" unicode="&#xf4;" horiz-adv-x="421" d="M312 582 C214 582 117 493 98 384 L65 197 C46 89 111 -1 209 -1 C308 -1 403 89 422 197 L455 384 C474 493 411 582 312 582 L312 582 Z M296 197 C290 160 260 126 232 126 C205 126 185 160 191 197 L224 384 C231 422 263 456 290 456 C318 456 336 422 329 384 L296 197 L296 197 Z M404 629 L474 744 L329 812 L163 746 L192 631 L305 674 L404 629 Z " />
<glyph glyph-name="otilde" unicode="&#xf5;" horiz-adv-x="421" d="M312 582 C214 582 117 493 98 384 L65 197 C46 89 111 -1 209 -1 C308 -1 403 89 422 197 L455 384 C474 493 411 582 312 582 L312 582 Z M296 197 C290 160 260 126 232 126 C205 126 185 160 191 197 L224 384 C231 422 263 456 290 456 C318 456 336 422 329 384 L296 197 L296 197 Z M268 720 C268 720 268 720 268 720 C279 720 292 710 306 700 C333 683 363 660 412 661 C464 661 516 686 580 742 L508 830 C461 791 440 787 432 787 C432 787 432 787 432 787 C422 787 408 796 393 806 C369 824 338 846 291 846 C291 846 291 846 290 846 C239 846 186 821 123 767 L196 678 C242 715 261 720 268 720 L268 720 Z " />
<glyph glyph-name="odieresis" unicode="&#xf6;" horiz-adv-x="421" d="M312 582 C214 582 117 493 98 384 L65 197 C46 89 111 -1 209 -1 C308 -1 403 89 422 197 L455 384 C474 493 411 582 312 582 L312 582 Z M296 197 C290 160 260 126 232 126 C205 126 185 160 191 197 L224 384 C231 422 263 456 290 456 C318 456 336 422 329 384 L296 197 L296 197 Z M344 732 L421 732 L435 810 L359 810 L344 732 L344 732 Z M222 732 L299 732 L313 810 L236 810 L222 732 L222 732 Z " />
<glyph glyph-name="divide" unicode="&#xf7;" horiz-adv-x="445" d="M281 422 C317 422 352 452 358 490 C365 526 340 556 304 556 C266 556 232 526 224 490 C218 452 244 422 281 422 L281 422 Z M250 251 C212 251 178 221 172 185 C164 148 190 118 227 118 C263 118 298 148 305 185 C311 221 286 251 250 251 L250 251 Z M114 398 L92 272 L416 272 L438 398 L114 398 L114 398 Z " />
<glyph glyph-name="oslash" unicode="&#xf8;" horiz-adv-x="420" d="M152 -66 L187 6 C199 2 211 1 224 1 C323 1 419 90 438 199 L476 418 C485 468 476 514 455 548 L498 635 L384 673 L355 614 C348 616 341 616 332 616 C234 616 138 527 119 418 L80 199 C72 156 79 116 94 84 L38 -28 L152 -66 L152 -66 Z M312 199 C305 162 275 128 247 127 L328 289 L312 199 L312 199 Z M245 418 C250 448 270 475 292 486 L238 377 L245 418 L245 418 Z " />
<glyph glyph-name="ugrave" unicode="&#xf9;" horiz-adv-x="421" d="M311 198 C305 160 275 126 248 126 C220 126 201 160 207 198 L275 583 L149 583 L81 198 C62 89 125 0 216 0 C234 0 269 19 283 38 L277 0 L403 0 L437 198 L505 583 L379 583 L311 198 Z M299 814 L314 700 L368 700 L369 814 L299 814 L299 814 Z " />
<glyph glyph-name="uacute" unicode="&#xfa;" horiz-adv-x="421" d="M311 198 C305 160 275 126 248 126 C220 126 201 160 207 198 L275 583 L149 583 L81 198 C62 89 125 0 216 0 C234 0 269 19 283 38 L277 0 L403 0 L437 198 L505 583 L379 583 L311 198 Z M279 700 L333 700 L388 814 L318 814 L279 700 L279 700 Z " />
<glyph glyph-name="ucircumflex" unicode="&#xfb;" horiz-adv-x="421" d="M311 198 C305 160 275 126 248 126 C220 126 201 160 207 198 L275 583 L149 583 L81 198 C62 89 125 0 216 0 C234 0 269 19 283 38 L277 0 L403 0 L437 198 L505 583 L379 583 L311 198 Z M404 629 L474 744 L329 812 L163 746 L192 631 L305 674 L404 629 Z " />
<glyph glyph-name="udieresis" unicode="&#xfc;" horiz-adv-x="421" d="M311 198 C305 160 275 126 248 126 C220 126 201 160 207 198 L275 583 L149 583 L81 198 C62 89 125 0 216 0 C234 0 269 19 283 38 L277 0 L403 0 L437 198 L505 583 L379 583 L311 198 Z M344 732 L421 732 L435 810 L359 810 L344 732 L344 732 Z M222 732 L299 732 L313 810 L236 810 L222 732 L222 732 Z " />
<glyph glyph-name="yacute" unicode="&#xfd;" horiz-adv-x="428" d="M342 542 L281 197 C274 158 245 125 218 125 C190 125 170 158 177 197 L245 582 L119 582 L51 197 C32 88 96 -1 195 -1 C212 -1 229 2 246 7 C234 -22 209 -43 188 -43 C176 -43 167 -37 162 -31 L61 -126 C87 -154 125 -169 166 -169 C264 -169 358 -80 378 29 L407 197 L468 542 L475 583 L349 583 L342 542 L342 542 Z M282 700 L336 700 L391 814 L321 814 L282 700 L282 700 Z " />
<glyph glyph-name="thorn" unicode="&#xfe;" horiz-adv-x="436" d="M330 582 C311 582 292 578 274 572 L286 643 L160 643 L16 -170 L142 -170 L174 8 C191 1 208 -1 227 -1 C325 -1 421 88 440 197 L474 384 C493 493 428 582 330 582 L330 582 Z M314 197 C308 158 277 125 250 125 C222 125 204 158 210 197 L244 384 C251 422 281 456 308 456 C336 456 355 422 348 384 L314 197 Z " />
<glyph glyph-name="ydieresis" unicode="&#xff;" horiz-adv-x="428" d="M342 542 L281 197 C274 158 245 125 218 125 C190 125 170 158 177 197 L245 582 L119 582 L51 197 C32 88 96 -1 195 -1 C212 -1 229 2 246 7 C234 -22 209 -43 188 -43 C176 -43 167 -37 162 -31 L61 -126 C87 -154 125 -169 166 -169 C264 -169 358 -80 378 29 L407 197 L468 542 L475 583 L349 583 L342 542 L342 542 Z M347 732 L424 732 L438 810 L362 810 L347 732 L347 732 Z M225 732 L302 732 L316 810 L239 810 L225 732 L225 732 Z " />
<glyph glyph-name="Amacron" unicode="&#x100;" horiz-adv-x="488" d="M331 812 L28 0 L156 0 L233 204 L340 204 L346 0 L474 0 L460 811 L331 812 Z M281 330 L336 476 L339 330 L281 330 L281 330 Z M426 979 L330 1022 L260 907 L402 841 L571 909 L542 1024 L426 979 L426 979 Z " />
<glyph glyph-name="amacron" unicode="&#x101;" horiz-adv-x="430" d="M336 583 L330 583 C246 580 166 515 152 433 L278 433 C280 446 293 464 312 464 C331 464 337 446 334 426 L327 388 C312 400 300 407 272 407 C181 407 84 322 66 218 L61 191 C43 86 102 1 191 1 C212 1 244 7 264 31 L259 0 L385 0 L460 426 C475 511 420 580 336 583 L336 583 L336 583 Z M226 122 C196 122 177 154 183 191 L188 218 C194 255 225 287 255 287 C281 287 303 275 301 241 L288 167 C278 134 252 122 226 122 L226 122 Z M376 772 L280 815 L210 700 L352 634 L521 702 L492 817 L376 772 L376 772 Z " />
<glyph glyph-name="Abreve" unicode="&#x102;" horiz-adv-x="488" d="M331 812 L28 0 L156 0 L233 204 L340 204 L346 0 L474 0 L460 811 L331 812 Z M281 330 L336 476 L339 330 L281 330 L281 330 Z M491 1038 C483 999 453 966 425 966 C397 966 379 999 386 1038 L260 1038 C241 928 305 840 403 840 C501 840 597 928 617 1038 L491 1038 L491 1038 Z " />
<glyph glyph-name="abreve" unicode="&#x103;" horiz-adv-x="430" d="M336 583 L330 583 C246 580 166 515 152 433 L278 433 C280 446 293 464 312 464 C331 464 337 446 334 426 L327 388 C312 400 300 407 272 407 C181 407 84 322 66 218 L61 191 C43 86 102 1 191 1 C212 1 244 7 264 31 L259 0 L385 0 L460 426 C475 511 420 580 336 583 L336 583 L336 583 Z M226 122 C196 122 177 154 183 191 L188 218 C194 255 225 287 255 287 C281 287 303 275 301 241 L288 167 C278 134 252 122 226 122 L226 122 Z M429 814 C421 775 391 742 363 742 C335 742 317 775 324 814 L198 814 C179 704 243 616 341 616 C439 616 535 704 555 814 L429 814 L429 814 Z " />
<glyph glyph-name="Aogonek" unicode="&#x104;" horiz-adv-x="488" d="M331 812 L28 0 L156 0 L233 204 L340 204 L346 0 L474 0 L460 811 L331 812 Z M281 330 L336 476 L339 330 L281 330 L281 330 Z M344 2 C342 -9 338 -13 326 -26 C312 -40 288 -64 282 -102 C270 -170 323 -217 410 -217 L433 -91 C431 -91 427 -91 425 -91 C443 -70 463 -42 470 2 L344 2 L344 2 Z " />
<glyph glyph-name="aogonek" unicode="&#x105;" horiz-adv-x="430" d="M336 583 L330 583 C246 580 166 515 152 433 L278 433 C280 446 293 464 312 464 C331 464 337 446 334 426 L327 388 C312 400 300 407 272 407 C181 407 84 322 66 218 L61 191 C43 86 102 1 191 1 C212 1 244 7 264 31 L259 0 L385 0 L460 426 C475 511 420 580 336 583 L336 583 L336 583 Z M226 122 C196 122 177 154 183 191 L188 218 C194 255 225 287 255 287 C281 287 303 275 301 241 L288 167 C278 134 252 122 226 122 L226 122 Z M277 3 C275 -8 271 -12 259 -25 C245 -39 221 -63 215 -101 C203 -169 256 -216 343 -216 L366 -90 C364 -90 360 -90 358 -90 C376 -69 396 -41 403 3 L277 3 L277 3 Z " />
<glyph glyph-name="Cacute" unicode="&#x106;" horiz-adv-x="467" d="M346 683 L355 683 C375 683 391 676 402 662 C409 654 414 643 414 631 L541 666 C539 698 527 728 507 752 C475 790 430 810 378 810 L369 810 C259 810 154 721 135 612 L63 198 C43 89 117 0 226 0 L235 0 C318 0 401 53 444 131 L333 174 C318 145 287 127 257 127 L247 127 C208 127 181 158 189 198 L261 612 C268 652 306 683 346 683 L346 683 Z M340 924 L394 924 L449 1038 L379 1038 L340 924 L340 924 Z " />
<glyph glyph-name="cacute" unicode="&#x107;" horiz-adv-x="382" d="M289 171 C276 145 254 126 233 126 C206 126 186 160 192 197 L225 384 C232 422 264 456 291 456 C312 456 328 436 331 409 L457 455 C445 529 389 582 313 582 C215 582 118 493 99 384 L66 197 C47 89 112 -1 210 -1 C286 -1 360 52 399 125 L289 171 L289 171 Z M259 700 L313 700 L368 814 L298 814 L259 700 L259 700 Z " />
<glyph glyph-name="Ccircumflex" unicode="&#x108;" horiz-adv-x="467" d="M346 683 L355 683 C375 683 391 676 402 662 C409 654 414 643 414 631 L541 666 C539 698 527 728 507 752 C475 790 430 810 378 810 L369 810 C259 810 154 721 135 612 L63 198 C43 89 117 0 226 0 L235 0 C318 0 401 53 444 131 L333 174 C318 145 287 127 257 127 L247 127 C208 127 181 158 189 198 L261 612 C268 652 306 683 346 683 L346 683 Z M464 853 L534 968 L389 1036 L223 970 L252 855 L365 898 L464 853 Z " />
<glyph glyph-name="ccircumflex" unicode="&#x109;" horiz-adv-x="382" d="M289 171 C276 145 254 126 233 126 C206 126 186 160 192 197 L225 384 C232 422 264 456 291 456 C312 456 328 436 331 409 L457 455 C445 529 389 582 313 582 C215 582 118 493 99 384 L66 197 C47 89 112 -1 210 -1 C286 -1 360 52 399 125 L289 171 L289 171 Z M417 615 L487 730 L342 798 L176 732 L205 617 L318 660 L417 615 Z " />
<glyph glyph-name="Cdotaccent" unicode="&#x10a;" horiz-adv-x="467" d="M346 683 L355 683 C375 683 391 676 402 662 C409 654 414 643 414 631 L541 666 C539 698 527 728 507 752 C475 790 430 810 378 810 L369 810 C259 810 154 721 135 612 L63 198 C43 89 117 0 226 0 L235 0 C318 0 401 53 444 131 L333 174 C318 145 287 127 257 127 L247 127 C208 127 181 158 189 198 L261 612 C268 652 306 683 346 683 L346 683 Z M402 939 C436 939 467 967 473 1000 C478 1033 456 1060 423 1060 C389 1060 358 1033 353 1000 C347 967 369 939 402 939 L402 939 Z " />
<glyph glyph-name="cdotaccent" unicode="&#x10b;" horiz-adv-x="382" d="M289 171 C276 145 254 126 233 126 C206 126 186 160 192 197 L225 384 C232 422 264 456 291 456 C312 456 328 436 331 409 L457 455 C445 529 389 582 313 582 C215 582 118 493 99 384 L66 197 C47 89 112 -1 210 -1 C286 -1 360 52 399 125 L289 171 L289 171 Z M321 715 C355 715 386 743 392 776 C397 809 375 836 342 836 C308 836 277 809 272 776 C266 743 288 715 321 715 L321 715 Z " />
<glyph glyph-name="Ccaron" unicode="&#x10c;" horiz-adv-x="467" d="M346 683 L355 683 C375 683 391 676 402 662 C409 654 414 643 414 631 L541 666 C539 698 527 728 507 752 C475 790 430 810 378 810 L369 810 C259 810 154 721 135 612 L63 198 C43 89 117 0 226 0 L235 0 C318 0 401 53 444 131 L333 174 C318 145 287 127 257 127 L247 127 C208 127 181 158 189 198 L261 612 C268 652 306 683 346 683 L346 683 Z M404 979 L308 1022 L238 907 L380 841 L549 909 L520 1024 L404 979 L404 979 Z " />
<glyph glyph-name="ccaron" unicode="&#x10d;" horiz-adv-x="382" d="M289 171 C276 145 254 126 233 126 C206 126 186 160 192 197 L225 384 C232 422 264 456 291 456 C312 456 328 436 331 409 L457 455 C445 529 389 582 313 582 C215 582 118 493 99 384 L66 197 C47 89 112 -1 210 -1 C286 -1 360 52 399 125 L289 171 L289 171 Z M325 755 L229 798 L159 683 L301 617 L470 685 L441 800 L325 755 L325 755 Z " />
<glyph glyph-name="Dcaron" unicode="&#x10e;" horiz-adv-x="452" d="M367 811 L171 811 L28 0 L39 0 L37 -1 L226 -1 C330 -1 430 85 449 192 L525 620 C543 726 473 811 367 811 L367 811 Z M323 192 C316 155 283 126 249 126 L175 126 L274 684 L345 684 C381 684 405 656 399 620 L323 192 L323 192 Z M374 979 L278 1022 L208 907 L350 841 L519 909 L490 1024 L374 979 L374 979 Z " />
<glyph glyph-name="dcaron" unicode="&#x10f;" horiz-adv-x="550" d="M350 542 C338 574 308 582 281 582 C203 582 107 493 88 384 L55 198 C36 89 104 0 179 0 C198 0 242 16 262 41 L254 -1 L380 -1 L524 811 L398 811 L352 552 L350 542 Z M283 178 C276 141 250 127 222 127 C194 127 175 161 181 198 L214 384 C221 422 252 456 280 456 C308 456 329 442 323 404 L283 178 L283 178 Z M638 841 L554 841 L540 762 L577 762 L577 762 C571 725 546 728 546 728 L541 698 C614 698 624 762 624 762 L638 841 L638 841 Z " />
<glyph glyph-name="Dcroat" unicode="&#x110;" horiz-adv-x="496" d="M386 811 L190 811 L47 0 L58 0 L56 -1 L245 -1 C349 -1 449 85 468 192 L544 620 C562 726 492 811 386 811 L386 811 Z M342 192 C335 155 302 126 268 126 L194 126 L293 684 L364 684 C400 684 424 656 418 620 L342 192 L342 192 Z M55 348 L283 348 L299 474 L71 474 L55 348 L55 348 Z " />
<glyph glyph-name="dcroat" unicode="&#x111;" horiz-adv-x="451" d="M350 542 C338 574 308 582 281 582 C203 582 107 493 88 384 L55 198 C36 89 104 0 179 0 C198 0 242 16 262 41 L254 -1 L380 -1 L524 811 L398 811 L352 552 L350 542 Z M283 178 C276 141 250 127 222 127 C194 127 175 161 181 198 L214 384 C221 422 252 456 280 456 C308 456 329 442 323 404 L283 178 L283 178 Z M297 614 L544 614 L562 747 L314 747 L297 614 L297 614 Z " />
<glyph glyph-name="Emacron" unicode="&#x112;" horiz-adv-x="389" d="M28 0 L347 0 L369 126 L175 126 L208 307 L329 307 L350 433 L229 433 L274 685 L467 685 L490 811 L171 811 L28 0 L28 0 Z M364 997 L268 1040 L198 925 L340 859 L509 927 L480 1042 L364 997 L364 997 Z " />
<glyph glyph-name="emacron" unicode="&#x113;" horiz-adv-x="421" d="M309 582 C210 582 114 493 95 384 L62 198 C43 89 108 0 207 0 C305 0 399 89 418 198 L292 198 C286 160 256 126 229 126 C201 126 182 160 188 198 L196 241 L426 241 L451 384 C470 493 407 582 309 582 L309 582 Z M322 367 L218 367 L221 384 C228 422 259 456 287 456 C314 456 332 422 325 384 L322 367 L322 367 Z M352 767 L256 810 L186 695 L328 629 L497 697 L468 812 L352 767 L352 767 Z " />
<glyph glyph-name="Edotaccent" unicode="&#x116;" horiz-adv-x="389" d="M28 0 L347 0 L369 126 L175 126 L208 307 L329 307 L350 433 L229 433 L274 685 L467 685 L490 811 L171 811 L28 0 L28 0 Z M363 939 C397 939 428 967 434 1000 C439 1033 417 1060 384 1060 C350 1060 319 1033 314 1000 C308 967 330 939 363 939 L363 939 Z " />
<glyph glyph-name="edotaccent" unicode="&#x117;" horiz-adv-x="421" d="M309 582 C210 582 114 493 95 384 L62 198 C43 89 108 0 207 0 C305 0 399 89 418 198 L292 198 C286 160 256 126 229 126 C201 126 182 160 188 198 L196 241 L426 241 L451 384 C470 493 407 582 309 582 L309 582 Z M322 367 L218 367 L221 384 C228 422 259 456 287 456 C314 456 332 422 325 384 L322 367 L322 367 Z M340 715 C374 715 405 743 411 776 C416 809 394 836 361 836 C327 836 296 809 291 776 C285 743 307 715 340 715 L340 715 Z " />
<glyph glyph-name="Eogonek" unicode="&#x118;" horiz-adv-x="389" d="M28 0 L347 0 L369 126 L175 126 L208 307 L329 307 L350 433 L229 433 L274 685 L467 685 L490 811 L171 811 L28 0 L28 0 Z M152 2 C150 -9 146 -13 134 -26 C120 -40 96 -64 90 -102 C78 -170 131 -217 218 -217 L241 -91 C239 -91 235 -91 233 -91 C251 -70 271 -42 278 2 L152 2 L152 2 Z " />
<glyph glyph-name="eogonek" unicode="&#x119;" horiz-adv-x="421" d="M309 582 C210 582 114 493 95 384 L62 198 C43 89 108 0 207 0 C305 0 399 89 418 198 L292 198 C286 160 256 126 229 126 C201 126 182 160 188 198 L196 241 L426 241 L451 384 C470 493 407 582 309 582 L309 582 Z M322 367 L218 367 L221 384 C228 422 259 456 287 456 C314 456 332 422 325 384 L322 367 L322 367 Z M151 22 C149 11 145 7 133 -6 C119 -20 95 -44 89 -82 C77 -150 130 -197 217 -197 L240 -71 C238 -71 234 -71 232 -71 C250 -50 270 -22 277 22 L151 22 L151 22 Z " />
<glyph glyph-name="Ecaron" unicode="&#x11a;" horiz-adv-x="389" d="M28 0 L347 0 L369 126 L175 126 L208 307 L329 307 L350 433 L229 433 L274 685 L467 685 L490 811 L171 811 L28 0 L28 0 Z M367 979 L271 1022 L201 907 L343 841 L512 909 L483 1024 L367 979 L367 979 Z " />
<glyph glyph-name="ecaron" unicode="&#x11b;" horiz-adv-x="421" d="M309 582 C210 582 114 493 95 384 L62 198 C43 89 108 0 207 0 C305 0 399 89 418 198 L292 198 C286 160 256 126 229 126 C201 126 182 160 188 198 L196 241 L426 241 L451 384 C470 493 407 582 309 582 L309 582 Z M322 367 L218 367 L221 384 C228 422 259 456 287 456 C314 456 332 422 325 384 L322 367 L322 367 Z M343 755 L247 798 L177 683 L319 617 L488 685 L459 800 L343 755 L343 755 Z " />
<glyph glyph-name="Gcircumflex" unicode="&#x11c;" horiz-adv-x="470" d="M267 307 L361 307 L342 198 C335 158 297 126 257 126 L247 126 C208 126 181 158 189 198 L262 613 C268 653 306 684 346 684 L355 684 C375 684 391 677 402 664 C409 655 414 644 414 632 L543 667 C539 700 527 730 507 754 C475 791 430 810 378 810 L369 810 C259 810 154 721 136 613 L63 198 C43 89 117 0 226 0 L235 0 C345 0 449 89 468 198 L509 433 L288 433 L267 307 L267 307 Z M466 853 L536 968 L391 1036 L225 970 L254 855 L367 898 L466 853 Z " />
<glyph glyph-name="gcircumflex" unicode="&#x11d;" horiz-adv-x="432" d="M355 554 C347 576 317 582 299 582 C210 582 115 494 95 385 L62 198 C43 89 103 0 195 0 C213 0 244 6 262 28 C253 -28 223 -62 196 -62 C184 -62 175 -55 170 -50 L69 -144 C95 -173 132 -188 173 -188 C271 -188 366 -100 385 10 L486 583 L360 583 L355 554 Z M229 126 C201 126 182 160 188 198 L221 385 C228 424 259 456 287 456 C314 456 334 434 327 395 L291 188 C284 150 256 126 229 126 L229 126 Z M465 637 L535 752 L390 820 L224 754 L253 639 L366 682 L465 637 Z " />
<glyph glyph-name="Gbreve" unicode="&#x11e;" horiz-adv-x="470" d="M267 307 L361 307 L342 198 C335 158 297 126 257 126 L247 126 C208 126 181 158 189 198 L262 613 C268 653 306 684 346 684 L355 684 C375 684 391 677 402 664 C409 655 414 644 414 632 L543 667 C539 700 527 730 507 754 C475 791 430 810 378 810 L369 810 C259 810 154 721 136 613 L63 198 C43 89 117 0 226 0 L235 0 C345 0 449 89 468 198 L509 433 L288 433 L267 307 L267 307 Z M483 1038 C475 999 445 966 417 966 C389 966 371 999 378 1038 L252 1038 C233 928 297 840 395 840 C493 840 589 928 609 1038 L483 1038 L483 1038 Z " />
<glyph glyph-name="gbreve" unicode="&#x11f;" horiz-adv-x="432" d="M355 554 C347 576 317 582 299 582 C210 582 115 494 95 385 L62 198 C43 89 103 0 195 0 C213 0 244 6 262 28 C253 -28 223 -62 196 -62 C184 -62 175 -55 170 -50 L69 -144 C95 -173 132 -188 173 -188 C271 -188 366 -100 385 10 L486 583 L360 583 L355 554 Z M229 126 C201 126 182 160 188 198 L221 385 C228 424 259 456 287 456 C314 456 334 434 327 395 L291 188 C284 150 256 126 229 126 L229 126 Z M424 814 C416 775 386 742 358 742 C330 742 312 775 319 814 L193 814 C174 704 238 616 336 616 C434 616 530 704 550 814 L424 814 L424 814 Z " />
<glyph glyph-name="Gdotaccent" unicode="&#x120;" horiz-adv-x="470" d="M267 307 L361 307 L342 198 C335 158 297 126 257 126 L247 126 C208 126 181 158 189 198 L262 613 C268 653 306 684 346 684 L355 684 C375 684 391 677 402 664 C409 655 414 644 414 632 L543 667 C539 700 527 730 507 754 C475 791 430 810 378 810 L369 810 C259 810 154 721 136 613 L63 198 C43 89 117 0 226 0 L235 0 C345 0 449 89 468 198 L509 433 L288 433 L267 307 L267 307 Z M404 939 C438 939 469 967 475 1000 C480 1033 458 1060 425 1060 C391 1060 360 1033 355 1000 C349 967 371 939 404 939 L404 939 Z " />
<glyph glyph-name="gdotaccent" unicode="&#x121;" horiz-adv-x="432" d="M355 554 C347 576 317 582 299 582 C210 582 115 494 95 385 L62 198 C43 89 103 0 195 0 C213 0 244 6 262 28 C253 -28 223 -62 196 -62 C184 -62 175 -55 170 -50 L69 -144 C95 -173 132 -188 173 -188 C271 -188 366 -100 385 10 L486 583 L360 583 L355 554 Z M229 126 C201 126 182 160 188 198 L221 385 C228 424 259 456 287 456 C314 456 334 434 327 395 L291 188 C284 150 256 126 229 126 L229 126 Z M346 715 C380 715 411 743 417 776 C422 809 400 836 367 836 C333 836 302 809 297 776 C291 743 313 715 346 715 L346 715 Z " />
<glyph glyph-name="Gcommaaccent" unicode="&#x122;" horiz-adv-x="470" d="M267 307 L361 307 L342 198 C335 158 297 126 257 126 L247 126 C208 126 181 158 189 198 L262 613 C268 653 306 684 346 684 L355 684 C375 684 391 677 402 664 C409 655 414 644 414 632 L543 667 C539 700 527 730 507 754 C475 791 430 810 378 810 L369 810 C259 810 154 721 136 613 L63 198 C43 89 117 0 226 0 L235 0 C345 0 449 89 468 198 L509 433 L288 433 L267 307 L267 307 Z M258 -36 L174 -36 L160 -115 L198 -115 L198 -115 C190 -152 166 -148 166 -148 L160 -178 C234 -178 244 -115 244 -115 L258 -36 L258 -36 Z " />
<glyph glyph-name="gcommaaccent" unicode="&#x123;" horiz-adv-x="420" d="M355 554 C347 576 317 582 299 582 C210 582 115 494 95 385 L62 198 C43 89 103 0 195 0 C213 0 244 6 262 28 C253 -28 223 -62 196 -62 C184 -62 175 -55 170 -50 L69 -144 C95 -173 132 -188 173 -188 C271 -188 366 -100 385 10 L486 583 L360 583 L355 554 Z M229 126 C201 126 182 160 188 198 L221 385 C228 424 259 456 287 456 C314 456 334 434 327 395 L291 188 C284 150 256 126 229 126 L229 126 Z M353 734 C360 771 384 767 384 767 L390 797 C317 797 306 734 306 734 L293 654 L377 654 L390 734 L353 734 L353 734 L353 734 Z " />
<glyph glyph-name="Hcircumflex" unicode="&#x124;" horiz-adv-x="460" d="M370 433 L229 433 L297 811 L171 811 L28 0 L154 0 L208 307 L348 307 L294 0 L420 0 L563 811 L437 811 L370 433 L370 433 Z M462 853 L532 968 L387 1036 L221 970 L250 855 L363 898 L462 853 Z " />
<glyph glyph-name="hcircumflex" unicode="&#x125;" horiz-adv-x="421" d="M312 582 C294 582 276 580 258 574 L299 809 L173 809 L31 0 L157 0 L224 384 C231 422 262 456 290 456 C317 456 335 422 328 384 L261 0 L387 0 L454 384 C473 493 410 582 312 582 L312 582 Z M440 839 L510 954 L365 1022 L199 956 L228 841 L341 884 L440 839 Z " />
<glyph glyph-name="Hbar" unicode="&#x126;" horiz-adv-x="581" d="M128 509 L546 509 L550 526 L132 526 L128 509 Z M445 433 L304 433 L372 811 L246 811 L103 0 L229 0 L283 307 L423 307 L369 0 L495 0 L638 811 L512 811 L445 433 L445 433 Z " />
<glyph glyph-name="hbar" unicode="&#x127;" horiz-adv-x="421" d="M312 582 C294 582 276 580 258 574 L299 809 L173 809 L31 0 L157 0 L224 384 C231 422 262 456 290 456 C317 456 335 422 328 384 L261 0 L387 0 L454 384 C473 493 410 582 312 582 L312 582 Z M106 625 L409 625 L431 751 L127 751 L106 625 L106 625 Z " />
<glyph glyph-name="Itilde" unicode="&#x128;" horiz-adv-x="199" d="M28 0 L154 0 L297 811 L171 811 L28 0 L28 0 Z M196 944 C196 944 196 944 196 944 C207 944 220 934 234 924 C261 907 291 884 340 885 C392 885 444 910 508 966 L436 1054 C389 1015 368 1011 360 1011 C360 1011 360 1011 360 1011 C350 1011 336 1020 321 1030 C297 1048 266 1070 219 1070 C219 1070 219 1070 218 1070 C167 1070 114 1045 51 991 L124 902 C170 939 189 944 196 944 L196 944 Z " />
<glyph glyph-name="itilde" unicode="&#x129;" horiz-adv-x="250" d="M49 0 L175 0 L277 583 L151 583 L49 0 L49 0 Z M162 763 C162 763 162 763 162 763 C173 763 186 753 200 743 C227 726 257 703 306 704 C358 704 410 729 474 785 L402 873 C355 834 334 830 326 830 C326 830 326 830 326 830 C316 830 302 839 287 849 C263 867 232 889 185 889 C185 889 185 889 184 889 C133 889 80 864 17 810 L90 721 C136 758 155 763 162 763 L162 763 Z " />
<glyph glyph-name="imacron" unicode="&#x12b;" horiz-adv-x="250" d="M49 0 L175 0 L277 583 L151 583 L49 0 L49 0 Z M252 864 L156 907 L86 792 L228 726 L397 794 L368 909 L252 864 L252 864 Z " />
<glyph glyph-name="Iogonek" unicode="&#x12e;" horiz-adv-x="199" d="M28 0 L154 0 L297 811 L171 811 L28 0 L28 0 Z M45 2 C43 -9 39 -13 27 -26 C13 -40 -11 -64 -17 -102 C-29 -170 24 -217 111 -217 L134 -91 C132 -91 128 -91 126 -91 C144 -70 164 -42 171 2 L45 2 L45 2 Z " />
<glyph glyph-name="iogonek" unicode="&#x12f;" horiz-adv-x="193" d="M47 0 L173 0 L275 583 L149 583 L47 0 L47 0 Z M154 610 L280 610 L303 740 L177 740 L154 610 L154 610 Z M45 2 C43 -9 39 -13 27 -26 C13 -40 -11 -64 -17 -102 C-29 -170 24 -217 111 -217 L134 -91 C132 -91 128 -91 126 -91 C144 -70 164 -42 171 2 L45 2 L45 2 Z " />
<glyph glyph-name="Idotaccent" unicode="&#x130;" horiz-adv-x="199" d="M28 0 L154 0 L297 811 L171 811 L28 0 L28 0 Z M268 939 C302 939 333 967 339 1000 C344 1033 322 1060 289 1060 C255 1060 224 1033 219 1000 C213 967 235 939 268 939 L268 939 Z " />
<glyph glyph-name="dotlessi" unicode="&#x131;" horiz-adv-x="226" d="M49 0 L175 0 L277 583 L151 583 L49 0 L49 0 Z " />
<glyph glyph-name="Jcircumflex" unicode="&#x134;" horiz-adv-x="461" d="M334 203 C327 161 288 125 247 125 C208 125 181 161 189 203 L219 373 L93 373 L63 203 C43 91 115 -1 225 -1 C335 -1 441 91 460 203 L568 810 L442 810 L334 203 L334 203 Z M602 853 L672 968 L527 1036 L361 970 L390 855 L503 898 L602 853 Z " />
<glyph glyph-name="jcircumflex" unicode="&#x135;" horiz-adv-x="204" d="M37 610 L163 610 L186 740 L60 740 L37 610 L37 610 Z M-65 29 C-72 -10 -104 -43 -131 -43 C-142 -43 -151 -37 -156 -31 L-257 -126 C-231 -154 -193 -169 -152 -169 C-55 -169 41 -80 61 29 L158 583 L32 583 L-65 29 L-65 29 Z M316 779 L386 894 L241 962 L75 896 L104 781 L217 824 L316 779 Z " />
<glyph glyph-name="Kcommaaccent" unicode="&#x136;" horiz-adv-x="488" d="M453 811 L253 569 L297 811 L171 811 L93 373 L83 317 L28 0 L154 0 L213 336 L249 380 L319 0 L453 0 L359 514 L603 811 L453 811 L453 811 Z M256 -30 L172 -30 L158 -109 L196 -109 L196 -109 C188 -146 164 -142 164 -142 L158 -172 C232 -172 242 -109 242 -109 L256 -30 L256 -30 Z " />
<glyph glyph-name="kcommaaccent" unicode="&#x137;" horiz-adv-x="470" d="M372 583 L221 420 L290 811 L164 811 L21 0 L147 0 L184 210 L230 259 L281 0 L415 0 L341 379 L530 583 L372 583 L372 583 Z M230 -33 L146 -33 L132 -112 L170 -112 L170 -112 C162 -149 138 -145 138 -145 L132 -175 C206 -175 216 -112 216 -112 L230 -33 L230 -33 Z " />
<glyph glyph-name="kgreenlandic" unicode="&#x138;" horiz-adv-x="445" d="M397 583 L246 420 L275 581 L149 581 L47 0 L173 0 L209 210 L256 259 L306 0 L440 0 L366 379 L556 583 L397 583 Z " />
<glyph glyph-name="Lacute" unicode="&#x139;" horiz-adv-x="389" d="M297 811 L171 811 L28 0 L347 0 L369 126 L175 126 L297 811 L297 811 Z M223 924 L277 924 L332 1038 L262 1038 L223 924 L223 924 Z " />
<glyph glyph-name="lacute" unicode="&#x13a;" horiz-adv-x="193" d="M47 0 L173 0 L316 811 L190 811 L47 0 L47 0 Z M208 885 L262 885 L317 999 L247 999 L208 885 L208 885 Z " />
<glyph glyph-name="Lcommaaccent" unicode="&#x13b;" horiz-adv-x="389" d="M297 811 L171 811 L28 0 L347 0 L369 126 L175 126 L297 811 L297 811 Z M204 -50 L120 -50 L106 -129 L144 -129 L144 -129 C136 -166 112 -162 112 -162 L106 -192 C180 -192 190 -129 190 -129 L204 -50 L204 -50 Z " />
<glyph glyph-name="lcommaaccent" unicode="&#x13c;" horiz-adv-x="193" d="M47 0 L173 0 L316 811 L190 811 L47 0 L47 0 Z M153 -39 L69 -39 L55 -118 L93 -118 L93 -118 C85 -155 61 -151 61 -151 L55 -181 C129 -181 139 -118 139 -118 L153 -39 L153 -39 Z " />
<glyph glyph-name="Lcaron" unicode="&#x13d;" horiz-adv-x="389" d="M297 811 L171 811 L28 0 L347 0 L369 126 L175 126 L297 811 L297 811 Z M306 980 L222 980 L208 901 L245 901 L245 901 C239 864 214 867 214 867 L209 837 C282 837 292 901 292 901 L306 980 L306 980 Z " />
<glyph glyph-name="lcaron" unicode="&#x13e;" horiz-adv-x="318" d="M47 0 L173 0 L316 811 L190 811 L47 0 L47 0 Z M437 873 L353 873 L339 794 L376 794 L376 794 C370 757 345 760 345 760 L340 730 C413 730 423 794 423 794 L437 873 L437 873 Z " />
<glyph glyph-name="Lslash" unicode="&#x141;" horiz-adv-x="421" d="M314 809 L188 809 L47 0 L366 0 L388 126 L194 126 L314 809 Z M70 348 L325 348 L347 474 L91 474 L70 348 Z " />
<glyph glyph-name="lslash" unicode="&#x142;" horiz-adv-x="320" d="M98 0 L224 0 L367 811 L241 811 L98 0 L98 0 Z M78 340 L356 340 L374 475 L97 475 L78 340 L78 340 Z " />
<glyph glyph-name="Nacute" unicode="&#x143;" horiz-adv-x="484" d="M305 812 L172 812 L171 812 L29 0 L155 0 L237 468 L331 0 L333 0 L459 0 L601 810 L475 810 L395 356 L305 812 Z M349 924 L403 924 L458 1038 L388 1038 L349 924 L349 924 Z " />
<glyph glyph-name="nacute" unicode="&#x144;" horiz-adv-x="426" d="M318 582 C300 582 269 572 251 554 L256 583 L130 583 L28 0 L154 0 L221 384 C228 422 259 456 286 456 C314 456 332 422 325 384 L258 0 L384 0 L451 384 C470 493 405 582 318 582 L318 582 Z M281 700 L335 700 L390 814 L320 814 L281 700 L281 700 Z " />
<glyph glyph-name="Ncommaaccent" unicode="&#x145;" horiz-adv-x="484" d="M305 812 L172 812 L171 812 L29 0 L155 0 L237 468 L331 0 L333 0 L459 0 L601 810 L475 810 L395 356 L305 812 Z M269 -28 L185 -28 L171 -107 L209 -107 L209 -107 C201 -144 177 -140 177 -140 L171 -170 C245 -170 255 -107 255 -107 L269 -28 L269 -28 Z " />
<glyph glyph-name="ncommaaccent" unicode="&#x146;" horiz-adv-x="426" d="M318 582 C300 582 269 572 251 554 L256 583 L130 583 L28 0 L154 0 L221 384 C228 422 259 456 286 456 C314 456 332 422 325 384 L258 0 L384 0 L451 384 C470 493 405 582 318 582 L318 582 Z M237 -41 L153 -41 L139 -120 L177 -120 L177 -120 C169 -157 145 -153 145 -153 L139 -183 C213 -183 223 -120 223 -120 L237 -41 L237 -41 Z " />
<glyph glyph-name="Ncaron" unicode="&#x147;" horiz-adv-x="484" d="M305 812 L172 812 L171 812 L29 0 L155 0 L237 468 L331 0 L333 0 L459 0 L601 810 L475 810 L395 356 L305 812 Z M414 979 L318 1022 L248 907 L390 841 L559 909 L530 1024 L414 979 L414 979 Z " />
<glyph glyph-name="ncaron" unicode="&#x148;" horiz-adv-x="426" d="M318 582 C300 582 269 572 251 554 L256 583 L130 583 L28 0 L154 0 L221 384 C228 422 259 456 286 456 C314 456 332 422 325 384 L258 0 L384 0 L451 384 C470 493 405 582 318 582 L318 582 Z M347 755 L251 798 L181 683 L323 617 L492 685 L463 800 L347 755 L347 755 Z " />
<glyph glyph-name="Eng" unicode="&#x14a;" horiz-adv-x="484" d="M320 -73 C313 -115 274 -151 233 -151 C193 -151 168 -115 175 -73 L178 -59 L52 -59 L49 -73 C29 -185 102 -277 211 -277 C322 -277 426 -185 446 -73 L553 532 L427 532 L320 -73 L320 -73 Z M305 812 L172 812 L171 812 L29 0 L155 0 L237 468 L331 0 L333 0 L459 0 L601 810 L475 810 L395 356 L305 812 Z " />
<glyph glyph-name="eng" unicode="&#x14b;" horiz-adv-x="461" d="M282 29 C275 -10 244 -43 216 -43 C204 -43 196 -37 191 -31 L90 -126 C116 -154 154 -169 194 -169 C293 -169 389 -80 408 29 L457 307 L331 307 L282 29 L282 29 Z M337 582 C319 582 288 572 270 554 L275 583 L149 583 L47 0 L173 0 L240 384 C247 422 278 456 305 456 C333 456 351 422 344 384 L277 0 L403 0 L470 384 C489 493 424 582 337 582 L337 582 Z " />
<glyph glyph-name="Omacron" unicode="&#x14c;" horiz-adv-x="468" d="M378 810 L369 810 C259 810 154 721 135 612 L63 198 C43 89 117 0 226 0 L235 0 C345 0 449 89 468 198 L540 612 C559 721 487 810 378 810 L378 810 Z M342 198 C335 158 297 126 257 126 L247 126 C208 126 181 158 189 198 L261 612 C268 652 306 684 346 684 L355 684 C395 684 421 652 414 612 L342 198 L342 198 Z M414 1008 L318 1051 L248 936 L390 870 L559 938 L530 1053 L414 1008 L414 1008 Z " />
<glyph glyph-name="omacron" unicode="&#x14d;" horiz-adv-x="421" d="M312 582 C214 582 117 493 98 384 L65 197 C46 89 111 -1 209 -1 C308 -1 403 89 422 197 L455 384 C474 493 411 582 312 582 L312 582 Z M296 197 C290 160 260 126 232 126 C205 126 185 160 191 197 L224 384 C231 422 263 456 290 456 C318 456 336 422 329 384 L296 197 L296 197 Z M344 772 L248 815 L178 700 L320 634 L489 702 L460 817 L344 772 L344 772 Z " />
<glyph glyph-name="Ohungarumlaut" unicode="&#x150;" horiz-adv-x="468" d="M378 810 L369 810 C259 810 154 721 135 612 L63 198 C43 89 117 0 226 0 L235 0 C345 0 449 89 468 198 L540 612 C559 721 487 810 378 810 L378 810 Z M342 198 C335 158 297 126 257 126 L247 126 C208 126 181 158 189 198 L261 612 C268 652 306 684 346 684 L355 684 C395 684 421 652 414 612 L342 198 L342 198 Z M288 924 L342 924 L397 1038 L327 1038 L288 924 L288 924 Z M380 924 L435 924 L491 1038 L421 1038 L380 924 L380 924 Z " />
<glyph glyph-name="ohungarumlaut" unicode="&#x151;" horiz-adv-x="421" d="M312 582 C214 582 117 493 98 384 L65 197 C46 89 111 -1 209 -1 C308 -1 403 89 422 197 L455 384 C474 493 411 582 312 582 L312 582 Z M296 197 C290 160 260 126 232 126 C205 126 185 160 191 197 L224 384 C231 422 263 456 290 456 C318 456 336 422 329 384 L296 197 L296 197 Z M249 700 L303 700 L358 814 L288 814 L249 700 L249 700 Z M341 700 L396 700 L452 814 L382 814 L341 700 L341 700 Z " />
<glyph glyph-name="OE" unicode="&#x152;" horiz-adv-x="662" d="M796 683 L817 809 L498 809 L496 792 C474 802 449 808 422 808 L413 808 C304 808 199 719 180 610 L108 198 C89 89 162 0 271 0 L281 0 C307 0 334 5 359 14 L356 0 L676 0 L697 126 L504 126 L536 307 L637 307 L659 433 L558 433 L602 683 L796 683 L796 683 Z M388 198 C380 158 342 126 302 126 L293 126 C253 126 227 158 234 198 L306 610 C313 649 352 682 391 682 L401 682 C440 682 467 649 460 610 L388 198 L388 198 Z " />
<glyph glyph-name="oe" unicode="&#x153;" horiz-adv-x="656" d="M676 241 L701 384 C720 493 656 582 558 582 C514 582 470 564 434 535 C408 564 372 582 328 582 C229 582 133 493 114 384 L80 197 C62 89 126 -1 224 -1 C269 -1 312 17 348 47 C374 18 413 0 456 0 C554 0 649 89 668 198 L542 198 C535 160 505 126 478 126 C450 126 431 160 438 198 L445 241 L676 241 L676 241 Z M536 456 C564 456 582 422 575 384 L571 367 L467 367 L470 384 C478 422 509 456 536 456 L536 456 Z M311 197 C305 160 275 126 247 126 C220 126 200 160 206 197 L240 384 C247 422 278 456 306 456 C334 456 352 422 344 384 L312 198 L311 197 L311 197 Z " />
<glyph glyph-name="Racute" unicode="&#x154;" horiz-adv-x="455" d="M495 462 L522 618 C541 724 473 810 370 810 L171 810 L97 397 L75 270 L28 0 L154 0 L201 270 L265 270 C305 270 331 238 325 198 L291 0 L417 0 L451 198 C460 250 449 296 423 332 C460 366 486 412 495 462 L495 462 Z M274 684 L347 684 C381 684 403 654 396 618 L369 462 C363 426 330 397 297 397 L223 397 L274 684 L274 684 Z M334 924 L388 924 L443 1038 L373 1038 L334 924 L334 924 Z " />
<glyph glyph-name="racute" unicode="&#x155;" horiz-adv-x="379" d="M318 582 C300 582 266 569 249 544 L256 583 L130 583 L95 384 L57 167 L28 0 L154 0 L183 167 L221 384 C228 422 259 456 286 456 C300 456 312 449 320 434 L435 508 C410 556 363 582 318 582 L318 582 Z M258 700 L312 700 L367 814 L297 814 L258 700 L258 700 Z " />
<glyph glyph-name="Rcommaaccent" unicode="&#x156;" horiz-adv-x="455" d="M495 462 L522 618 C541 724 473 810 370 810 L171 810 L97 397 L75 270 L28 0 L154 0 L201 270 L265 270 C305 270 331 238 325 198 L291 0 L417 0 L451 198 C460 250 449 296 423 332 C460 366 486 412 495 462 L495 462 Z M274 684 L347 684 C381 684 403 654 396 618 L369 462 C363 426 330 397 297 397 L223 397 L274 684 L274 684 Z M248 -33 L164 -33 L150 -112 L188 -112 L188 -112 C180 -149 156 -145 156 -145 L150 -175 C224 -175 234 -112 234 -112 L248 -33 L248 -33 Z " />
<glyph glyph-name="rcommaaccent" unicode="&#x157;" horiz-adv-x="379" d="M318 582 C300 582 266 569 249 544 L256 583 L130 583 L95 384 L57 167 L28 0 L154 0 L183 167 L221 384 C228 422 259 456 286 456 C300 456 312 449 320 434 L435 508 C410 556 363 582 318 582 L318 582 Z M122 -39 L38 -39 L24 -118 L62 -118 L62 -118 C54 -155 30 -151 30 -151 L24 -181 C98 -181 108 -118 108 -118 L122 -39 L122 -39 Z " />
<glyph glyph-name="Rcaron" unicode="&#x158;" horiz-adv-x="455" d="M495 462 L522 618 C541 724 473 810 370 810 L171 810 L97 397 L75 270 L28 0 L154 0 L201 270 L265 270 C305 270 331 238 325 198 L291 0 L417 0 L451 198 C460 250 449 296 423 332 C460 366 486 412 495 462 L495 462 Z M274 684 L347 684 C381 684 403 654 396 618 L369 462 C363 426 330 397 297 397 L223 397 L274 684 L274 684 Z M398 979 L302 1022 L232 907 L374 841 L543 909 L514 1024 L398 979 L398 979 Z " />
<glyph glyph-name="rcaron" unicode="&#x159;" horiz-adv-x="379" d="M318 582 C300 582 266 569 249 544 L256 583 L130 583 L95 384 L57 167 L28 0 L154 0 L183 167 L221 384 C228 422 259 456 286 456 C300 456 312 449 320 434 L435 508 C410 556 363 582 318 582 L318 582 Z M323 755 L227 798 L157 683 L299 617 L468 685 L439 800 L323 755 L323 755 Z " />
<glyph glyph-name="Sacute" unicode="&#x15a;" horiz-adv-x="479" d="M348 456 C287 516 252 560 263 625 C270 658 307 684 349 684 C389 684 418 654 411 617 L537 617 C556 724 481 810 372 810 C261 810 157 730 138 626 C114 499 189 420 249 359 C311 298 348 257 335 188 C331 170 322 126 251 126 C210 126 181 156 189 193 L63 193 C43 86 119 0 229 0 C282 0 333 16 372 46 C405 68 445 112 461 185 C486 317 409 394 348 456 L348 456 Z M347 924 L401 924 L456 1038 L386 1038 L347 924 L347 924 Z " />
<glyph glyph-name="sacute" unicode="&#x15b;" horiz-adv-x="398" d="M294 346 C246 385 226 407 232 434 C233 439 235 444 242 449 C252 455 262 457 267 456 C289 454 312 437 322 422 L430 508 C408 538 364 574 306 582 C265 587 215 572 179 545 C141 520 116 482 107 442 C84 342 151 284 199 242 C246 203 267 181 260 151 C254 127 227 126 219 126 L218 126 C197 126 174 148 170 158 L47 103 C64 47 130 1 194 0 C196 0 198 0 199 0 C286 0 362 59 383 140 C411 244 343 302 294 346 L294 346 Z M268 700 L322 700 L377 814 L307 814 L268 700 L268 700 Z " />
<glyph glyph-name="Scircumflex" unicode="&#x15c;" horiz-adv-x="479" d="M348 456 C287 516 252 560 263 625 C270 658 307 684 349 684 C389 684 418 654 411 617 L537 617 C556 724 481 810 372 810 C261 810 157 730 138 626 C114 499 189 420 249 359 C311 298 348 257 335 188 C331 170 322 126 251 126 C210 126 181 156 189 193 L63 193 C43 86 119 0 229 0 C282 0 333 16 372 46 C405 68 445 112 461 185 C486 317 409 394 348 456 L348 456 Z M471 853 L541 968 L396 1036 L230 970 L259 855 L372 898 L471 853 Z " />
<glyph glyph-name="scircumflex" unicode="&#x15d;" horiz-adv-x="398" d="M294 346 C246 385 226 407 232 434 C233 439 235 444 242 449 C252 455 262 457 267 456 C289 454 312 437 322 422 L430 508 C408 538 364 574 306 582 C265 587 215 572 179 545 C141 520 116 482 107 442 C84 342 151 284 199 242 C246 203 267 181 260 151 C254 127 227 126 219 126 L218 126 C197 126 174 148 170 158 L47 103 C64 47 130 1 194 0 C196 0 198 0 199 0 C286 0 362 59 383 140 C411 244 343 302 294 346 L294 346 Z M392 629 L462 744 L317 812 L151 746 L180 631 L293 674 L392 629 Z " />
<glyph glyph-name="Scedilla" unicode="&#x15e;" horiz-adv-x="479" d="M348 456 C287 516 252 560 263 625 C270 658 307 684 349 684 C389 684 418 654 411 617 L537 617 C556 724 481 810 372 810 C261 810 157 730 138 626 C114 499 189 420 249 359 C311 298 348 257 335 188 C331 170 322 126 251 126 C210 126 181 156 189 193 L63 193 C43 86 119 0 229 0 C282 0 333 16 372 46 C405 68 445 112 461 185 C486 317 409 394 348 456 L348 456 Z M303 52 L177 52 C170 8 180 -20 190 -41 C188 -41 185 -41 182 -41 L159 -167 C246 -167 317 -120 329 -52 C335 -14 320 10 310 24 C303 37 300 41 303 52 L303 52 Z " />
<glyph glyph-name="scedilla" unicode="&#x15f;" horiz-adv-x="398" d="M294 346 C246 385 226 407 232 434 C233 439 235 444 242 449 C252 455 262 457 267 456 C289 454 312 437 322 422 L430 508 C408 538 364 574 306 582 C265 587 215 572 179 545 C141 520 116 482 107 442 C84 342 151 284 199 242 C246 203 267 181 260 151 C254 127 227 126 219 126 L218 126 C197 126 174 148 170 158 L47 103 C64 47 130 1 194 0 C196 0 198 0 199 0 C286 0 362 59 383 140 C411 244 343 302 294 346 L294 346 Z M262 52 L136 52 C129 8 139 -20 149 -41 C147 -41 144 -41 141 -41 L118 -167 C205 -167 276 -120 288 -52 C294 -14 279 10 269 24 C262 37 259 41 262 52 L262 52 Z " />
<glyph glyph-name="Scaron" unicode="&#x160;" horiz-adv-x="479" d="M348 456 C287 516 252 560 263 625 C270 658 307 684 349 684 C389 684 418 654 411 617 L537 617 C556 724 481 810 372 810 C261 810 157 730 138 626 C114 499 189 420 249 359 C311 298 348 257 335 188 C331 170 322 126 251 126 C210 126 181 156 189 193 L63 193 C43 86 119 0 229 0 C282 0 333 16 372 46 C405 68 445 112 461 185 C486 317 409 394 348 456 L348 456 Z M412 979 L316 1022 L246 907 L388 841 L557 909 L528 1024 L412 979 L412 979 Z " />
<glyph glyph-name="scaron" unicode="&#x161;" horiz-adv-x="398" d="M294 346 C246 385 226 407 232 434 C233 439 235 444 242 449 C252 455 262 457 267 456 C289 454 312 437 322 422 L430 508 C408 538 364 574 306 582 C265 587 215 572 179 545 C141 520 116 482 107 442 C84 342 151 284 199 242 C246 203 267 181 260 151 C254 127 227 126 219 126 L218 126 C197 126 174 148 170 158 L47 103 C64 47 130 1 194 0 C196 0 198 0 199 0 C286 0 362 59 383 140 C411 244 343 302 294 346 L294 346 Z M334 755 L238 798 L168 683 L310 617 L479 685 L450 800 L334 755 L334 755 Z " />
<glyph glyph-name="Tcommaaccent" unicode="&#x162;" horiz-adv-x="436" d="M538 810 L171 810 L148 684 L269 684 L149 0 L275 0 L395 684 L515 684 L538 810 L538 810 Z M238 -50 L154 -50 L140 -129 L178 -129 L178 -129 C170 -166 146 -162 146 -162 L140 -192 C214 -192 224 -129 224 -129 L238 -50 L238 -50 Z " />
<glyph glyph-name="tcommaaccent" unicode="&#x163;" horiz-adv-x="397" d="M253 125 C243 127 236 154 243 198 L289 457 L378 457 L400 583 L311 583 L335 720 L209 720 L185 583 L136 583 L114 457 L163 457 L117 198 C98 86 152 0 238 0 C285 0 333 25 370 71 L276 139 C267 128 263 122 253 125 L253 125 Z " />
<glyph glyph-name="Tcaron" unicode="&#x164;" horiz-adv-x="436" d="M538 810 L171 810 L148 684 L269 684 L149 0 L275 0 L395 684 L515 684 L538 810 L538 810 Z M389 979 L293 1022 L223 907 L365 841 L534 909 L505 1024 L389 979 L389 979 Z " />
<glyph glyph-name="tcaron" unicode="&#x165;" horiz-adv-x="520" d="M253 125 C243 127 236 154 243 198 L289 457 L378 457 L400 583 L311 583 L335 720 L209 720 L185 583 L136 583 L114 457 L163 457 L117 198 C98 86 152 0 238 0 C285 0 333 25 370 71 L276 139 C267 128 263 122 253 125 L253 125 Z M461 811 L377 811 L363 732 L400 732 L400 732 C394 695 369 698 369 698 L364 668 C437 668 447 732 447 732 L461 811 L461 811 Z " />
<glyph glyph-name="Tbar" unicode="&#x166;" horiz-adv-x="401" d="M538 810 L171 810 L148 684 L269 684 L149 0 L275 0 L395 684 L515 684 L538 810 L538 810 Z M121 428 L466 428 L491 561 L145 561 L121 428 L121 428 Z " />
<glyph glyph-name="tbar" unicode="&#x167;" horiz-adv-x="397" d="M253 125 C243 127 236 154 243 198 L289 457 L378 457 L400 583 L311 583 L335 720 L209 720 L185 583 L136 583 L114 457 L163 457 L117 198 C98 86 152 0 238 0 C285 0 333 25 370 71 L276 139 C267 128 263 122 253 125 L253 125 Z M95 331 L359 331 L378 453 L113 453 L95 331 L95 331 Z " />
<glyph glyph-name="Utilde" unicode="&#x168;" horiz-adv-x="476" d="M342 198 C335 158 297 126 257 126 L247 126 C208 126 181 158 189 198 L297 810 L171 810 L63 198 C43 89 117 0 226 0 L235 0 C345 0 449 89 468 198 L576 810 L450 810 L342 198 L342 198 Z M334 944 C334 944 334 944 334 944 C345 944 358 934 372 924 C399 907 429 884 478 885 C530 885 582 910 646 966 L574 1054 C527 1015 506 1011 498 1011 C498 1011 498 1011 498 1011 C488 1011 474 1020 459 1030 C435 1048 404 1070 357 1070 C357 1070 357 1070 356 1070 C305 1070 252 1045 189 991 L262 902 C308 939 327 944 334 944 L334 944 Z " />
<glyph glyph-name="utilde" unicode="&#x169;" horiz-adv-x="442" d="M311 198 C305 160 275 126 248 126 C220 126 201 160 207 198 L275 583 L149 583 L81 198 C62 89 125 0 216 0 C234 0 269 19 283 38 L277 0 L403 0 L437 198 L505 583 L379 583 L311 198 Z M278 720 C278 720 278 720 278 720 C289 720 302 710 316 700 C343 683 373 660 422 661 C474 661 526 686 590 742 L518 830 C471 791 450 787 442 787 C442 787 442 787 442 787 C432 787 418 796 403 806 C379 824 348 846 301 846 C301 846 301 846 300 846 C249 846 196 821 133 767 L206 678 C252 715 271 720 278 720 L278 720 Z " />
<glyph glyph-name="Umacron" unicode="&#x16a;" horiz-adv-x="476" d="M342 198 C335 158 297 126 257 126 L247 126 C208 126 181 158 189 198 L297 810 L171 810 L63 198 C43 89 117 0 226 0 L235 0 C345 0 449 89 468 198 L576 810 L450 810 L342 198 L342 198 Z M397 997 L301 1040 L231 925 L373 859 L542 927 L513 1042 L397 997 L397 997 Z " />
<glyph glyph-name="umacron" unicode="&#x16b;" horiz-adv-x="421" d="M311 198 C305 160 275 126 248 126 C220 126 201 160 207 198 L275 583 L149 583 L81 198 C62 89 125 0 216 0 C234 0 269 19 283 38 L277 0 L403 0 L437 198 L505 583 L379 583 L311 198 Z M364 766 L268 809 L198 694 L340 628 L509 696 L480 811 L364 766 L364 766 Z " />
<glyph glyph-name="Ubreve" unicode="&#x16c;" horiz-adv-x="476" d="M342 198 C335 158 297 126 257 126 L247 126 C208 126 181 158 189 198 L297 810 L171 810 L63 198 C43 89 117 0 226 0 L235 0 C345 0 449 89 468 198 L576 810 L450 810 L342 198 L342 198 Z M484 1038 C476 999 446 966 418 966 C390 966 372 999 379 1038 L253 1038 C234 928 298 840 396 840 C494 840 590 928 610 1038 L484 1038 L484 1038 Z " />
<glyph glyph-name="ubreve" unicode="&#x16d;" horiz-adv-x="442" d="M311 198 C305 160 275 126 248 126 C220 126 201 160 207 198 L275 583 L149 583 L81 198 C62 89 125 0 216 0 C234 0 269 19 283 38 L277 0 L403 0 L437 198 L505 583 L379 583 L311 198 Z M429 814 C421 775 391 742 363 742 C335 742 317 775 324 814 L198 814 C179 704 243 616 341 616 C439 616 535 704 555 814 L429 814 L429 814 Z " />
<glyph glyph-name="Uring" unicode="&#x16e;" horiz-adv-x="476" d="M342 198 C335 158 297 126 257 126 L247 126 C208 126 181 158 189 198 L297 810 L171 810 L63 198 C43 89 117 0 226 0 L235 0 C345 0 449 89 468 198 L576 810 L450 810 L342 198 L342 198 Z M518 951 C528 1008 490 1053 434 1053 C377 1053 324 1008 314 951 C304 894 341 848 398 848 C454 848 508 894 518 951 L518 951 Z M414 939 C408 939 404 944 405 951 C406 957 412 962 418 962 C424 962 428 957 426 951 C425 944 420 939 414 939 L414 939 Z " />
<glyph glyph-name="uring" unicode="&#x16f;" horiz-adv-x="421" d="M311 198 C305 160 275 126 248 126 C220 126 201 160 207 198 L275 583 L149 583 L81 198 C62 89 125 0 216 0 C234 0 269 19 283 38 L277 0 L403 0 L437 198 L505 583 L379 583 L311 198 Z M450 727 C460 784 422 829 366 829 C309 829 256 784 246 727 C236 670 273 624 330 624 C386 624 440 670 450 727 L450 727 Z M346 715 C340 715 336 720 337 727 C338 733 344 738 350 738 C356 738 360 733 358 727 C357 720 352 715 346 715 L346 715 Z " />
<glyph glyph-name="Uhungarumlaut" unicode="&#x170;" horiz-adv-x="476" d="M342 198 C335 158 297 126 257 126 L247 126 C208 126 181 158 189 198 L297 810 L171 810 L63 198 C43 89 117 0 226 0 L235 0 C345 0 449 89 468 198 L576 810 L450 810 L342 198 L342 198 Z M292 924 L346 924 L401 1038 L331 1038 L292 924 L292 924 Z M384 924 L439 924 L495 1038 L425 1038 L384 924 L384 924 Z " />
<glyph glyph-name="uhungarumlaut" unicode="&#x171;" horiz-adv-x="421" d="M311 198 C305 160 275 126 248 126 C220 126 201 160 207 198 L275 583 L149 583 L81 198 C62 89 125 0 216 0 C234 0 269 19 283 38 L277 0 L403 0 L437 198 L505 583 L379 583 L311 198 Z M226 700 L280 700 L335 814 L265 814 L226 700 L226 700 Z M318 700 L373 700 L429 814 L359 814 L318 700 L318 700 Z " />
<glyph glyph-name="Uogonek" unicode="&#x172;" horiz-adv-x="464" d="M361 198 C354 158 316 126 276 126 L266 126 C227 126 200 158 208 198 L316 810 L190 810 L82 198 C62 89 136 0 245 0 L254 0 C364 0 468 89 487 198 L595 810 L469 810 L361 198 L361 198 Z M206 52 C204 41 200 37 188 24 C174 10 150 -14 144 -52 C132 -120 185 -167 272 -167 L295 -41 C293 -41 289 -41 287 -41 C305 -20 325 8 332 52 L206 52 L206 52 Z " />
<glyph glyph-name="uogonek" unicode="&#x173;" horiz-adv-x="421" d="M311 198 C305 160 275 126 248 126 C220 126 201 160 207 198 L275 583 L149 583 L81 198 C62 89 125 0 216 0 C234 0 269 19 283 38 L277 0 L403 0 L437 198 L505 583 L379 583 L311 198 Z M273 4 C271 -7 267 -11 255 -24 C241 -38 217 -62 211 -100 C199 -168 252 -215 339 -215 L362 -89 C360 -89 356 -89 354 -89 C372 -68 392 -40 399 4 L273 4 L273 4 Z " />
<glyph glyph-name="Ydieresis" unicode="&#x178;" horiz-adv-x="496" d="M303 810 L171 810 L239 310 L185 0 L311 0 L365 312 L605 810 L474 810 L341 533 L303 810 Z M407 881 L484 881 L498 959 L422 959 L407 881 L407 881 Z M285 881 L362 881 L376 959 L299 959 L285 881 L285 881 Z " />
<glyph glyph-name="Zacute" unicode="&#x179;" horiz-adv-x="492" d="M210 810 L187 684 L403 684 L28 0 L435 0 L456 126 L232 126 L609 811 L210 810 Z M399 924 L453 924 L508 1038 L438 1038 L399 924 L399 924 Z " />
<glyph glyph-name="zacute" unicode="&#x17a;" horiz-adv-x="418" d="M538 583 L189 583 L167 457 L324 457 L47 0 L402 0 L424 126 L261 126 L538 583 L538 583 Z M276 700 L330 700 L385 814 L315 814 L276 700 L276 700 Z " />
<glyph glyph-name="Zdotaccent" unicode="&#x17b;" horiz-adv-x="492" d="M210 810 L187 684 L403 684 L28 0 L435 0 L456 126 L232 126 L609 811 L210 810 Z M421 861 C455 861 486 889 492 922 C497 955 475 982 442 982 C408 982 377 955 372 922 C366 889 388 861 421 861 L421 861 Z " />
<glyph glyph-name="zdotaccent" unicode="&#x17c;" horiz-adv-x="418" d="M538 583 L189 583 L167 457 L324 457 L47 0 L402 0 L424 126 L261 126 L538 583 L538 583 Z M360 715 C394 715 425 743 431 776 C436 809 414 836 381 836 C347 836 316 809 311 776 C305 743 327 715 360 715 L360 715 Z " />
<glyph glyph-name="Zcaron" unicode="&#x17d;" horiz-adv-x="510" d="M210 810 L187 684 L403 684 L28 0 L435 0 L456 126 L232 126 L609 811 L210 810 Z M439 989 L343 1032 L273 917 L415 851 L584 919 L555 1034 L439 989 L439 989 Z " />
<glyph glyph-name="zcaron" unicode="&#x17e;" horiz-adv-x="487" d="M538 583 L189 583 L167 457 L324 457 L47 0 L402 0 L424 126 L261 126 L538 583 L538 583 Z M380 755 L284 798 L214 683 L356 617 L525 685 L496 800 L380 755 L380 755 Z " />
<glyph glyph-name="florin" unicode="&#x192;" horiz-adv-x="418" d="M394 730 C406 730 414 724 419 718 L520 811 C493 840 456 856 415 856 C317 856 222 767 203 656 L190 583 L146 583 L125 457 L168 457 L124 205 C115 158 85 133 78 132 C78 132 78 132 78 132 L55 6 C143 6 229 95 250 205 L294 457 L366 457 L388 583 L316 583 L329 656 C336 695 366 730 394 730 L394 730 Z " />
<glyph glyph-name="Scommaaccent" unicode="&#x218;" horiz-adv-x="479" d="M348 456 C287 516 252 560 263 625 C270 658 307 684 349 684 C389 684 418 654 411 617 L537 617 C556 724 481 810 372 810 C261 810 157 730 138 626 C114 499 189 420 249 359 C311 298 348 257 335 188 C331 170 322 126 251 126 C210 126 181 156 189 193 L63 193 C43 86 119 0 229 0 C282 0 333 16 372 46 C405 68 445 112 461 185 C486 317 409 394 348 456 L348 456 Z M243 -39 L159 -39 L145 -118 L183 -118 L183 -118 C175 -155 151 -151 151 -151 L145 -181 C219 -181 229 -118 229 -118 L243 -39 L243 -39 Z " />
<glyph glyph-name="scommaaccent" unicode="&#x219;" horiz-adv-x="398" d="M294 346 C246 385 226 407 232 434 C233 439 235 444 242 449 C252 455 262 457 267 456 C289 454 312 437 322 422 L430 508 C408 538 364 574 306 582 C265 587 215 572 179 545 C141 520 116 482 107 442 C84 342 151 284 199 242 C246 203 267 181 260 151 C254 127 227 126 219 126 L218 126 C197 126 174 148 170 158 L47 103 C64 47 130 1 194 0 C196 0 198 0 199 0 C286 0 362 59 383 140 C411 244 343 302 294 346 L294 346 Z M208 -36 L124 -36 L110 -115 L148 -115 L148 -115 C140 -152 116 -148 116 -148 L110 -178 C184 -178 194 -115 194 -115 L208 -36 L208 -36 Z " />
<glyph glyph-name="circumflex" unicode="&#x2c6;" horiz-adv-x="445" d="M416 629 L486 744 L341 812 L175 746 L204 631 L317 674 L416 629 Z " />
<glyph glyph-name="caron" unicode="&#x2c7;" horiz-adv-x="401" d="M330 755 L234 798 L164 683 L306 617 L475 685 L446 800 L330 755 L330 755 Z " />
<glyph glyph-name="breve" unicode="&#x2d8;" horiz-adv-x="428" d="M418 814 C410 775 380 742 352 742 C324 742 306 775 313 814 L187 814 C168 704 232 616 330 616 C428 616 524 704 544 814 L418 814 L418 814 Z " />
<glyph glyph-name="dotaccent" unicode="&#x2d9;" horiz-adv-x="199" d="M230 715 C264 715 295 743 301 776 C306 809 284 836 251 836 C217 836 186 809 181 776 C175 743 197 715 230 715 L230 715 Z " />
<glyph glyph-name="ring" unicode="&#x2da;" horiz-adv-x="277" d="M376 727 C386 784 348 829 292 829 C235 829 182 784 172 727 C162 670 199 624 256 624 C312 624 366 670 376 727 L376 727 Z M272 715 C266 715 262 720 263 727 C264 733 270 738 276 738 C282 738 286 733 284 727 C283 720 278 715 272 715 L272 715 Z " />
<glyph glyph-name="ogonek" unicode="&#x2db;" horiz-adv-x="240" d="M97 52 C95 41 91 37 79 24 C65 10 41 -14 35 -52 C23 -120 76 -167 163 -167 L186 -41 C184 -41 180 -41 178 -41 C196 -20 216 8 223 52 L97 52 L97 52 Z " />
<glyph glyph-name="tilde" unicode="&#x2dc;" horiz-adv-x="554" d="M324 720 C324 720 324 720 324 720 C335 720 348 710 362 700 C389 683 419 660 468 661 C520 661 572 686 636 742 L564 830 C517 791 496 787 488 787 C488 787 488 787 488 787 C478 787 464 796 449 806 C425 824 394 846 347 846 C347 846 347 846 346 846 C295 846 242 821 179 767 L252 678 C298 715 317 720 324 720 L324 720 Z " />
<glyph glyph-name="hungarumlaut" unicode="&#x2dd;" horiz-adv-x="278" d="M167 700 L221 700 L276 814 L206 814 L167 700 L167 700 Z M259 700 L314 700 L370 814 L300 814 L259 700 L259 700 Z " />
<glyph glyph-name="tonos" unicode="&#x384;" horiz-adv-x="200" d="M154 698 L206 698 L263 794 L194 794 L154 698 L154 698 Z " />
<glyph glyph-name="dieresistonos" unicode="&#x385;" horiz-adv-x="334" d="M295 732 L372 732 L386 810 L310 810 L295 732 L295 732 Z M173 732 L250 732 L264 810 L187 810 L173 732 L173 732 Z " />
<glyph glyph-name="Alphatonos" unicode="&#x386;" horiz-adv-x="488" d="M204 764 L258 764 L313 878 L243 878 L204 764 L204 764 Z " />
<glyph glyph-name="Epsilontonos" unicode="&#x388;" horiz-adv-x="389" d="M59 759 L113 759 L168 873 L98 873 L59 759 L59 759 Z " />
<glyph glyph-name="Etatonos" unicode="&#x389;" horiz-adv-x="460" d="M75 794 L129 794 L184 908 L114 908 L75 794 L75 794 Z M328 582 C310 582 292 580 274 574 L275 583 L149 583 L114 384 L56 56 L47 0 L173 0 L182 56 L240 384 C247 422 278 456 306 456 C334 456 352 422 344 384 L259 -96 L385 -96 L470 384 C490 493 426 582 328 582 L328 582 Z " />
<glyph glyph-name="Iotatonos" unicode="&#x38a;" horiz-adv-x="199" d="M78 791 L132 791 L187 905 L117 905 L78 791 L78 791 Z " />
<glyph glyph-name="Omicrontonos" unicode="&#x38c;" horiz-adv-x="468" d="M109 749 L163 749 L218 863 L148 863 L109 749 L109 749 Z " />
<glyph glyph-name="Upsilontonos" unicode="&#x38e;" horiz-adv-x="496" d="M76 786 L130 786 L185 900 L115 900 L76 786 L76 786 Z " />
<glyph glyph-name="Omegatonos" unicode="&#x38f;" horiz-adv-x="878" d="M670 127 C761 248 803 359 803 467 C800 618 686 742 546 742 C407 742 250 618 194 467 C156 359 160 248 208 127 L66 127 L44 1 L334 1 L355 128 C293 251 281 349 316 444 C348 535 446 616 526 616 C604 616 673 535 674 444 C676 349 628 251 521 128 L499 1 L790 1 L811 127 L670 127 L670 127 Z " />
<glyph glyph-name="iotadieresistonos" unicode="&#x390;" horiz-adv-x="430" d="M356 664 L433 664 L446 742 L370 742 L356 664 Z M121 666 L198 666 L212 744 L136 744 L121 666 Z M282 110 C279 108 274 107 271 107 C264 107 252 110 256 131 L346 644 L180 644 L159 518 L198 518 L130 131 C121 86 132 48 156 20 C179 -5 213 -19 250 -19 C287 -19 324 -5 354 20 C377 40 406 74 417 131 L291 131 C288 121 286 114 282 110 L282 110 Z M246 700 L300 700 L355 814 L285 814 L246 700 L246 700 Z " />
<glyph glyph-name="Alpha" unicode="&#x391;" horiz-adv-x="516" d="M350 812 L47 0 L175 0 L252 204 L359 204 L365 0 L493 0 L479 811 L350 812 Z M300 330 L355 476 L358 330 L300 330 L300 330 Z " />
<glyph glyph-name="Beta" unicode="&#x392;" horiz-adv-x="450" d="M440 484 C470 517 494 562 503 610 L506 631 C517 731 455 810 364 810 L190 810 L46 -1 L233 -1 C336 -1 436 85 455 191 L480 337 C491 396 474 449 440 484 L440 484 Z M341 684 C364 684 383 653 376 612 L373 596 L373 595 C362 563 337 540 317 540 L268 540 L293 684 L341 684 L341 684 Z M329 191 C322 155 289 125 256 125 L194 125 L244 403 L305 403 C338 403 361 374 354 337 L329 191 L329 191 Z " />
<glyph glyph-name="Gamma" unicode="&#x393;" horiz-adv-x="385" d="M478 806 L179 806 L36 -1 L163 -1 L283 680 L455 680 L478 806 L478 806 Z " />
<glyph glyph-name="&amp;#x394;" unicode="&#x394;" horiz-adv-x="536" d="M462 760 L362 760 L44 1 L515 1 L462 760 Z M376 127 L227 127 L355 432 L376 127 Z " />
<glyph glyph-name="&amp;#x2206;" unicode="&#x2206;" horiz-adv-x="536" d="M462 760 L362 760 L44 1 L515 1 L462 760 Z M376 127 L227 127 L355 432 L376 127 Z " />
<glyph glyph-name="Epsilon" unicode="&#x395;" horiz-adv-x="409" d="M47 0 L366 0 L388 126 L194 126 L227 307 L348 307 L369 433 L248 433 L293 685 L486 685 L509 811 L190 811 L47 0 L47 0 Z " />
<glyph glyph-name="Zeta" unicode="&#x396;" horiz-adv-x="499" d="M229 810 L206 684 L422 684 L47 0 L454 0 L475 126 L251 126 L628 811 L229 810 Z " />
<glyph glyph-name="Eta" unicode="&#x397;" horiz-adv-x="482" d="M389 433 L248 433 L316 811 L190 811 L47 0 L173 0 L227 307 L367 307 L313 0 L439 0 L582 811 L456 811 L389 433 L389 433 Z " />
<glyph glyph-name="Theta" unicode="&#x398;" horiz-adv-x="482" d="M397 810 L388 810 C278 810 173 721 154 612 L82 198 C62 89 136 0 245 0 L254 0 C364 0 468 89 487 198 L559 612 C578 721 506 810 397 810 L397 810 Z M361 198 C354 158 316 126 276 126 L266 126 C227 126 200 158 208 198 L280 612 C287 652 325 684 365 684 L374 684 C414 684 440 652 433 612 L361 198 L361 198 Z M117 348 L354 348 L364 474 L127 474 L117 348 L117 348 Z " />
<glyph glyph-name="Iota" unicode="&#x399;" horiz-adv-x="229" d="M47 0 L173 0 L316 811 L190 811 L47 0 L47 0 Z " />
<glyph glyph-name="Kappa" unicode="&#x39a;" horiz-adv-x="510" d="M472 811 L272 569 L316 811 L190 811 L112 373 L102 317 L47 0 L173 0 L232 336 L268 380 L338 0 L472 0 L378 514 L622 811 L472 811 L472 811 Z " />
<glyph glyph-name="Lambda" unicode="&#x39b;" horiz-adv-x="486" d="M466 430 L626 -1 L755 -1 L455 809 L346 809 L332 -1 L460 -1 L466 430 Z " />
<glyph glyph-name="Mu" unicode="&#x39c;" horiz-adv-x="570" d="M534 811 L372 519 L313 811 L190 811 L47 0 L173 0 L256 472 L283 215 L353 215 L475 481 L391 0 L517 0 L660 811 L534 811 Z " />
<glyph glyph-name="Nu" unicode="&#x39d;" horiz-adv-x="518" d="M324 812 L191 812 L190 812 L48 0 L174 0 L256 468 L350 0 L352 0 L478 0 L620 810 L494 810 L414 356 L324 812 Z " />
<glyph glyph-name="Xi" unicode="&#x39e;" horiz-adv-x="492" d="M120 341 L381 341 L393 467 L132 467 L120 341 L120 341 Z M155 732 L501 732 L517 858 L171 858 L155 732 L155 732 Z M21 -40 L367 -40 L383 86 L37 86 L21 -40 L21 -40 Z " />
<glyph glyph-name="Omicron" unicode="&#x39f;" horiz-adv-x="482" d="M397 810 L388 810 C278 810 173 721 154 612 L82 198 C62 89 136 0 245 0 L254 0 C364 0 468 89 487 198 L559 612 C578 721 506 810 397 810 L397 810 Z M361 198 C354 158 316 126 276 126 L266 126 C227 126 200 158 208 198 L280 612 C287 652 325 684 365 684 L374 684 C414 684 440 652 433 612 L361 198 L361 198 Z " />
<glyph glyph-name="Pi" unicode="&#x3a0;" horiz-adv-x="601" d="M230 -1 L334 583 L446 583 L343 -1 L469 -1 L572 583 L646 583 L668 709 L169 709 L146 583 L206 583 L103 -1 L230 -1 L230 -1 Z " />
<glyph glyph-name="Rho" unicode="&#x3a1;" horiz-adv-x="475" d="M389 811 L190 811 L190 810 L46 -1 L172 -1 L220 270 L293 270 C396 270 496 356 514 462 L541 619 C560 725 492 811 389 811 L389 811 Z M388 462 C382 425 349 396 316 396 L242 396 L293 685 L366 685 C400 685 422 655 415 619 L388 462 L388 462 Z " />
<glyph glyph-name="Sigma" unicode="&#x3a3;" horiz-adv-x="492" d="M463 -5 L485 121 L275 121 L427 282 L335 456 L545 456 L566 582 L146 582 L284 282 L43 -5 L463 -5 L463 -5 Z " />
<glyph glyph-name="Tau" unicode="&#x3a4;" horiz-adv-x="413" d="M557 810 L190 810 L167 684 L288 684 L168 0 L294 0 L414 684 L534 684 L557 810 L557 810 Z " />
<glyph glyph-name="Upsilon" unicode="&#x3a5;" horiz-adv-x="494" d="M322 810 L190 810 L258 310 L204 0 L330 0 L384 312 L624 810 L493 810 L360 533 L322 810 Z " />
<glyph glyph-name="Phi" unicode="&#x3a6;" horiz-adv-x="482" d="M397 810 L388 810 C278 810 173 721 154 612 L82 198 C62 89 136 0 245 0 L254 0 C364 0 468 89 487 198 L559 612 C578 721 506 810 397 810 L397 810 Z M361 198 C354 158 316 126 276 126 L266 126 C227 126 200 158 208 198 L280 612 C287 652 325 684 365 684 L374 684 C414 684 440 652 433 612 L361 198 L361 198 Z M174 -61 L300 -61 L468 894 L342 894 L174 -61 L174 -61 Z " />
<glyph glyph-name="Chi" unicode="&#x3a7;" horiz-adv-x="510" d="M493 810 L365 571 L324 810 L190 810 L266 383 L62 0 L196 0 L299 196 L336 0 L469 0 L400 383 L628 810 L493 810 L493 810 Z " />
<glyph glyph-name="Psi" unicode="&#x3a8;" horiz-adv-x="478" d="M505 809 L462 560 C456 526 431 496 406 490 L462 809 L336 809 L280 490 C257 496 244 526 250 560 L293 809 L167 809 L124 560 C104 454 163 367 258 362 L194 1 L320 1 L384 362 C479 367 569 454 588 560 L631 809 L505 809 L505 809 Z " />
<glyph glyph-name="&amp;#x3a9;" unicode="&#x3a9;" horiz-adv-x="858" d="M670 127 C761 248 803 359 803 467 C800 618 686 742 546 742 C407 742 250 618 194 467 C156 359 160 248 208 127 L66 127 L44 1 L334 1 L355 128 C293 251 281 349 316 444 C348 535 446 616 526 616 C604 616 673 535 674 444 C676 349 628 251 521 128 L499 1 L790 1 L811 127 L670 127 L670 127 Z " />
<glyph glyph-name="&amp;#x2126;" unicode="&#x2126;" horiz-adv-x="858" d="M670 127 C761 248 803 359 803 467 C800 618 686 742 546 742 C407 742 250 618 194 467 C156 359 160 248 208 127 L66 127 L44 1 L334 1 L355 128 C293 251 281 349 316 444 C348 535 446 616 526 616 C604 616 673 535 674 444 C676 349 628 251 521 128 L499 1 L790 1 L811 127 L670 127 L670 127 Z " />
<glyph glyph-name="Iotadieresis" unicode="&#x3aa;" horiz-adv-x="199" d="M272 956 L349 956 L363 1034 L287 1034 L272 956 L272 956 Z M150 956 L227 956 L241 1034 L164 1034 L150 956 L150 956 Z " />
<glyph glyph-name="Upsilondieresis" unicode="&#x3ab;" horiz-adv-x="500" d="M453 912 L530 912 L544 990 L468 990 L453 912 L453 912 Z M331 912 L408 912 L422 990 L345 990 L331 912 L331 912 Z M322 810 L190 810 L258 310 L204 0 L330 0 L384 312 L624 810 L493 810 L360 533 L322 810 Z " />
<glyph glyph-name="alphatonos" unicode="&#x3ac;" horiz-adv-x="730" d="M460 78 C482 16 526 1 559 1 C604 1 709 19 738 181 L612 181 C607 152 601 139 596 133 C595 130 593 128 586 127 C583 132 577 143 574 167 C572 180 570 194 569 209 C658 344 710 506 725 588 L599 588 C592 547 574 488 548 427 C546 444 541 461 536 478 C500 582 426 604 372 604 C301 604 234 562 179 486 C137 427 106 350 92 274 C83 224 78 151 106 89 C132 26 186 -8 257 -8 C332 -8 401 25 460 78 L460 78 Z M218 274 C236 378 301 478 350 478 C419 478 430 376 437 242 C437 236 437 230 438 224 C395 168 340 118 280 118 C194 118 214 248 218 274 L218 274 Z M433 700 L487 700 L542 814 L472 814 L433 700 L433 700 Z " />
<glyph glyph-name="epsilontonos" unicode="&#x3ad;" horiz-adv-x="448" d="M436 198 L310 198 C302 160 272 126 244 126 C216 126 198 160 205 198 L214 246 L216 263 L389 263 L412 389 L239 389 L244 416 L252 464 C258 503 288 536 316 536 C344 536 362 503 356 464 L482 464 C502 574 437 662 338 662 C240 662 145 574 126 464 L118 416 L88 246 L79 198 C60 89 124 0 222 0 C320 0 416 89 436 198 L436 198 Z M293 700 L347 700 L402 814 L332 814 L293 700 L293 700 Z " />
<glyph glyph-name="etatonos" unicode="&#x3ae;" horiz-adv-x="426" d="M328 582 C310 582 292 580 274 574 L275 583 L149 583 L114 384 L56 56 L47 0 L173 0 L182 56 L240 384 C247 422 278 456 306 456 C334 456 352 422 344 384 L259 -96 L385 -96 L470 384 C490 493 426 582 328 582 L328 582 Z M281 700 L335 700 L390 814 L320 814 L281 700 L281 700 Z " />
<glyph glyph-name="iotatonos" unicode="&#x3af;" horiz-adv-x="388" d="M259 110 C256 108 251 107 248 107 C241 107 229 110 233 131 L323 644 L157 644 L136 518 L175 518 L107 131 C98 86 109 48 133 20 C156 -5 190 -19 227 -19 C264 -19 301 -5 331 20 C354 40 383 74 394 131 L268 131 C265 121 263 114 259 110 L259 110 Z M262 700 L316 700 L371 814 L301 814 L262 700 L262 700 Z " />
<glyph glyph-name="upsilondieresistonos" unicode="&#x3b0;" horiz-adv-x="570" d="M472 640 L548 640 L563 718 L486 718 L472 640 L472 640 Z M238 642 L314 642 L328 720 L251 720 L238 642 L238 642 Z M371 700 L425 700 L480 814 L410 814 L371 700 L371 700 Z M265 -4 C343 -4 421 37 482 112 C589 242 636 457 590 624 L467 574 C500 446 466 275 388 180 C365 152 340 134 314 127 C310 152 305 212 312 344 C317 450 328 548 326 550 L336 631 L157 574 L176 455 L192 460 C188 414 185 354 182 294 C179 221 179 162 184 120 C187 83 194 -4 265 -4 L265 -4 Z " />
<glyph glyph-name="alpha" unicode="&#x3b1;" horiz-adv-x="730" d="M460 78 C482 16 526 1 559 1 C604 1 709 19 738 181 L612 181 C607 152 601 139 596 133 C595 130 593 128 586 127 C583 132 577 143 574 167 C572 180 570 194 569 209 C658 344 710 506 725 588 L599 588 C592 547 574 488 548 427 C546 444 541 461 536 478 C500 582 426 604 372 604 C301 604 234 562 179 486 C137 427 106 350 92 274 C83 224 78 151 106 89 C132 26 186 -8 257 -8 C332 -8 401 25 460 78 L460 78 Z M218 274 C236 378 301 478 350 478 C419 478 430 376 437 242 C437 236 437 230 438 224 C395 168 340 118 280 118 C194 118 214 248 218 274 L218 274 Z " />
<glyph glyph-name="beta" unicode="&#x3b2;" horiz-adv-x="498" d="M248 128 C239 128 232 130 223 130 L200 4 C211 4 233 1 254 1 C360 1 482 59 520 266 C539 379 522 462 470 511 C505 546 534 594 545 656 C565 773 502 860 390 860 C277 860 180 775 163 676 L14 -167 L140 -167 L289 676 C295 708 326 734 366 734 C416 734 425 694 419 658 C402 559 300 553 296 553 L294 428 C301 430 311 431 319 431 C380 431 414 383 394 266 C374 163 346 127 278 127 C269 127 259 127 248 128 L248 128 Z " />
<glyph glyph-name="gamma" unicode="&#x3b3;" horiz-adv-x="626" d="M721 582 L638 662 C577 601 523 530 476 449 C467 510 450 557 425 590 C396 630 354 650 304 650 C248 650 211 626 190 607 C138 559 130 496 130 484 L257 496 C257 502 262 517 268 522 C269 523 275 524 282 524 C292 524 305 522 318 504 C341 474 374 385 342 128 C342 125 341 121 341 118 C296 -46 287 -170 288 -176 L414 -174 C415 -168 446 -41 467 112 C509 263 586 446 721 582 L721 582 Z " />
<glyph glyph-name="delta" unicode="&#x3b4;" horiz-adv-x="458" d="M257 -18 C338 -18 414 28 452 100 C503 190 486 298 412 376 C326 463 325 511 325 522 C328 523 336 524 347 524 C401 524 410 502 412 500 C412 500 410 502 412 504 L535 554 C532 564 506 650 368 650 C301 650 242 619 215 568 C196 533 185 482 216 413 C163 356 125 302 101 252 C72 192 64 137 78 91 C98 22 163 -18 257 -18 L257 -18 Z M282 313 C290 302 300 292 312 281 C359 232 360 176 343 144 C330 120 307 108 278 108 C258 108 210 112 202 145 C192 173 210 230 282 313 L282 313 Z " />
<glyph glyph-name="epsilon" unicode="&#x3b5;" horiz-adv-x="448" d="M436 198 L310 198 C302 160 272 126 244 126 C216 126 198 160 205 198 L214 246 L216 263 L389 263 L412 389 L239 389 L244 416 L252 464 C258 503 288 536 316 536 C344 536 362 503 356 464 L482 464 C502 574 437 662 338 662 C240 662 145 574 126 464 L118 416 L88 246 L79 198 C60 89 124 0 222 0 C320 0 416 89 436 198 L436 198 Z " />
<glyph glyph-name="zeta" unicode="&#x3b6;" horiz-adv-x="601" d="M209 523 C197 493 186 461 176 426 C113 172 107 77 149 20 C188 -31 258 -31 338 -31 C348 -30 359 -30 370 -30 C413 -30 437 -40 448 -48 C436 -54 410 -61 370 -61 L347 -187 C404 -187 455 -176 496 -155 C541 -131 574 -91 581 -49 C593 20 540 96 392 96 C380 96 370 96 360 96 C311 95 265 95 257 106 C254 110 246 126 252 179 C257 230 272 304 301 416 C308 445 316 469 326 491 C366 494 414 508 468 530 C605 588 620 656 617 691 C612 743 562 774 492 767 C432 762 367 728 313 678 C306 670 299 662 292 654 C288 672 290 692 294 703 L294 703 L169 714 C166 701 138 584 209 523 L209 523 Z " />
<glyph glyph-name="eta" unicode="&#x3b7;" horiz-adv-x="461" d="M328 582 C310 582 292 580 274 574 L275 583 L149 583 L114 384 L56 56 L47 0 L173 0 L182 56 L240 384 C247 422 278 456 306 456 C334 456 352 422 344 384 L259 -96 L385 -96 L470 384 C490 493 426 582 328 582 L328 582 Z " />
<glyph glyph-name="theta" unicode="&#x3b8;" horiz-adv-x="458" d="M327 582 C229 582 132 493 113 384 L80 197 C61 89 126 -1 224 -1 C323 -1 418 89 437 197 L470 384 C489 493 426 582 327 582 L327 582 Z M311 197 C305 160 275 126 247 126 C220 126 200 160 206 197 L239 384 C246 422 278 456 305 456 C333 456 351 422 344 384 L311 197 L311 197 Z M80 247 L292 247 L308 373 L95 373 L80 247 L80 247 Z " />
<glyph glyph-name="iota" unicode="&#x3b9;" horiz-adv-x="388" d="M259 110 C256 108 251 107 248 107 C241 107 229 110 233 131 L323 644 L157 644 L136 518 L175 518 L107 131 C98 86 109 48 133 20 C156 -5 190 -19 227 -19 C264 -19 301 -5 331 20 C354 40 383 74 394 131 L268 131 C265 121 263 114 259 110 L259 110 Z " />
<glyph glyph-name="kappa" unicode="&#x3ba;" horiz-adv-x="445" d="M397 583 L246 420 L275 581 L149 581 L47 0 L173 0 L209 210 L256 259 L306 0 L440 0 L366 379 L556 583 L397 583 Z " />
<glyph glyph-name="lambda" unicode="&#x3bb;" horiz-adv-x="688" d="M578 228 C547 310 527 415 508 509 C494 586 481 652 464 696 C420 816 338 810 304 802 C233 784 169 709 155 628 L281 628 C286 655 306 677 313 679 C317 678 331 670 343 636 C356 599 370 534 383 466 C385 449 389 433 392 416 L133 1 L271 1 L430 254 C437 223 446 194 457 167 C503 47 566 -12 648 -12 L670 114 C638 114 606 155 578 228 L578 228 Z " />
<glyph glyph-name="nu" unicode="&#x3bd;" horiz-adv-x="420" d="M281 379 L277 583 L149 583 L160 0 L270 0 L485 583 L357 583 L281 379 L281 379 Z " />
<glyph glyph-name="xi" unicode="&#x3be;" horiz-adv-x="606" d="M392 96 C380 96 370 96 360 96 C311 95 265 95 257 106 C254 110 246 126 252 179 C254 199 258 222 263 251 L448 251 L470 377 L292 377 C294 389 298 402 301 416 C308 445 316 469 326 491 C366 494 414 508 468 530 C605 588 620 656 617 691 C612 743 562 774 492 767 C432 762 367 728 313 678 C306 670 299 662 292 654 C288 672 290 692 294 703 L294 703 L169 714 C166 701 138 584 209 523 C197 493 186 461 176 426 C113 172 107 77 149 20 C188 -31 258 -31 338 -31 C348 -30 359 -30 370 -30 C413 -30 437 -40 448 -48 C436 -54 410 -61 370 -61 L347 -187 C404 -187 455 -176 496 -155 C541 -131 574 -91 581 -49 C593 20 540 96 392 96 L392 96 Z " />
<glyph glyph-name="omicron" unicode="&#x3bf;" horiz-adv-x="458" d="M327 582 C229 582 132 493 113 384 L80 197 C61 89 126 -1 224 -1 C323 -1 418 89 437 197 L470 384 C489 493 426 582 327 582 L327 582 Z M311 197 C305 160 275 126 247 126 C220 126 200 160 206 197 L239 384 C246 422 278 456 305 456 C333 456 351 422 344 384 L311 197 L311 197 Z " />
<glyph glyph-name="pi" unicode="&#x3c0;" horiz-adv-x="700" d="M767 511 C702 550 643 568 583 569 C529 569 484 554 444 541 C374 518 323 503 226 562 L146 451 C184 428 220 412 257 403 L186 1 L312 1 L382 400 C412 404 438 414 463 421 C476 426 490 430 502 433 L426 1 L552 1 L628 430 C646 422 664 413 686 400 L767 511 L767 511 Z " />
<glyph glyph-name="rho" unicode="&#x3c1;" horiz-adv-x="461" d="M347 582 C327 582 285 573 267 542 L274 583 L148 583 L16 -170 L142 -170 L178 38 C182 11 225 -1 245 -1 C331 -1 421 88 440 197 L473 384 C492 493 435 582 347 582 L347 582 Z M314 197 C307 158 277 125 250 125 C222 125 200 138 207 177 L247 404 C253 442 280 456 308 456 C335 456 354 422 347 384 L314 197 L314 197 Z " />
<glyph glyph-name="sigma1" unicode="&#x3c2;" horiz-adv-x="586" d="M389 630 C262 617 134 488 104 342 C89 266 101 197 140 142 C185 80 259 41 364 24 C386 19 401 10 401 -5 C402 -13 397 -25 385 -32 C361 -47 308 -44 241 8 L151 -95 C220 -150 281 -166 330 -166 C379 -166 416 -149 436 -138 C496 -102 532 -40 529 22 C526 88 479 136 406 148 C271 170 209 239 229 338 C246 419 318 498 379 504 C427 509 460 500 478 479 C508 443 498 374 491 350 L491 350 L614 338 C618 353 653 484 583 568 C554 601 498 640 389 630 L389 630 Z " />
<glyph glyph-name="sigma" unicode="&#x3c3;" horiz-adv-x="496" d="M222 1 C320 1 416 90 436 199 L468 382 C472 407 472 432 468 454 L588 454 L611 580 L324 580 C226 580 131 491 112 382 L79 199 C60 90 124 1 222 1 L222 1 Z M238 382 C244 420 274 454 301 454 C330 454 348 420 342 382 L310 199 C302 161 272 127 244 127 C216 127 198 161 205 199 L238 382 L238 382 Z " />
<glyph glyph-name="tau" unicode="&#x3c4;" horiz-adv-x="250" d="M49 0 L175 0 L277 583 L151 583 L49 0 L49 0 Z " />
<glyph glyph-name="upsilon" unicode="&#x3c5;" horiz-adv-x="545" d="M253 -4 C331 -4 409 37 470 112 C577 242 624 457 578 624 L455 574 C488 446 454 275 376 180 C353 152 328 134 302 127 C298 152 293 212 300 344 C305 450 316 548 314 550 L324 631 L145 574 L164 455 L180 460 C176 414 173 354 170 294 C167 221 167 162 172 120 C175 83 182 -4 253 -4 L253 -4 Z " />
<glyph glyph-name="phi" unicode="&#x3c6;" horiz-adv-x="458" d="M327 582 C229 582 132 493 113 384 L80 197 C61 89 126 -1 224 -1 C323 -1 418 89 437 197 L470 384 C489 493 426 582 327 582 L327 582 Z M311 197 C305 160 275 126 247 126 C220 126 200 160 206 197 L239 384 C246 422 278 456 305 456 C333 456 351 422 344 384 L311 197 L311 197 Z M153 -35 L279 -35 L447 634 L321 634 L153 -35 L153 -35 Z " />
<glyph glyph-name="chi" unicode="&#x3c7;" horiz-adv-x="504" d="M575 583 L434 583 L349 455 L307 583 L167 583 L253 311 L47 0 L187 0 L299 168 L353 0 L493 0 L394 311 L575 583 L575 583 Z " />
<glyph glyph-name="psi" unicode="&#x3c8;" horiz-adv-x="473" d="M466 581 L421 332 C415 298 391 268 366 262 L422 581 L296 581 L240 262 C217 268 203 298 209 332 L253 581 L127 581 L83 332 C65 226 124 139 217 134 L154 -227 L280 -227 L343 134 C439 139 529 226 547 332 L592 581 L466 581 L466 581 Z " />
<glyph glyph-name="omega" unicode="&#x3c9;" horiz-adv-x="784" d="M424 68 C426 71 427 72 428 74 C436 62 442 52 449 42 C472 12 504 -4 542 -4 C632 -4 720 52 774 144 C816 215 836 300 832 386 C827 479 793 564 737 634 L632 545 C725 432 719 283 666 193 C647 161 613 122 564 122 C562 122 559 122 556 130 C536 152 530 206 532 270 C553 349 565 444 568 556 L440 548 C440 545 420 454 410 348 C406 319 406 293 404 268 C388 215 367 175 343 150 C323 132 300 122 270 122 C245 122 228 138 218 168 C194 247 235 397 362 533 L275 608 C199 529 143 438 110 346 C80 258 76 175 96 112 C119 38 175 -4 248 -4 C314 -4 376 22 424 68 L424 68 Z " />
<glyph glyph-name="iotadieresis" unicode="&#x3ca;" horiz-adv-x="388" d="M259 110 C256 108 251 107 248 107 C241 107 229 110 233 131 L323 644 L157 644 L136 518 L175 518 L107 131 C98 86 109 48 133 20 C156 -5 190 -19 227 -19 C264 -19 301 -5 331 20 C354 40 383 74 394 131 L268 131 C265 121 263 114 259 110 L259 110 Z M267 732 L344 732 L358 810 L282 810 L267 732 L267 732 Z M145 732 L222 732 L236 810 L159 810 L145 732 L145 732 Z " />
<glyph glyph-name="upsilondieresis" unicode="&#x3cb;" horiz-adv-x="545" d="M253 -4 C331 -4 409 37 470 112 C577 242 624 457 578 624 L455 574 C488 446 454 275 376 180 C353 152 328 134 302 127 C298 152 293 212 300 344 C305 450 316 548 314 550 L324 631 L145 574 L164 455 L180 460 C176 414 173 354 170 294 C167 221 167 162 172 120 C175 83 182 -4 253 -4 L253 -4 Z M405 732 L482 732 L496 810 L420 810 L405 732 L405 732 Z M283 732 L360 732 L374 810 L297 810 L283 732 L283 732 Z " />
<glyph glyph-name="omicrontonos" unicode="&#x3cc;" horiz-adv-x="421" d="M279 700 L333 700 L388 814 L318 814 L279 700 L279 700 Z " />
<glyph glyph-name="upsilontonos" unicode="&#x3cd;" horiz-adv-x="563" d="M253 -4 C331 -4 409 37 470 112 C577 242 624 457 578 624 L455 574 C488 446 454 275 376 180 C353 152 328 134 302 127 C298 152 293 212 300 344 C305 450 316 548 314 550 L324 631 L145 574 L164 455 L180 460 C176 414 173 354 170 294 C167 221 167 162 172 120 C175 83 182 -4 253 -4 L253 -4 Z M354 670 L408 670 L463 784 L393 784 L354 670 L354 670 Z " />
<glyph glyph-name="omegatonos" unicode="&#x3ce;" horiz-adv-x="827" d="M488 764 L469 632 L539 632 L569 764 L488 764 Z M424 68 C426 71 427 72 428 74 C436 62 442 52 449 42 C472 12 504 -4 542 -4 C632 -4 720 52 774 144 C816 215 836 300 832 386 C827 479 793 564 737 634 L632 545 C725 432 719 283 666 193 C647 161 613 122 564 122 C562 122 559 122 556 130 C536 152 530 206 532 270 C553 349 565 444 568 556 L440 548 C440 545 420 454 410 348 C406 319 406 293 404 268 C388 215 367 175 343 150 C323 132 300 122 270 122 C245 122 228 138 218 168 C194 247 235 397 362 533 L275 608 C199 529 143 438 110 346 C80 258 76 175 96 112 C119 38 175 -4 248 -4 C314 -4 376 22 424 68 L424 68 Z " />
<glyph glyph-name="afii10023" unicode="&#x401;" horiz-adv-x="389" d="M386 924 L463 924 L477 1002 L401 1002 L386 924 L386 924 Z M264 924 L341 924 L355 1002 L278 1002 L264 924 L264 924 Z " />
<glyph glyph-name="afii10051" unicode="&#x402;" horiz-adv-x="461" d="M356 601 C338 601 319 598 302 592 L310 626 L416 626 L438 754 L331 754 L344 827 L218 827 L205 754 L169 754 L148 626 L184 626 L144 403 L83 58 L73 1 L199 1 L209 58 L270 403 C276 442 306 475 334 475 C361 475 380 442 374 403 L337 197 C331 158 296 126 262 126 L239 -1 C343 -1 444 88 463 197 L500 403 C520 512 455 601 356 601 L356 601 Z " />
<glyph glyph-name="afii10052" unicode="&#x403;" horiz-adv-x="382" d="M478 806 L179 806 L36 -1 L163 -1 L283 680 L455 680 L478 806 L478 806 Z M301 856 L355 856 L410 970 L340 970 L301 856 L301 856 Z M301 856 L355 856 L410 970 L340 970 L301 856 L301 856 Z " />
<glyph glyph-name="afii10053" unicode="&#x404;" horiz-adv-x="448" d="M295 808 L179 808 L156 680 L272 680 C300 680 319 647 312 610 L300 539 C293 502 263 468 235 468 L155 468 L155 467 L133 341 L133 341 L214 341 C241 341 259 307 252 269 L240 199 C233 161 203 127 175 127 L59 127 L37 1 L154 1 C252 1 347 90 366 199 L378 269 C388 320 378 368 354 404 C390 439 416 487 426 539 L438 610 C457 718 394 808 295 808 L295 808 Z " />
<glyph glyph-name="afii10054" unicode="&#x405;" horiz-adv-x="482" d="M367 456 C306 516 271 560 282 625 C289 658 326 684 368 684 C408 684 437 654 430 617 L556 617 C575 724 500 810 391 810 C280 810 176 730 157 626 C133 499 208 420 268 359 C330 298 367 257 354 188 C350 170 341 126 270 126 C229 126 200 156 208 193 L82 193 C62 86 138 0 248 0 C301 0 352 16 391 46 C424 68 464 112 480 185 C505 317 428 394 367 456 L367 456 Z " />
<glyph glyph-name="afii10055" unicode="&#x406;" horiz-adv-x="229" d="M47 0 L173 0 L316 811 L190 811 L47 0 L47 0 Z " />
<glyph glyph-name="Yi" unicode="&#x407;" horiz-adv-x="229" d="M47 0 L173 0 L316 811 L190 811 L47 0 L47 0 Z M296 845 L373 845 L387 923 L311 923 L296 845 L296 845 Z M174 845 L251 845 L265 923 L188 923 L174 845 L174 845 Z " />
<glyph glyph-name="afii10057" unicode="&#x408;" horiz-adv-x="480" d="M353 203 C346 161 307 125 266 125 C227 125 200 161 208 203 L238 373 L112 373 L82 203 C62 91 134 -1 244 -1 C354 -1 460 91 479 203 L587 810 L461 810 L353 203 L353 203 Z " />
<glyph glyph-name="afii10058" unicode="&#x409;" horiz-adv-x="748" d="M660 596 L607 596 L644 808 L542 808 L518 808 L340 808 L224 150 C221 130 208 126 200 126 C198 126 193 126 192 130 C188 133 188 140 191 150 L64 150 C53 94 71 59 86 40 C109 14 142 0 179 0 C216 0 254 14 284 40 C319 67 343 106 352 150 L445 682 L497 682 L377 2 L440 2 L503 2 L556 2 C654 2 750 91 769 200 L804 398 C823 508 758 596 660 596 L660 596 Z M643 200 C636 162 605 128 577 128 L524 128 L586 470 L638 470 C666 470 685 437 678 398 L643 200 L643 200 Z " />
<glyph glyph-name="afii10059" unicode="&#x40a;" horiz-adv-x="737" d="M602 596 L570 596 L607 809 L481 809 L444 596 L430 596 L467 808 L340 808 L224 150 C221 130 208 126 200 126 C198 126 193 126 192 130 C188 133 188 140 191 150 L64 150 C53 94 71 59 86 40 C109 14 142 0 179 0 C216 0 254 14 284 40 C319 67 343 106 352 150 L408 470 L422 470 L340 2 L402 2 L466 2 L517 2 C616 2 712 91 731 200 L766 398 C785 508 712 596 602 596 L602 596 Z M605 200 C598 162 568 128 539 128 L487 128 L548 470 L581 470 C620 470 647 438 640 398 L605 200 L605 200 Z " />
<glyph glyph-name="afii10060" unicode="&#x40b;" horiz-adv-x="502" d="M329 444 C311 444 292 440 275 434 L289 512 L396 512 L418 638 L149 638 L127 512 L163 512 L116 246 L83 61 L73 1 L199 1 L209 61 L242 246 C248 283 278 317 306 317 C334 317 353 283 347 246 L304 2 L430 2 L473 246 C492 355 427 444 329 444 L329 444 Z " />
<glyph glyph-name="afii10061" unicode="&#x40c;" horiz-adv-x="488" d="M352 924 L406 924 L461 1038 L391 1038 L352 924 L352 924 Z " />
<glyph glyph-name="afii10062" unicode="&#x40e;" horiz-adv-x="494" d="M322 810 L190 810 L258 310 L204 0 L330 0 L384 312 L624 810 L493 810 L360 533 L322 810 Z M498 1034 C490 995 460 962 432 962 C404 962 386 995 393 1034 L267 1034 C248 924 312 836 410 836 C508 836 604 924 624 1034 L498 1034 L498 1034 Z " />
<glyph glyph-name="afii10145" unicode="&#x40f;" horiz-adv-x="577" d="M434 270 L211 270 L306 805 L179 805 L62 144 L238 144 L212 1 L338 1 L364 144 L539 144 L656 811 L530 811 L434 270 L434 270 Z " />
<glyph glyph-name="afii10017" unicode="&#x410;" horiz-adv-x="516" d="M350 812 L47 0 L175 0 L252 204 L359 204 L365 0 L493 0 L479 811 L350 812 Z M300 330 L355 476 L358 330 L300 330 L300 330 Z " />
<glyph glyph-name="afii10018" unicode="&#x411;" horiz-adv-x="467" d="M280 404 L235 404 L259 539 L426 539 L448 665 L154 665 L36 -1 L100 -1 L163 -1 L215 -1 C313 -1 409 88 428 197 L431 206 C450 316 382 404 280 404 L280 404 Z M302 197 C296 158 265 125 238 125 L186 125 L212 278 L257 278 C289 278 312 246 305 206 L302 197 L302 197 Z " />
<glyph glyph-name="afii10019" unicode="&#x412;" horiz-adv-x="450" d="M440 484 C470 517 494 562 503 610 L506 631 C517 731 455 810 364 810 L190 810 L46 -1 L233 -1 C336 -1 436 85 455 191 L480 337 C491 396 474 449 440 484 L440 484 Z M341 684 C364 684 383 653 376 612 L373 596 L373 595 C362 563 337 540 317 540 L268 540 L293 684 L341 684 L341 684 Z M329 191 C322 155 289 125 256 125 L194 125 L244 403 L305 403 C338 403 361 374 354 337 L329 191 L329 191 Z " />
<glyph glyph-name="afii10020" unicode="&#x413;" horiz-adv-x="486" d="M550 806 L179 806 L36 -1 L163 -1 L283 680 L527 680 L550 806 L550 806 Z " />
<glyph glyph-name="afii10021" unicode="&#x414;" horiz-adv-x="799" d="M842 810 L389 810 L377 746 C362 661 328 520 280 403 C232 287 178 215 138 215 L74 215 L37 2 L164 2 L180 89 L641 89 L625 2 L751 2 L788 215 L737 215 L842 810 L842 810 Z M398 374 C440 476 470 592 491 683 L694 683 L611 215 L313 215 C342 257 371 311 398 374 L398 374 Z " />
<glyph glyph-name="afii10022" unicode="&#x415;" horiz-adv-x="409" d="M47 0 L366 0 L388 126 L194 126 L227 307 L348 307 L369 433 L248 433 L293 685 L486 685 L509 811 L190 811 L47 0 L47 0 Z " />
<glyph glyph-name="afii10024" unicode="&#x416;" horiz-adv-x="794" d="M913 809 L763 809 L566 571 L608 809 L607 809 L482 809 L481 809 L439 571 L326 809 L176 809 L316 514 L42 0 L175 0 L378 380 L398 338 L395 317 L340 0 L341 0 L466 0 L467 0 L522 317 L526 338 L560 380 L631 0 L764 0 L671 514 L913 809 L913 809 Z " />
<glyph glyph-name="afii10025" unicode="&#x417;" horiz-adv-x="461" d="M356 808 C258 808 163 718 144 610 L132 539 C122 487 132 439 156 404 C120 368 94 320 84 269 L72 199 C53 90 116 1 215 1 L331 1 L353 127 L236 127 C209 127 191 161 198 199 L210 269 C217 307 247 341 275 341 L355 341 L355 341 L377 467 L377 468 L296 468 C269 468 251 502 258 539 L270 610 C277 647 306 680 334 680 L450 680 L473 808 L356 808 L356 808 Z " />
<glyph glyph-name="afii10026" unicode="&#x418;" horiz-adv-x="518" d="M-10 356 L-90 810 L-216 810 L-74 0 L52 0 L54 0 L148 468 L230 0 L356 0 L214 812 L213 812 L80 812 L-10 356 Z " />
<glyph glyph-name="afii10027" unicode="&#x419;" horiz-adv-x="514" d="M471 821 C463 782 433 749 405 749 C377 749 359 782 366 821 L240 821 C221 711 285 623 383 623 C481 623 577 711 597 821 L471 821 L471 821 Z M180 574 L313 574 L315 574 L315 573 L431 0 L305 0 L249 277 L187 0 L186 0 L60 0 L-57 574 L69 574 L123 313 L180 574 Z " />
<glyph glyph-name="afii10028" unicode="&#x41a;" horiz-adv-x="510" d="M472 811 L272 569 L316 811 L190 811 L112 373 L102 317 L47 0 L173 0 L232 336 L268 380 L338 0 L472 0 L378 514 L622 811 L472 811 L472 811 Z " />
<glyph glyph-name="afii10029" unicode="&#x41b;" horiz-adv-x="631" d="M329 666 L266 666 L188 222 C179 164 142 127 122 127 L59 127 L37 1 L101 1 C151 1 203 28 244 73 C280 114 305 167 314 222 L371 540 L552 540 L457 0 L583 0 L700 666 L392 666 L329 666 L329 666 Z " />
<glyph glyph-name="afii10030" unicode="&#x41c;" horiz-adv-x="570" d="M534 811 L372 519 L313 811 L190 811 L47 0 L173 0 L256 472 L283 215 L353 215 L475 481 L391 0 L517 0 L660 811 L534 811 Z " />
<glyph glyph-name="afii10031" unicode="&#x41d;" horiz-adv-x="482" d="M389 433 L248 433 L316 811 L190 811 L47 0 L173 0 L227 307 L367 307 L313 0 L439 0 L582 811 L456 811 L389 433 L389 433 Z " />
<glyph glyph-name="afii10032" unicode="&#x41e;" horiz-adv-x="482" d="M397 810 L388 810 C278 810 173 721 154 612 L82 198 C62 89 136 0 245 0 L254 0 C364 0 468 89 487 198 L559 612 C578 721 506 810 397 810 L397 810 Z M361 198 C354 158 316 126 276 126 L266 126 C227 126 200 158 208 198 L280 612 C287 652 325 684 365 684 L374 684 C414 684 440 652 433 612 L361 198 L361 198 Z " />
<glyph glyph-name="afii10033" unicode="&#x41f;" horiz-adv-x="532" d="M184 1 L184 1 L302 680 L551 680 L432 1 L558 1 L700 806 L199 806 L58 1 L184 1 L184 1 Z " />
<glyph glyph-name="afii10034" unicode="&#x420;" horiz-adv-x="475" d="M389 811 L190 811 L190 810 L46 -1 L172 -1 L220 270 L293 270 C396 270 496 356 514 462 L541 619 C560 725 492 811 389 811 L389 811 Z M388 462 C382 425 349 396 316 396 L242 396 L293 685 L366 685 C400 685 422 655 415 619 L388 462 L388 462 Z " />
<glyph glyph-name="afii10035" unicode="&#x421;" horiz-adv-x="475" d="M365 683 L374 683 C394 683 410 676 421 662 C428 654 433 643 433 631 L560 666 C558 698 546 728 526 752 C494 790 449 810 397 810 L388 810 C278 810 173 721 154 612 L82 198 C62 89 136 0 245 0 L254 0 C337 0 420 53 463 131 L352 174 C337 145 306 127 276 127 L266 127 C227 127 200 158 208 198 L280 612 C287 652 325 683 365 683 L365 683 Z " />
<glyph glyph-name="afii10036" unicode="&#x422;" horiz-adv-x="413" d="M557 810 L190 810 L167 684 L288 684 L168 0 L294 0 L414 684 L534 684 L557 810 L557 810 Z " />
<glyph glyph-name="afii10037" unicode="&#x423;" horiz-adv-x="452" d="M372 542 L311 197 C304 158 275 125 248 125 C220 125 200 158 207 197 L275 582 L149 582 L81 197 C62 88 126 -1 225 -1 C242 -1 259 2 276 7 C264 -22 239 -43 218 -43 C206 -43 197 -37 192 -31 L91 -126 C117 -154 155 -169 196 -169 C294 -169 388 -80 408 29 L437 197 L498 542 L505 583 L379 583 L372 542 L372 542 Z " />
<glyph glyph-name="afii10038" unicode="&#x424;" horiz-adv-x="468" d="M397 810 L388 810 C278 810 173 721 154 612 L82 198 C62 89 136 0 245 0 L254 0 C364 0 468 89 487 198 L559 612 C578 721 506 810 397 810 L397 810 Z M361 198 C354 158 316 126 276 126 L266 126 C227 126 200 158 208 198 L280 612 C287 652 325 684 365 684 L374 684 C414 684 440 652 433 612 L361 198 L361 198 Z M174 -61 L300 -61 L468 894 L342 894 L174 -61 L174 -61 Z " />
<glyph glyph-name="afii10039" unicode="&#x425;" horiz-adv-x="510" d="M493 810 L365 571 L324 810 L190 810 L266 383 L62 0 L196 0 L299 196 L336 0 L469 0 L400 383 L628 810 L493 810 L493 810 Z " />
<glyph glyph-name="afii10040" unicode="&#x426;" horiz-adv-x="665" d="M643 806 L517 806 L397 126 L186 126 L306 806 L179 806 L37 0 L382 0 L492 0 L478 -82 L604 -82 L640 126 L523 126 L643 806 L643 806 Z " />
<glyph glyph-name="afii10041" unicode="&#x427;" horiz-adv-x="505" d="M485 750 L424 408 C418 368 380 336 341 336 L294 336 C254 336 229 368 235 408 L306 808 L179 808 L108 408 C89 299 162 210 271 210 L318 210 C343 210 368 215 391 224 L353 0 L480 0 L551 408 L612 750 L622 806 L494 806 L485 750 L485 750 Z " />
<glyph glyph-name="afii10042" unicode="&#x428;" horiz-adv-x="637" d="M494 126 L403 126 L523 809 L397 809 L277 126 L186 126 L306 806 L179 806 L37 0 L599 0 L740 806 L614 806 L494 126 L494 126 Z " />
<glyph glyph-name="afii10043" unicode="&#x429;" horiz-adv-x="760" d="M740 806 L614 806 L494 126 L403 126 L523 809 L397 809 L277 126 L186 126 L306 806 L179 806 L37 0 L500 0 L584 0 L570 -82 L696 -82 L732 126 L620 126 L740 806 L740 806 Z " />
<glyph glyph-name="afii10044" unicode="&#x42a;" horiz-adv-x="545" d="M398 502 L354 502 L408 808 L179 808 L157 682 L260 682 L139 -1 L203 -1 L265 -1 L318 -1 C416 -1 512 88 532 197 L551 304 C570 413 502 502 398 502 L398 502 Z M406 197 C400 158 368 125 341 125 L288 125 L332 376 L377 376 C410 376 432 343 425 304 L406 197 L406 197 Z " />
<glyph glyph-name="afii10045" unicode="&#x42b;" horiz-adv-x="570" d="M302 502 L258 502 L312 809 L186 809 L43 -1 L222 -1 C320 -1 416 88 436 197 L455 304 C474 413 406 502 302 502 L302 502 Z M310 197 C304 158 272 125 245 125 L192 125 L236 376 L281 376 C314 376 336 343 329 304 L310 197 Z M439 0 L565 0 L708 811 L582 811 L439 0 L439 0 Z " />
<glyph glyph-name="afii10046" unicode="&#x42c;" horiz-adv-x="452" d="M302 502 L258 502 L312 809 L186 809 L43 -1 L222 -1 C320 -1 416 88 436 197 L455 304 C474 413 406 502 302 502 L302 502 Z M310 197 C304 158 272 125 245 125 L192 125 L236 376 L281 376 C314 376 336 343 329 304 L310 197 Z " />
<glyph glyph-name="afii10047" unicode="&#x42d;" horiz-adv-x="527" d="M443 564 L432 500 L425 461 L173 461 L151 335 L403 335 L395 290 L386 242 C376 179 325 126 276 126 C227 126 194 179 205 242 L79 242 C55 108 134 0 254 0 C373 0 490 108 514 242 L522 290 L559 500 L570 564 C594 698 515 808 396 808 C276 808 160 698 136 564 L262 564 C274 628 324 680 373 680 C422 680 455 628 443 564 L443 564 Z " />
<glyph glyph-name="afii10048" unicode="&#x42e;" horiz-adv-x="626" d="M534 809 C436 809 340 720 320 611 L295 464 L246 464 L306 809 L179 809 L37 0 L164 0 L223 338 L272 338 L248 199 C229 90 294 1 392 1 C491 1 587 90 606 199 L678 611 C697 720 632 809 534 809 L534 809 Z M480 199 C473 161 442 127 414 127 C386 127 367 161 374 199 L446 611 C454 648 485 682 512 682 C540 682 559 648 552 611 L480 199 L480 199 Z " />
<glyph glyph-name="afii10049" unicode="&#x42f;" horiz-adv-x="478" d="M-104 462 C-95 412 -69 366 -32 332 C-58 296 -69 250 -60 198 L-26 0 L100 0 L66 198 C60 238 86 270 126 270 L190 270 L237 0 L363 0 L316 270 L294 397 L220 810 L21 810 C-82 810 -150 724 -131 618 L-104 462 Z M117 684 L168 397 L94 397 C61 397 28 426 22 462 L-5 618 C-12 654 10 684 44 684 L117 684 Z " />
<glyph glyph-name="afii10065" unicode="&#x430;" horiz-adv-x="463" d="M354 583 L348 583 C264 580 184 515 170 433 L296 433 C298 446 311 464 330 464 C349 464 355 446 352 426 L345 388 C330 400 318 407 290 407 C199 407 102 322 84 218 L79 191 C61 86 120 1 209 1 C230 1 262 7 282 31 L277 0 L403 0 L478 426 C493 511 438 580 354 583 L354 583 L354 583 Z M244 122 C214 122 195 154 201 191 L206 218 C212 255 243 287 273 287 C299 287 321 275 319 241 L306 167 C296 134 270 122 244 122 L244 122 Z " />
<glyph glyph-name="afii10066" unicode="&#x431;" horiz-adv-x="437" d="M317 475 C349 475 371 442 365 403 L491 403 C510 512 442 601 340 601 C236 601 137 512 118 403 L83 209 L83 206 L82 198 C62 89 131 0 234 0 C336 0 436 89 455 198 L455 198 C455 202 455 204 456 206 L456 209 C475 318 407 407 305 407 C283 407 263 403 242 397 L244 403 C250 442 283 475 317 475 L317 475 Z M283 281 C316 281 337 248 330 209 L330 206 C323 168 289 134 257 134 C223 134 202 168 209 206 L209 209 C216 248 250 281 283 281 L283 281 Z " />
<glyph glyph-name="afii10067" unicode="&#x432;" horiz-adv-x="391" d="M439 433 C456 512 401 576 317 576 L166 576 L47 0 L209 0 C299 0 385 65 401 144 L422 249 C431 288 420 323 395 349 C416 373 433 402 439 433 L439 433 Z M268 468 L294 468 C306 468 318 452 313 433 C310 409 287 392 280 392 L253 392 L268 468 L268 468 Z M275 144 C271 125 251 108 230 108 L194 108 L230 283 L266 283 C287 283 300 267 296 249 L275 144 L275 144 Z " />
<glyph glyph-name="afii10068" unicode="&#x433;" horiz-adv-x="395" d="M437 578 L138 578 L37 0 L164 0 L244 452 L415 452 L437 578 Z " />
<glyph glyph-name="afii10069" unicode="&#x434;" horiz-adv-x="697" d="M727 666 L328 666 L317 604 C307 550 281 432 239 328 C216 275 193 232 170 204 C162 192 144 173 131 173 L67 173 L37 2 L164 2 L172 47 L534 47 L527 2 L653 2 L683 173 L641 173 L727 666 L727 666 Z M355 299 C390 383 415 474 431 540 L578 540 L514 173 L292 173 C314 208 336 250 355 299 L355 299 Z " />
<glyph glyph-name="afii10070" unicode="&#x435;" horiz-adv-x="463" d="M328 582 C229 582 133 493 114 384 L81 198 C62 89 127 0 226 0 C324 0 418 89 437 198 L311 198 C305 160 275 126 248 126 C220 126 201 160 207 198 L215 241 L445 241 L470 384 C489 493 426 582 328 582 L328 582 Z M341 367 L237 367 L240 384 C247 422 278 456 306 456 C333 456 351 422 344 384 L341 367 L341 367 Z " />
<glyph glyph-name="afii10072" unicode="&#x436;" horiz-adv-x="713" d="M826 583 L667 583 L516 420 L545 581 L544 581 L419 581 L418 581 L389 420 L295 583 L137 583 L254 379 L48 0 L182 0 L324 259 L352 210 L316 0 L317 0 L442 0 L443 0 L479 210 L526 259 L576 0 L710 0 L636 379 L826 583 L826 583 Z " />
<glyph glyph-name="afii10073" unicode="&#x437;" horiz-adv-x="433" d="M283 668 L155 668 L132 542 L260 542 C296 542 319 510 313 470 L313 470 C305 424 276 398 269 398 L174 398 L174 397 L152 272 L151 271 L246 271 C253 271 274 246 265 199 L265 199 C258 160 223 127 187 127 L59 127 L37 1 L166 1 C271 1 372 90 391 199 L391 199 C401 252 394 300 374 335 C406 370 430 418 439 470 L439 470 C458 580 389 668 283 668 L283 668 Z " />
<glyph glyph-name="afii10074" unicode="&#x438;" horiz-adv-x="461" d="M41 313 L-13 574 L-139 574 L-22 0 L104 0 L105 0 L167 277 L223 0 L349 0 L233 573 L233 574 L231 574 L98 574 L41 313 Z " />
<glyph glyph-name="afii10075" unicode="&#x439;" horiz-adv-x="437" d="M428 814 C420 775 390 742 362 742 C334 742 316 775 323 814 L197 814 C178 704 242 616 340 616 C438 616 534 704 554 814 L428 814 L428 814 Z " />
<glyph glyph-name="afii10076" unicode="&#x43a;" horiz-adv-x="496" d="M397 583 L246 420 L275 581 L149 581 L47 0 L173 0 L209 210 L256 259 L306 0 L440 0 L366 379 L556 583 L397 583 Z " />
<glyph glyph-name="afii10077" unicode="&#x43b;" horiz-adv-x="640" d="M335 696 L272 696 L188 221 C178 163 142 126 122 126 L59 126 L37 0 L101 0 C151 0 202 26 244 72 C280 113 305 166 314 221 L376 570 L557 570 L457 2 L583 2 L706 696 L398 696 L335 696 L335 696 Z " />
<glyph glyph-name="afii10078" unicode="&#x43c;" horiz-adv-x="482" d="M446 574 L328 372 L293 574 L290 574 L164 574 L47 0 L173 0 L220 229 L233 153 L334 153 L382 236 L334 0 L460 0 L577 574 L446 574 L446 574 Z " />
<glyph glyph-name="afii10079" unicode="&#x43d;" horiz-adv-x="406" d="M325 316 L238 316 L290 574 L164 574 L47 0 L173 0 L215 208 L302 208 L260 0 L386 0 L504 574 L378 574 L325 316 L325 316 Z " />
<glyph glyph-name="afii10080" unicode="&#x43e;" horiz-adv-x="458" d="M327 582 C229 582 132 493 113 384 L80 197 C61 89 126 -1 224 -1 C323 -1 418 89 437 197 L470 384 C489 493 426 582 327 582 L327 582 Z M311 197 C305 160 275 126 247 126 C220 126 200 160 206 197 L239 384 C246 422 278 456 305 456 C333 456 351 422 344 384 L311 197 L311 197 Z " />
<glyph glyph-name="afii10081" unicode="&#x43f;" horiz-adv-x="470" d="M265 464 L418 464 L336 1 L462 1 L565 590 L161 590 L58 1 L184 1 L265 464 Z " />
<glyph glyph-name="afii10082" unicode="&#x440;" horiz-adv-x="461" d="M347 582 C327 582 285 573 267 542 L274 583 L148 583 L16 -170 L142 -170 L178 38 C182 11 225 -1 245 -1 C331 -1 421 88 440 197 L473 384 C492 493 435 582 347 582 L347 582 Z M314 197 C307 158 277 125 250 125 C222 125 200 138 207 177 L247 404 C253 442 280 456 308 456 C335 456 354 422 347 384 L314 197 L314 197 Z " />
<glyph glyph-name="afii10083" unicode="&#x441;" horiz-adv-x="413" d="M307 171 C294 145 272 126 251 126 C224 126 204 160 210 197 L243 384 C250 422 282 456 309 456 C330 456 346 436 349 409 L475 455 C463 529 407 582 331 582 C233 582 136 493 117 384 L84 197 C65 89 130 -1 228 -1 C304 -1 378 52 417 125 L307 171 L307 171 Z " />
<glyph glyph-name="afii10084" unicode="&#x442;" horiz-adv-x="382" d="M142 466 L239 466 L144 0 L270 0 L365 466 L460 466 L482 574 L164 574 L142 466 L142 466 Z " />
<glyph glyph-name="afii10085" unicode="&#x443;" horiz-adv-x="452" d="M372 542 L311 197 C304 158 275 125 248 125 C220 125 200 158 207 197 L275 582 L149 582 L81 197 C62 88 126 -1 225 -1 C242 -1 259 2 276 7 C264 -22 239 -43 218 -43 C206 -43 197 -37 192 -31 L91 -126 C117 -154 155 -169 196 -169 C294 -169 388 -80 408 29 L437 197 L498 542 L505 583 L379 583 L372 542 L372 542 Z " />
<glyph glyph-name="afii10086" unicode="&#x444;" horiz-adv-x="650" d="M554 594 C536 594 520 592 504 587 L542 808 L416 808 L377 583 C360 590 341 594 320 594 C222 594 126 505 107 396 L68 179 C49 70 114 -19 212 -19 C233 -19 253 -16 272 -8 L245 -169 L371 -169 L398 -12 C413 -17 428 -19 446 -19 C545 -19 640 70 659 179 L697 396 C716 505 653 594 554 594 L554 594 Z M300 179 C293 140 262 107 234 107 C206 107 188 140 196 179 L234 396 C240 434 270 468 298 468 C325 468 344 434 338 396 L300 179 L300 179 Z M533 179 C526 140 496 107 468 107 C446 107 430 127 427 154 L474 421 C486 448 510 468 532 468 C559 468 577 434 571 396 L533 179 L533 179 Z " />
<glyph glyph-name="afii10087" unicode="&#x445;" horiz-adv-x="504" d="M575 583 L434 583 L349 455 L307 583 L167 583 L253 311 L47 0 L187 0 L299 168 L353 0 L493 0 L394 311 L575 583 L575 583 Z " />
<glyph glyph-name="afii10088" unicode="&#x446;" horiz-adv-x="581" d="M552 581 L426 581 L346 126 L186 126 L266 581 L139 581 L37 0 L338 0 L422 0 L408 -82 L534 -82 L570 126 L472 126 L552 581 L552 581 Z " />
<glyph glyph-name="afii10089" unicode="&#x447;" horiz-adv-x="472" d="M414 563 L371 313 C364 274 325 242 286 242 L277 242 C238 242 212 274 220 313 L274 620 L146 620 L92 313 C72 204 145 115 254 115 L263 115 C288 115 314 120 338 130 L316 0 L442 0 L497 313 L540 563 L550 619 L424 619 L414 563 L414 563 Z " />
<glyph glyph-name="afii10090" unicode="&#x448;" horiz-adv-x="650" d="M494 126 L403 126 L484 584 L358 584 L277 126 L186 126 L266 583 L139 583 L37 0 L599 0 L701 583 L575 583 L494 126 L494 126 Z " />
<glyph glyph-name="afii10091" unicode="&#x449;" horiz-adv-x="713" d="M701 583 L575 583 L494 126 L403 126 L484 584 L358 584 L277 126 L186 126 L266 583 L139 583 L37 0 L496 0 L580 0 L565 -82 L691 -82 L727 126 L620 126 L701 583 L701 583 Z " />
<glyph glyph-name="afii10092" unicode="&#x44a;" horiz-adv-x="550" d="M380 397 L336 397 L384 668 L155 668 L132 542 L235 542 L139 -1 L203 -1 L265 -1 L318 -1 C416 -1 512 88 532 197 L533 199 C552 308 484 397 380 397 L380 397 Z M406 197 C400 158 368 125 341 125 L288 125 L313 271 L358 271 C391 271 414 239 407 199 L406 197 L406 197 Z " />
<glyph glyph-name="afii10093" unicode="&#x44b;" horiz-adv-x="518" d="M286 406 L241 406 L272 581 L146 581 L43 -1 L222 -1 C320 -1 416 88 436 197 L438 208 C457 317 389 406 286 406 L286 406 Z M310 197 C304 158 272 125 245 125 L192 125 L220 280 L264 280 C298 280 319 247 312 208 L310 197 Z M433 0 L559 0 L702 584 L576 584 L433 0 L433 0 Z " />
<glyph glyph-name="afii10094" unicode="&#x44c;" horiz-adv-x="432" d="M302 502 L258 502 L312 809 L186 809 L43 -1 L222 -1 C320 -1 416 88 436 197 L455 304 C474 413 406 502 302 502 L302 502 Z M310 197 C304 158 272 125 245 125 L192 125 L236 376 L281 376 C314 376 336 343 329 304 L310 197 L310 197 Z " />
<glyph glyph-name="afii10095" unicode="&#x44d;" horiz-adv-x="458" d="M344 436 L337 401 L332 372 L160 372 L138 246 L311 246 L301 197 C295 160 265 126 238 126 C210 126 191 160 197 197 L71 197 C53 89 118 0 216 0 C314 0 410 89 428 197 L440 262 L464 401 L472 436 C491 545 426 634 328 634 C229 634 133 545 114 436 L240 436 C246 474 277 508 305 508 C332 508 350 474 344 436 L344 436 Z " />
<glyph glyph-name="afii10096" unicode="&#x44e;" horiz-adv-x="576" d="M482 632 C389 632 296 544 277 434 L268 374 L230 374 L276 635 L149 635 L37 0 L164 0 L208 248 L245 248 L236 199 C217 90 278 1 372 1 C466 1 558 90 577 199 L618 434 C637 544 576 632 482 632 L482 632 Z M451 199 C444 158 415 127 394 127 C373 127 355 158 362 199 L403 434 C412 476 440 506 461 506 C482 506 500 476 492 434 L451 199 L451 199 Z " />
<glyph glyph-name="afii10097" unicode="&#x44f;" horiz-adv-x="413" d="M-92 324 C-85 287 -62 254 -31 228 C-52 200 -61 160 -52 118 L-28 0 L98 0 L74 118 C66 154 88 180 112 180 L149 180 L185 0 L311 0 L194 574 L194 574 L20 574 C-70 574 -130 511 -114 432 L-92 324 Z M90 466 L126 288 L78 288 C58 288 38 304 34 324 L12 432 C9 450 22 466 42 466 L90 466 Z " />
<glyph glyph-name="afii10071" unicode="&#x451;" horiz-adv-x="421" d="M374 683 L451 683 L465 761 L389 761 L374 683 L374 683 Z M252 683 L329 683 L343 761 L266 761 L252 683 L252 683 Z M328 582 C229 582 133 493 114 384 L81 198 C62 89 127 0 226 0 C324 0 418 89 437 198 L311 198 C305 160 275 126 248 126 C220 126 201 160 207 198 L215 241 L445 241 L470 384 C489 493 426 582 328 582 L328 582 Z M341 367 L237 367 L240 384 C247 422 278 456 306 456 C333 456 351 422 344 384 L341 367 L341 367 Z " />
<glyph glyph-name="afii10099" unicode="&#x452;" horiz-adv-x="502" d="M356 601 C338 601 319 598 302 592 L310 626 L416 626 L438 754 L331 754 L344 827 L218 827 L205 754 L169 754 L148 626 L184 626 L144 403 L83 58 L73 1 L199 1 L209 58 L270 403 C276 442 306 475 334 475 C361 475 380 442 374 403 L310 41 C304 2 269 -30 234 -30 L211 -157 C316 -157 416 -68 436 41 L500 403 C520 512 455 601 356 601 L356 601 Z " />
<glyph glyph-name="afii10100" unicode="&#x453;" horiz-adv-x="349" d="M422 620 L146 620 L36 -1 L163 -1 L251 494 L400 494 L422 620 L422 620 Z M250 628 L304 628 L359 742 L289 742 L250 628 L250 628 Z " />
<glyph glyph-name="afii10101" unicode="&#x454;" horiz-adv-x="416" d="M346 668 C240 668 139 580 120 470 L120 470 C110 418 118 370 137 335 C106 300 82 252 72 199 L72 199 C53 90 122 1 228 1 L356 1 L378 127 L250 127 C214 127 191 160 198 199 L198 199 C206 246 234 271 241 271 L336 271 L337 272 L359 397 L359 398 L264 398 C257 398 238 424 246 470 L246 470 C252 510 287 542 323 542 L451 542 L474 668 L346 668 L346 668 Z " />
<glyph glyph-name="afii10102" unicode="&#x455;" horiz-adv-x="428" d="M312 346 C264 385 244 407 250 434 C251 439 253 444 260 449 C270 455 280 457 285 456 C307 454 330 437 340 422 L448 508 C426 538 382 574 324 582 C283 587 233 572 197 545 C159 520 134 482 125 442 C102 342 169 284 217 242 C264 203 285 181 278 151 C272 127 245 126 237 126 L236 126 C215 126 192 148 188 158 L65 103 C82 47 148 1 212 0 C214 0 216 0 217 0 C304 0 380 59 401 140 C429 244 361 302 312 346 L312 346 Z " />
<glyph glyph-name="afii10103" unicode="&#x456;" horiz-adv-x="226" d="M47 0 L173 0 L275 583 L149 583 L47 0 L47 0 Z M154 610 L280 610 L303 740 L177 740 L154 610 L154 610 Z " />
<glyph glyph-name="afii10104" unicode="&#x457;" horiz-adv-x="250" d="M49 0 L175 0 L277 583 L151 583 L49 0 L49 0 Z M259 732 L336 732 L350 810 L274 810 L259 732 L259 732 Z M137 732 L214 732 L228 810 L151 810 L137 732 L137 732 Z " />
<glyph glyph-name="afii10105" unicode="&#x458;" horiz-adv-x="257" d="M67 610 L193 610 L216 740 L90 740 L67 610 L67 610 Z M-35 29 C-42 -10 -74 -43 -101 -43 C-112 -43 -121 -37 -126 -31 L-227 -126 C-201 -154 -163 -169 -122 -169 C-25 -169 71 -80 91 29 L188 583 L62 583 L-35 29 L-35 29 Z " />
<glyph glyph-name="afii10106" unicode="&#x459;" horiz-adv-x="748" d="M640 502 L588 502 L618 670 L492 670 L492 667 L316 667 L224 150 C221 130 208 126 200 126 C198 126 193 126 192 130 C188 133 188 140 191 150 L64 150 C53 94 71 59 86 40 C109 14 142 0 179 0 C216 0 254 14 284 40 C319 67 343 106 352 150 L420 541 L469 541 L374 0 L437 0 L436 -1 L551 -1 C649 -1 745 88 764 197 L784 304 C803 413 738 502 640 502 L640 502 Z M638 197 C632 158 602 125 574 125 L522 125 L566 376 L618 376 C647 376 665 342 658 304 L638 197 L638 197 Z " />
<glyph glyph-name="afii10107" unicode="&#x45a;" horiz-adv-x="734" d="M646 502 L584 502 L608 635 L482 635 L458 502 L413 502 L436 632 L308 632 L224 150 C221 130 208 126 200 126 C198 126 193 126 192 130 C188 133 188 140 191 150 L64 150 C53 94 71 59 86 40 C109 14 142 0 179 0 C216 0 254 14 284 40 C319 67 343 106 352 150 L391 376 L437 376 L370 -1 L461 -1 L496 -1 L576 -1 C674 -1 770 88 790 197 L809 304 C828 413 755 502 646 502 L646 502 Z M664 197 C658 158 628 125 599 125 L518 125 L563 376 L624 376 C664 376 690 343 683 304 L664 197 L664 197 Z " />
<glyph glyph-name="afii10108" unicode="&#x45b;" horiz-adv-x="500" d="M356 601 C338 601 319 598 302 592 L311 640 L418 640 L440 766 L334 766 L347 839 L221 839 L208 766 L172 766 L149 640 L185 640 L144 403 L83 55 L72 -1 L198 -1 L209 55 L270 403 C276 442 306 475 334 475 C361 475 380 442 374 403 L304 2 L430 2 L500 403 C520 512 455 601 356 601 L356 601 Z " />
<glyph glyph-name="afii10109" unicode="&#x45c;" horiz-adv-x="444" d="M291 700 L345 700 L400 814 L330 814 L291 700 L291 700 Z " />
<glyph glyph-name="afii10110" unicode="&#x45e;" horiz-adv-x="428" d="M452 814 C444 775 414 742 386 742 C358 742 340 775 347 814 L221 814 C202 704 266 616 364 616 C462 616 558 704 578 814 L452 814 L452 814 Z " />
<glyph glyph-name="afii10193" unicode="&#x45f;" horiz-adv-x="577" d="M434 270 L211 270 L275 628 L148 628 L62 144 L238 144 L212 1 L338 1 L364 144 L539 144 L625 635 L499 635 L434 270 L434 270 Z " />
<glyph glyph-name="afii10050" unicode="&#x490;" horiz-adv-x="518" d="M613 808 L487 808 L479 762 L170 762 L36 -1 L163 -1 L276 636 L583 636 L613 808 L613 808 Z " />
<glyph glyph-name="afii10098" unicode="&#x491;" horiz-adv-x="511" d="M458 643 L150 643 L37 1 L164 1 L254 517 L562 517 L593 690 L467 690 L458 643 L458 643 Z " />
<glyph glyph-name="endash" unicode="&#x2013;" horiz-adv-x="484" d="M106 348 L424 348 L445 474 L127 474 L106 348 L106 348 Z " />
<glyph glyph-name="emdash" unicode="&#x2014;" horiz-adv-x="673" d="M106 348 L580 348 L601 474 L127 474 L106 348 L106 348 Z " />
<glyph glyph-name="afii00208" unicode="&#x2015;" horiz-adv-x="673" d="M94 276 L568 276 L589 402 L115 402 L94 276 L94 276 Z " />
<glyph glyph-name="quoteleft" unicode="&#x2018;" horiz-adv-x="184" d="M210 748 C217 785 241 781 241 781 L247 811 C174 811 163 748 163 748 L150 668 L234 668 L247 748 L210 748 L210 748 L210 748 Z " />
<glyph glyph-name="quoteright" unicode="&#x2019;" horiz-adv-x="178" d="M271 811 L187 811 L173 732 L210 732 L210 732 C204 695 179 698 179 698 L174 668 C247 668 257 732 257 732 L271 811 L271 811 Z " />
<glyph glyph-name="quotesinglbase" unicode="&#x201a;" horiz-adv-x="182" d="M142 80 L58 80 L44 1 L82 1 L82 1 C74 -36 50 -32 50 -32 L44 -62 C118 -62 128 1 128 1 L142 80 Z " />
<glyph glyph-name="quotedblleft" unicode="&#x201c;" horiz-adv-x="268" d="M234 668 L247 748 L210 748 L210 748 C217 785 241 781 241 781 L247 811 C174 811 163 748 163 748 L150 668 L234 668 L234 668 Z M349 668 L362 748 L324 748 L324 748 C331 785 355 781 355 781 L361 811 C288 811 277 748 277 748 L264 668 L349 668 L349 668 Z " />
<glyph glyph-name="quotedblright" unicode="&#x201d;" horiz-adv-x="253" d="M325 732 C319 695 294 698 294 698 L289 668 C362 668 372 732 372 732 L386 811 L301 811 L287 732 L325 732 L325 732 L325 732 Z M179 698 L174 668 C247 668 257 732 257 732 L271 811 L187 811 L173 732 L210 732 L210 732 C204 695 179 698 179 698 L179 698 Z " />
<glyph glyph-name="quotedblbase" unicode="&#x201e;" horiz-adv-x="259" d="M258 83 L173 83 L158 4 L197 4 L197 4 C191 -34 166 -30 166 -30 L161 -60 C234 -60 244 4 244 4 L258 83 L258 83 Z M143 83 L59 83 L44 4 L82 4 L82 4 C76 -34 50 -30 50 -30 L46 -60 C119 -60 128 4 128 4 L143 83 L143 83 Z " />
<glyph glyph-name="dagger" unicode="&#x2020;" horiz-adv-x="426" d="M416 808 L290 808 L263 650 L158 650 L137 524 L241 524 L149 1 L275 1 L367 524 L461 524 L482 650 L389 650 L416 808 L416 808 Z " />
<glyph glyph-name="daggerdbl" unicode="&#x2021;" horiz-adv-x="428" d="M416 808 L290 808 L263 650 L158 650 L137 524 L241 524 L226 442 L121 442 L100 316 L204 316 L149 1 L275 1 L330 316 L424 316 L445 442 L352 442 L367 524 L461 524 L482 650 L389 650 L416 808 L416 808 Z " />
<glyph glyph-name="bullet" unicode="&#x2022;" horiz-adv-x="199" d="M182 480 C152 480 125 456 119 426 C114 396 133 372 163 372 C193 372 222 396 227 426 C233 456 212 480 182 480 L182 480 Z " />
<glyph glyph-name="onedotenleader" unicode="&#x2024;" horiz-adv-x="172" d="M44 1 L133 1 L146 82 L58 82 L44 1 L44 1 Z " />
<glyph glyph-name="twodotenleader" unicode="&#x2025;" horiz-adv-x="343" d="M44 1 L133 1 L146 82 L58 82 L44 1 L44 1 Z M216 1 L305 1 L318 82 L229 82 L216 1 L216 1 Z " />
<glyph glyph-name="ellipsis" unicode="&#x2026;" horiz-adv-x="379" d="M293 0 L382 0 L395 80 L306 80 L293 0 L293 0 Z M168 0 L258 0 L271 80 L181 80 L168 0 L168 0 Z M44 0 L133 0 L146 80 L58 80 L44 0 L44 0 Z " />
<glyph glyph-name="perthousand" unicode="&#x2030;" horiz-adv-x="1201" d="M492 518 L509 613 C528 722 463 811 365 811 C266 811 172 722 152 613 L136 518 C116 409 180 320 278 320 C377 320 473 409 492 518 L492 518 Z M366 518 C359 480 329 446 300 446 C272 446 254 480 262 518 L278 613 C284 652 314 685 342 685 C371 685 389 652 383 613 L366 518 L366 518 Z M779 490 C680 490 584 401 565 292 L548 196 C529 86 594 -2 692 -2 C791 -2 886 86 905 196 L922 292 C941 401 877 490 779 490 L779 490 Z M779 196 C773 157 743 124 715 124 C686 124 668 157 674 196 L691 292 C698 330 728 364 757 364 C785 364 803 330 796 292 L779 196 L779 196 Z M1152 490 C1054 490 958 401 938 292 L922 196 C902 86 967 -2 1066 -2 C1164 -2 1260 86 1279 196 L1296 292 C1315 401 1250 490 1152 490 L1152 490 Z M1153 196 C1147 157 1116 124 1088 124 C1061 124 1042 157 1048 196 L1064 292 C1072 330 1103 364 1130 364 C1158 364 1177 330 1170 292 L1153 196 L1153 196 Z M692 808 L266 1 L377 1 L803 808 L692 808 L692 808 Z " />
<glyph glyph-name="guilsinglleft" unicode="&#x2039;" horiz-adv-x="313" d="M296 624 L114 396 L216 164 L334 229 L263 396 L391 557 L296 624 Z " />
<glyph glyph-name="guilsinglright" unicode="&#x203a;" horiz-adv-x="439" d="M142 557 L215 396 L84 229 L180 164 L364 396 L260 624 L142 557 L142 557 Z " />
<glyph glyph-name="fraction" unicode="&#x2044;" horiz-adv-x="520" d="M472 814 L46 7 L169 7 L594 814 L472 814 Z " />
<glyph glyph-name="zerosuperior" unicode="&#x2070;" horiz-adv-x="347" d="M342 919 L305 919 C248 919 193 872 182 816 L142 583 C132 527 170 480 227 480 L264 480 C320 480 374 527 384 583 L425 816 C436 872 398 919 342 919 L342 919 Z M305 583 C302 571 290 560 278 560 L241 560 C228 560 218 571 221 583 L262 816 C264 829 277 840 290 840 L328 840 C340 840 348 829 346 816 L305 583 L305 583 Z " />
<glyph glyph-name="foursuperior" unicode="&#x2074;" horiz-adv-x="349" d="M419 918 L331 918 L148 616 L288 616 L264 480 L342 480 L366 616 L395 616 L408 694 L379 694 L419 918 L419 918 Z M301 694 L281 694 L310 739 L301 694 L301 694 Z " />
<glyph glyph-name="fivesuperior" unicode="&#x2075;" horiz-adv-x="323" d="M344 791 C325 806 301 814 272 812 L277 840 L371 840 L384 918 L211 918 L175 712 L229 727 C248 733 274 738 286 727 C299 716 301 686 294 644 C288 612 276 559 248 559 C239 559 232 565 227 576 C223 584 223 593 224 604 L145 604 C142 580 143 557 151 538 C164 502 196 480 234 480 C266 480 347 497 373 644 C385 714 376 764 344 791 L344 791 Z " />
<glyph glyph-name="sixsuperior" unicode="&#x2076;" horiz-adv-x="314" d="M289 840 C301 840 308 824 305 809 L384 809 C395 869 358 918 302 918 C246 918 192 869 181 809 L160 684 L143 588 L143 588 C143 586 143 584 143 583 C134 527 170 480 226 480 C280 480 332 527 344 583 C344 584 346 586 346 588 L362 684 C372 740 335 786 280 786 C271 786 264 785 257 784 L260 809 C264 824 277 840 289 840 L289 840 Z M265 707 C277 707 286 696 283 684 L266 588 C266 587 266 587 266 587 C264 574 252 564 240 564 C228 564 221 574 222 587 C222 587 222 587 222 588 L239 684 C241 696 253 707 265 707 L265 707 Z " />
<glyph glyph-name="sevensuperior" unicode="&#x2077;" horiz-adv-x="342" d="M200 918 L187 839 L294 839 C245 767 172 637 144 480 L223 480 C260 692 396 856 397 857 L449 918 L200 918 L200 918 Z " />
<glyph glyph-name="eightsuperior" unicode="&#x2078;" horiz-adv-x="323" d="M394 821 C403 876 367 920 311 920 C256 920 203 876 193 821 C190 799 193 779 200 762 C181 744 166 719 161 692 L143 586 C132 529 170 482 227 482 L240 482 C296 482 350 529 361 586 L379 692 C384 719 379 744 365 762 C379 779 390 799 394 821 L394 821 Z M296 841 C308 841 317 832 314 821 C312 809 301 799 289 799 C278 799 270 809 272 821 C275 832 286 841 296 841 L296 841 Z M283 586 C281 574 268 562 254 562 L241 562 C228 562 220 574 222 586 L240 692 C242 704 256 715 269 715 L282 715 C295 715 304 704 301 692 L283 586 L283 586 Z " />
<glyph glyph-name="ninesuperior" unicode="&#x2079;" horiz-adv-x="298" d="M302 918 C302 918 302 918 302 918 L302 918 L302 918 C246 918 193 872 182 815 L166 721 C156 664 193 618 250 618 C257 618 264 619 272 620 L266 588 C264 572 252 559 240 559 C228 559 220 572 222 588 L143 588 C132 529 169 480 226 480 C281 480 335 529 346 588 L368 721 L385 811 L385 815 C396 872 358 918 302 918 L302 918 Z M264 697 C252 697 244 708 245 721 L262 811 C264 826 277 839 289 839 C289 839 289 839 289 839 C301 839 308 826 306 811 L289 721 C288 708 276 697 264 697 L264 697 Z " />
<glyph glyph-name="parenleftsuperior" unicode="&#x207d;" horiz-adv-x="186" d="M234 871 C135 711 102 521 144 361 C162 361 188 361 205 361 C163 521 196 711 295 871 C278 871 252 871 234 871 L234 871 Z " />
<glyph glyph-name="parenrightsuperior" unicode="&#x207e;" horiz-adv-x="164" d="M224 871 C206 871 180 871 163 871 C206 711 173 521 73 361 C91 361 116 361 134 361 C234 521 267 711 224 871 L224 871 Z " />
<glyph glyph-name="nsuperior" unicode="&#x207f;" horiz-adv-x="388" d="M367 954 C352 954 327 946 312 931 L316 955 L213 955 L130 480 L233 480 L288 793 C293 824 319 852 341 852 C363 852 378 824 372 793 L318 480 L420 480 L475 793 C491 882 438 954 367 954 L367 954 Z " />
<glyph glyph-name="zeroinferior" unicode="&#x2080;" horiz-adv-x="347" d="M233 301 L196 301 C139 301 84 254 74 198 L32 -35 C23 -91 61 -138 118 -138 L155 -138 C211 -138 265 -91 275 -35 L317 198 C326 254 289 301 233 301 L233 301 Z M196 -35 C194 -47 181 -58 169 -58 L132 -58 C119 -58 110 -47 112 -35 L154 198 C156 211 168 222 181 222 L218 222 C230 222 240 211 238 198 L196 -35 L196 -35 Z " />
<glyph glyph-name="oneinferior" unicode="&#x2081;" horiz-adv-x="284" d="M134 215 L67 158 L113 102 L151 134 L89 -223 L167 -223 L244 215 L244 215 L134 215 L134 215 Z " />
<glyph glyph-name="twoinferior" unicode="&#x2082;" horiz-adv-x="338" d="M290 181 C302 247 263 300 203 300 C142 300 82 244 70 175 L149 175 C154 199 172 222 188 222 C205 222 215 203 212 181 C204 134 173 106 133 71 C89 31 35 -18 23 -100 L16 -138 L210 -138 L224 -59 L114 -59 C128 -31 152 -10 181 17 C227 56 278 103 290 181 L290 181 Z " />
<glyph glyph-name="threeinferior" unicode="&#x2083;" horiz-adv-x="353" d="M222 173 L348 300 L127 300 L113 222 L169 222 L59 109 L142 109 C160 109 208 109 192 22 C182 -30 160 -59 146 -59 C131 -59 120 -38 124 -14 L44 -14 C32 -83 72 -138 132 -138 C185 -138 252 -88 271 22 C286 103 260 150 222 173 L222 173 Z " />
<glyph glyph-name="fourinferior" unicode="&#x2084;" horiz-adv-x="349" d="M311 302 L223 302 L40 0 L180 0 L156 -136 L234 -136 L258 0 L287 0 L300 78 L271 78 L311 302 L311 302 Z M193 78 L173 78 L202 124 L193 78 L193 78 Z " />
<glyph glyph-name="fiveinferior" unicode="&#x2085;" horiz-adv-x="323" d="M235 173 C216 188 192 196 163 194 L168 222 L262 222 L276 300 L103 300 L66 94 L121 109 C139 115 164 120 178 109 C190 98 193 68 185 26 C180 -6 167 -59 139 -59 C130 -59 122 -53 118 -42 C115 -34 114 -25 115 -14 L36 -14 C32 -38 35 -61 43 -80 C55 -116 86 -138 125 -138 C157 -138 239 -121 264 26 C277 96 266 146 235 173 L235 173 Z " />
<glyph glyph-name="sixinferior" unicode="&#x2086;" horiz-adv-x="314" d="M180 222 C192 222 199 206 197 191 L276 191 C286 251 250 300 194 300 C138 300 83 251 73 191 L50 66 L34 -30 L34 -30 C34 -32 35 -34 34 -35 C25 -91 61 -138 116 -138 C170 -138 223 -91 235 -35 C236 -34 236 -32 236 -30 L253 66 C263 122 226 168 170 168 C162 168 155 167 148 166 L152 191 C155 206 168 222 180 222 L180 222 Z M157 89 C169 89 176 78 174 66 L157 -30 C157 -31 157 -31 157 -31 C155 -44 144 -54 132 -54 C120 -54 112 -44 113 -31 C113 -31 113 -31 113 -30 L130 66 C132 78 145 89 157 89 L157 89 Z " />
<glyph glyph-name="seveninferior" unicode="&#x2087;" horiz-adv-x="342" d="M92 300 L78 221 L185 221 C136 149 62 19 35 -138 L114 -138 C151 74 287 238 289 239 L341 300 L92 300 L92 300 Z " />
<glyph glyph-name="eightinferior" unicode="&#x2088;" horiz-adv-x="323" d="M284 200 C294 256 258 300 202 300 C146 300 94 256 84 200 C80 179 84 158 91 142 C72 124 56 98 52 72 L32 -35 C23 -91 61 -138 118 -138 L131 -138 C187 -138 241 -91 251 -35 L270 72 C275 98 270 124 256 142 C270 158 281 179 284 200 L284 200 Z M187 221 C199 221 208 211 205 200 C203 188 192 179 180 179 C169 179 161 188 163 200 C166 211 176 221 187 221 L187 221 Z M173 -35 C172 -47 158 -59 145 -59 L132 -59 C119 -59 110 -47 112 -35 L131 72 C133 84 145 95 158 95 L172 95 C185 95 194 84 192 72 L173 -35 L173 -35 Z " />
<glyph glyph-name="nineinferior" unicode="&#x2089;" horiz-adv-x="298" d="M194 300 C194 300 194 300 194 300 L194 300 L194 300 C138 300 84 254 73 197 L58 103 C47 46 85 0 142 0 C149 0 156 1 163 2 L157 -30 C155 -46 143 -59 131 -59 C119 -59 110 -46 113 -30 L34 -30 C23 -89 60 -138 116 -138 C172 -138 226 -89 236 -30 L260 103 L276 193 L276 197 C287 254 250 300 194 300 L194 300 Z M155 79 C143 79 134 90 137 103 L152 193 C155 208 168 221 180 221 C180 221 180 221 180 221 C192 221 199 208 197 193 L181 103 C179 90 167 79 155 79 L155 79 Z " />
<glyph glyph-name="parenleftinferior" unicode="&#x208d;" horiz-adv-x="194" d="M157 359 C77 231 50 79 85 -50 C99 -50 120 -50 134 -50 C99 79 126 231 206 359 C192 359 171 359 157 359 L157 359 Z " />
<glyph glyph-name="parenrightinferior" unicode="&#x208e;" horiz-adv-x="169" d="M141 359 C126 359 106 359 91 359 C126 231 99 79 19 -50 C33 -50 54 -50 69 -50 C149 79 176 231 141 359 L141 359 Z " />
<glyph glyph-name="colonmonetary" unicode="&#x20a1;" horiz-adv-x="475" d="M560 666 C559 684 554 702 547 719 L612 850 L538 850 L500 775 C492 782 485 787 475 792 L504 850 L430 850 L410 810 C406 810 402 810 397 810 L388 810 C278 810 173 721 154 612 L82 198 C78 180 77 163 79 146 L-8 -30 L66 -30 L112 61 C118 53 125 46 133 40 L98 -30 L174 -30 L193 7 C209 2 227 0 245 0 L254 0 C337 0 420 53 463 131 L352 174 C337 145 306 127 276 127 L266 127 C262 127 257 127 252 128 L514 653 L560 666 L560 666 Z M280 612 C286 646 313 672 344 680 L263 516 L280 612 L280 612 Z M208 198 L222 283 L415 668 C418 667 419 665 421 662 C426 655 431 648 432 638 L206 185 C205 190 206 193 208 198 L208 198 Z " />
<glyph glyph-name="Euro" unicode="&#x20ac;" horiz-adv-x="514" d="M379 706 L389 706 C428 706 455 673 449 634 L575 634 C594 743 521 832 412 832 L402 832 C293 832 188 743 169 634 L156 559 L143 559 L120 433 L133 433 L126 394 L113 394 L91 268 L104 268 L91 191 C71 82 144 -7 253 -7 L263 -7 C372 -7 476 82 497 191 L371 191 C364 151 325 119 286 119 L276 119 C236 119 210 151 217 191 L230 268 L427 268 L449 394 L252 394 L259 433 L456 433 L479 559 L282 559 L295 634 C301 673 340 706 379 706 L379 706 Z " />
<glyph glyph-name="afii61352" unicode="&#x2116;" horiz-adv-x="931" d="M324 812 L191 812 L190 812 L48 0 L174 0 L256 468 L350 0 L352 0 L478 0 L620 810 L494 810 L414 356 L324 812 Z M849 782 C751 782 654 693 635 584 L602 397 C583 289 648 199 746 199 C845 199 940 289 959 397 L992 584 C1011 693 948 782 849 782 L849 782 Z M833 397 C827 360 797 326 769 326 C742 326 722 360 728 397 L761 584 C768 622 800 656 827 656 C855 656 873 622 866 584 L833 397 L833 397 Z M563 31 L866 31 L888 157 L584 157 L563 31 L563 31 Z " />
<glyph glyph-name="trademark" unicode="&#x2122;" horiz-adv-x="511" d="M155 751 L203 751 L156 480 L219 480 L266 751 L314 751 L325 814 L166 814 L155 751 L155 751 Z M491 814 L432 696 L414 814 L413 814 L350 814 L291 480 L354 480 L378 613 L384 569 L435 569 L459 617 L435 480 L498 480 L556 814 L491 814 L491 814 Z " />
<glyph glyph-name="onethird" unicode="&#x2153;" horiz-adv-x="659" d="M570 310 L695 438 L474 438 L460 359 L516 359 L407 247 L490 247 C508 247 556 247 540 160 C530 107 508 79 494 79 C479 79 468 100 472 122 L392 122 C382 55 421 0 481 0 C534 0 600 49 619 160 C634 241 608 288 570 310 L570 310 Z M221 809 L154 752 L200 696 L238 728 L174 371 L253 371 L330 809 L330 809 L221 809 L221 809 Z M520 814 L94 7 L217 7 L642 814 L520 814 Z " />
<glyph glyph-name="twothirds" unicode="&#x2154;" horiz-adv-x="745" d="M630 310 L755 438 L534 438 L520 359 L576 359 L467 247 L550 247 C568 247 616 247 600 160 C590 107 568 79 554 79 C539 79 528 100 532 122 L452 122 C442 55 481 0 541 0 C594 0 660 49 679 160 C694 241 668 288 630 310 L630 310 Z M379 686 C391 751 352 804 290 804 C230 804 170 748 158 680 L238 680 C242 703 260 726 276 726 C294 726 304 707 301 685 C293 638 262 610 222 575 C178 535 124 486 110 406 L104 366 L299 366 L313 445 L203 445 C217 473 241 496 270 521 C316 562 367 607 379 686 L379 686 Z M576 814 L150 7 L273 7 L698 814 L576 814 Z " />
<glyph glyph-name="oneeighth" unicode="&#x215b;" horiz-adv-x="648" d="M647 337 C656 392 620 438 564 438 C509 438 456 392 446 337 C443 316 446 295 455 280 C434 260 419 236 414 209 L396 103 C385 46 425 0 481 0 L494 0 C551 0 604 46 614 103 L632 209 C637 236 632 260 618 280 C632 295 643 316 647 337 L647 337 Z M550 359 C562 359 570 349 568 337 C565 326 554 317 542 317 C532 317 522 326 524 337 C527 349 539 359 550 359 L550 359 Z M536 103 C534 90 521 79 508 79 L494 79 C481 79 473 90 475 103 L493 209 C496 222 509 233 522 233 L535 233 C548 233 557 222 554 209 L536 103 L536 103 Z M221 809 L154 752 L200 696 L238 728 L174 371 L253 371 L330 809 L330 809 L221 809 L221 809 Z M537 814 L111 7 L234 7 L659 814 L537 814 Z " />
<glyph glyph-name="threeeighths" unicode="&#x215c;" horiz-adv-x="659" d="M652 337 C661 392 625 438 569 438 C514 438 461 392 451 337 C448 316 451 295 460 280 C439 260 424 236 419 209 L401 103 C390 46 430 0 486 0 L499 0 C556 0 608 46 619 103 L637 209 C642 236 637 260 623 280 C637 295 648 316 652 337 L652 337 Z M554 359 C566 359 575 349 572 337 C570 326 559 317 547 317 C536 317 527 326 529 337 C532 349 544 359 554 359 L554 359 Z M541 103 C539 90 526 79 512 79 L499 79 C486 79 478 90 480 103 L498 209 C500 222 514 233 527 233 L540 233 C553 233 562 222 559 209 L541 103 L541 103 Z M282 680 L407 809 L187 809 L174 730 L229 730 L119 618 L202 618 C220 618 268 618 252 530 C244 478 221 450 208 450 C192 450 181 470 185 493 L106 493 C94 426 133 371 193 371 C246 371 312 420 331 530 C346 612 320 659 282 680 L282 680 Z M543 814 L117 7 L240 7 L665 814 L543 814 Z " />
<glyph glyph-name="fiveeighths" unicode="&#x215d;" horiz-adv-x="696" d="M688 337 C697 392 661 438 605 438 C550 438 497 392 487 337 C484 316 487 295 496 280 C475 260 460 236 455 209 L437 103 C426 46 466 0 522 0 L535 0 C592 0 644 46 655 103 L673 209 C678 236 673 260 659 280 C673 295 684 316 688 337 L688 337 Z M590 359 C602 359 611 349 608 337 C606 326 595 317 583 317 C572 317 563 326 565 337 C568 349 580 359 590 359 L590 359 Z M577 103 C575 90 562 79 548 79 L535 79 C522 79 514 90 516 103 L534 209 C536 222 550 233 563 233 L576 233 C589 233 598 222 595 209 L577 103 L577 103 Z M324 677 C305 692 281 700 252 698 L257 726 L350 726 L365 804 L192 804 L155 598 L210 613 C228 619 253 624 266 613 C278 602 282 572 274 530 C269 499 256 445 227 445 C218 445 211 452 206 462 C204 470 203 480 204 490 L125 490 C121 466 124 443 132 424 C144 388 175 367 212 367 C246 367 328 383 353 530 C366 601 355 650 324 677 L324 677 Z M564 814 L138 7 L261 7 L686 814 L564 814 Z " />
<glyph glyph-name="seveneighths" unicode="&#x215e;" horiz-adv-x="631" d="M181 808 L168 728 L275 728 C226 656 152 527 125 370 L204 370 C241 582 377 744 378 746 L430 808 L181 808 Z M592 337 C601 392 565 438 509 438 C454 438 401 392 391 337 C388 316 391 295 400 280 C379 260 364 236 359 209 L341 103 C330 47 370 0 426 0 L439 0 C496 0 548 47 559 103 L577 209 C582 236 577 260 563 280 C577 295 588 316 592 337 L592 337 Z M494 359 C506 359 515 349 512 337 C510 326 499 317 487 317 C476 317 467 326 469 337 C472 349 484 359 494 359 L494 359 Z M481 103 C479 90 466 79 452 79 L439 79 C426 79 418 90 420 103 L438 209 C440 222 454 233 467 233 L480 233 C493 233 502 222 499 209 L481 103 Z M472 814 L46 7 L169 7 L594 814 L472 814 Z " />
<glyph glyph-name="partialdiff" unicode="&#x2202;" horiz-adv-x="532" d="M523 833 C420 833 306 743 268 634 L394 634 C406 673 445 706 478 706 C510 706 526 673 514 634 L487 560 C472 568 451 571 430 571 C326 571 212 482 174 373 L114 199 C112 196 112 193 112 191 L112 191 C71 80 122 -8 226 -8 C329 -8 444 80 485 191 L487 199 L547 373 L641 634 C679 743 626 833 523 833 L523 833 Z M300 373 C314 412 354 445 386 445 C419 445 434 412 420 373 L360 199 C346 160 306 127 274 127 C241 127 226 160 240 199 L300 373 L300 373 Z " />
<glyph glyph-name="product" unicode="&#x220f;" horiz-adv-x="520" d="M184 1 L184 1 L302 680 L551 680 L432 1 L558 1 L700 806 L199 806 L58 1 L184 1 L184 1 Z " />
<glyph glyph-name="summation" unicode="&#x2211;" horiz-adv-x="492" d="M463 -9 L485 109 L275 109 L427 258 L335 420 L545 420 L566 537 L146 537 L284 258 L43 -9 L463 -9 L463 -9 Z " />
<glyph glyph-name="minus" unicode="&#x2212;" horiz-adv-x="593" d="M106 348 L409 348 L431 474 L127 474 L106 348 L106 348 Z " />
<glyph glyph-name="radical" unicode="&#x221a;" horiz-adv-x="716" d="M232 284 L343 -158 L830 808 L718 847 L391 198 L324 462 L106 353 L146 242 L232 284 L232 284 Z " />
<glyph glyph-name="infinity" unicode="&#x221e;" horiz-adv-x="737" d="M782 409 C796 488 749 546 671 546 C646 546 619 540 590 529 L460 478 C424 494 390 509 365 521 L348 529 C325 540 300 546 275 546 C197 546 130 488 116 409 C109 370 116 335 137 310 C157 286 190 272 228 272 C252 272 278 277 306 289 L434 340 C469 325 500 311 524 299 L548 288 C571 277 598 272 622 272 C622 272 622 272 622 272 C660 272 695 286 725 310 C755 335 775 370 782 409 L782 409 Z M277 404 C264 400 254 398 250 398 C245 398 241 400 241 400 C241 400 241 403 242 409 C242 414 245 418 245 419 C246 419 248 420 252 420 C258 420 266 419 278 413 L288 409 L277 404 L277 404 Z M652 400 C652 400 649 398 643 398 L643 398 C638 398 629 400 618 404 L608 409 L619 414 C634 419 642 420 648 420 C653 420 655 419 655 419 C656 418 658 415 656 409 C655 403 653 400 652 400 L652 400 Z " />
<glyph glyph-name="integral" unicode="&#x222b;" horiz-adv-x="407" d="M186 632 L107 181 C98 134 71 109 62 108 C62 108 62 108 62 108 L41 -18 C127 -18 214 71 233 181 L312 632 C319 671 350 706 378 706 C390 706 398 700 403 694 L504 787 C478 816 442 832 401 832 C302 832 206 743 186 632 L186 632 Z " />
<glyph glyph-name="approxequal" unicode="&#x2248;" horiz-adv-x="540" d="M452 173 L548 271 C448 367 358 330 298 306 C276 296 258 289 245 290 C226 292 205 313 191 330 L86 241 C133 182 182 164 226 164 C265 164 300 179 329 191 C377 210 402 221 452 173 L452 173 Z M362 383 C412 403 436 413 486 366 L583 463 C482 559 391 522 332 498 C310 490 292 482 278 482 C260 485 239 505 224 522 L120 433 C168 374 216 356 259 356 C299 356 334 371 362 383 L362 383 Z " />
<glyph glyph-name="notequal" unicode="&#x2260;" horiz-adv-x="410" d="M112 230 L221 184 L265 263 L394 263 L416 389 L337 389 L352 414 L420 414 L443 540 L424 540 L440 571 L331 617 L288 540 L139 540 L116 414 L216 414 L203 389 L113 389 L90 263 L130 263 L112 230 L112 230 Z " />
<glyph glyph-name="lessequal" unicode="&#x2264;" horiz-adv-x="420" d="M252 221 L372 287 L299 452 L430 614 L332 680 L151 454 L252 221 Z M82 215 L60 89 L384 89 L406 215 L82 215 Z " />
<glyph glyph-name="greaterequal" unicode="&#x2265;" horiz-adv-x="421" d="M238 221 L420 454 L318 680 L199 614 L272 452 L142 287 L238 221 L238 221 Z M406 215 L82 215 L60 89 L384 89 L406 215 L406 215 Z " />
<glyph glyph-name="lozenge" unicode="&#x25ca;" horiz-adv-x="444" d="M294 112 L502 422 L416 703 L406 739 L326 739 L119 428 L215 112 L294 112 L294 112 Z M329 532 L362 422 L292 319 L259 428 L329 532 L329 532 Z " />
<glyph glyph-name="ff" unicode="&#xfb00;" horiz-adv-x="763" d="M674 811 C576 811 481 722 461 612 L456 583 L362 583 L341 457 L434 457 L354 0 L480 0 L560 457 L610 457 L631 583 L582 583 L587 612 C594 652 624 685 652 685 C664 685 672 679 677 673 L779 768 C751 796 715 811 674 811 L674 811 Z M413 811 C315 811 220 722 200 612 L195 583 L149 583 L127 457 L173 457 L93 0 L219 0 L299 457 L348 457 L370 583 L321 583 L326 612 C333 652 363 685 390 685 C402 685 411 679 416 673 L518 768 C491 796 454 811 413 811 L413 811 Z " />
<glyph glyph-name="fi" unicode="&#xfb01;" horiz-adv-x="565" d="M332 0 L458 0 L560 583 L434 583 L332 0 L332 0 Z M527 764 C499 793 458 809 418 809 C319 809 218 719 199 610 L194 583 L149 583 L127 457 L173 457 L92 0 L218 0 L299 457 L348 457 L370 583 L320 583 L325 610 C332 648 368 682 396 682 C408 682 420 676 425 671 C438 656 444 634 439 610 L565 610 C576 670 562 726 527 764 L527 764 Z " />
<glyph glyph-name="fl" unicode="&#xfb02;" horiz-adv-x="574" d="M542 764 C515 793 463 809 422 809 C324 809 218 719 199 610 L193 583 L148 583 L126 457 L172 457 L92 0 L218 0 L298 457 L347 457 L368 583 L319 583 L325 610 C332 648 373 682 401 682 C413 682 436 676 440 671 C454 656 460 634 455 610 L348 0 L474 0 L581 610 C592 670 577 726 542 764 L542 764 Z " />
<glyph glyph-name="ffi" unicode="&#xfb03;" horiz-adv-x="790" d="M601 0 L727 0 L829 583 L703 583 L601 0 L601 0 Z M796 764 C768 793 727 809 686 809 C588 809 487 719 468 610 L463 583 L346 583 L324 457 L442 457 L361 0 L487 0 L568 457 L617 457 L638 583 L589 583 L594 610 C601 648 637 682 665 682 C677 682 689 676 694 671 C707 656 713 634 708 610 L834 610 C845 670 830 726 796 764 L796 764 Z M413 811 C315 811 220 722 200 612 L195 583 L149 583 L127 457 L173 457 L93 0 L219 0 L299 457 L348 457 L370 583 L321 583 L326 612 C333 652 363 685 390 685 C402 685 411 679 416 673 L518 768 C491 796 454 811 413 811 L413 811 Z " />
<glyph glyph-name="ffl" unicode="&#xfb04;" horiz-adv-x="792" d="M797 764 C769 793 718 809 677 809 C578 809 473 719 454 610 L448 583 L354 583 L332 457 L426 457 L347 0 L473 0 L552 457 L601 457 L623 583 L574 583 L580 610 C587 648 628 682 655 682 C667 682 690 676 695 671 C708 656 714 634 709 610 L602 0 L728 0 L835 610 C846 670 832 726 797 764 L797 764 Z M413 811 C315 811 220 722 200 612 L195 583 L149 583 L127 457 L173 457 L93 0 L219 0 L299 457 L348 457 L370 583 L321 583 L326 612 C333 652 363 685 390 685 C402 685 411 679 416 673 L518 768 C491 796 454 811 413 811 L413 811 Z " />
</font>
</svg>
